<?xml version="1.0" encoding="UTF-8" standalone="no"?>
<!DOCTYPE svg PUBLIC "-//W3C//DTD SVG 1.1//EN"
 "http://www.w3.org/Graphics/SVG/1.1/DTD/svg11.dtd">
<!-- Generated by graphviz version 2.40.1 (20161225.0304)
 -->
<!-- Title: UmlClassDiagram Pages: 1 -->
<svg width="3575pt" height="1419pt"
 viewBox="0.00 0.00 3575.36 1419.40" xmlns="http://www.w3.org/2000/svg" xmlns:xlink="http://www.w3.org/1999/xlink">
<g id="graph0" class="graph" transform="scale(1 1) rotate(0) translate(4 1415.4)">
<title>UmlClassDiagram</title>
<polygon fill="#ffffff" stroke="transparent" points="-4,4 -4,-1415.4 3571.3588,-1415.4 3571.3588,4 -4,4"/>
<!-- 0 -->
<g id="node1" class="node">
<title>0</title>
<polygon fill="#f2f2f2" stroke="#000000" points="726.26,-1168.5 726.26,-1410.9 1164.8598,-1410.9 1164.8598,-1168.5 726.26,-1168.5"/>
<text text-anchor="middle" x="945.5599" y="-1394.3" font-family="Times,serif" font-size="14.00" fill="#000000">&lt;&lt;Interface&gt;&gt;</text>
<text text-anchor="middle" x="945.5599" y="-1377.5" font-family="Times,serif" font-size="14.00" fill="#000000">IERC20</text>
<polyline fill="none" stroke="#000000" points="726.26,-1369.3 1164.8598,-1369.3 "/>
<text text-anchor="middle" x="945.5599" y="-1352.7" font-family="Times,serif" font-size="14.00" fill="#000000"> </text>
<polyline fill="none" stroke="#000000" points="726.26,-1344.5 1164.8598,-1344.5 "/>
<text text-anchor="start" x="734.26" y="-1327.9" font-family="Times,serif" font-size="14.00" fill="#000000">External:</text>
<text text-anchor="start" x="734.26" y="-1311.1" font-family="Times,serif" font-size="14.00" fill="#000000"> &#160;&#160;&#160;&#160;totalSupply(): uint256</text>
<text text-anchor="start" x="734.26" y="-1294.3" font-family="Times,serif" font-size="14.00" fill="#000000"> &#160;&#160;&#160;&#160;balanceOf(account: address): uint256</text>
<text text-anchor="start" x="734.26" y="-1277.5" font-family="Times,serif" font-size="14.00" fill="#000000"> &#160;&#160;&#160;&#160;transfer(recipient: address, amount: uint256): bool</text>
<text text-anchor="start" x="734.26" y="-1260.7" font-family="Times,serif" font-size="14.00" fill="#000000"> &#160;&#160;&#160;&#160;allowance(owner: address, spender: address): uint256</text>
<text text-anchor="start" x="734.26" y="-1243.9" font-family="Times,serif" font-size="14.00" fill="#000000"> &#160;&#160;&#160;&#160;approve(spender: address, amount: uint256): bool</text>
<text text-anchor="start" x="734.26" y="-1227.1" font-family="Times,serif" font-size="14.00" fill="#000000"> &#160;&#160;&#160;&#160;transferFrom(sender: address, recipient: address, amount: uint256): bool</text>
<text text-anchor="start" x="734.26" y="-1210.3" font-family="Times,serif" font-size="14.00" fill="#000000">Public:</text>
<text text-anchor="start" x="734.26" y="-1193.5" font-family="Times,serif" font-size="14.00" fill="#000000"> &#160;&#160;&#160;&lt;&lt;event&gt;&gt; Transfer(from: address, to: address, value: uint256)</text>
<text text-anchor="start" x="734.26" y="-1176.7" font-family="Times,serif" font-size="14.00" fill="#000000"> &#160;&#160;&#160;&lt;&lt;event&gt;&gt; Approval(owner: address, spender: address, value: uint256)</text>
</g>
<!-- 1 -->
<g id="node2" class="node">
<title>1</title>
<polygon fill="#f2f2f2" stroke="#000000" points="789.1833,-989.9 789.1833,-1131.5 917.9365,-1131.5 917.9365,-989.9 789.1833,-989.9"/>
<text text-anchor="middle" x="853.5599" y="-1114.9" font-family="Times,serif" font-size="14.00" fill="#000000">&lt;&lt;Interface&gt;&gt;</text>
<text text-anchor="middle" x="853.5599" y="-1098.1" font-family="Times,serif" font-size="14.00" fill="#000000">IERC20Metadata</text>
<polyline fill="none" stroke="#000000" points="789.1833,-1089.9 917.9365,-1089.9 "/>
<text text-anchor="middle" x="853.5599" y="-1073.3" font-family="Times,serif" font-size="14.00" fill="#000000"> </text>
<polyline fill="none" stroke="#000000" points="789.1833,-1065.1 917.9365,-1065.1 "/>
<text text-anchor="start" x="797.1833" y="-1048.5" font-family="Times,serif" font-size="14.00" fill="#000000">External:</text>
<text text-anchor="start" x="797.1833" y="-1031.7" font-family="Times,serif" font-size="14.00" fill="#000000"> &#160;&#160;&#160;&#160;name(): string</text>
<text text-anchor="start" x="797.1833" y="-1014.9" font-family="Times,serif" font-size="14.00" fill="#000000"> &#160;&#160;&#160;&#160;symbol(): string</text>
<text text-anchor="start" x="797.1833" y="-998.1" font-family="Times,serif" font-size="14.00" fill="#000000"> &#160;&#160;&#160;&#160;decimals(): uint8</text>
</g>
<!-- 1&#45;&gt;0 -->
<g id="edge1" class="edge">
<title>1&#45;&gt;0</title>
<path fill="none" stroke="#000000" stroke-dasharray="5,2" d="M882.0393,-1131.5888C883.1768,-1134.4201 884.3311,-1137.2933 885.4987,-1140.1998"/>
<polygon fill="none" stroke="#000000" points="875.8207,-1144.2762 896.7475,-1168.1994 895.3069,-1136.4476 875.8207,-1144.2762"/>
</g>
<!-- 2 -->
<g id="node3" class="node">
<title>2</title>
<polygon fill="#f2f2f2" stroke="#000000" points="515.6107,-998.3 515.6107,-1123.1 673.5091,-1123.1 673.5091,-998.3 515.6107,-998.3"/>
<text text-anchor="middle" x="594.5599" y="-1106.5" font-family="Times,serif" font-size="14.00" fill="#000000">&lt;&lt;Abstract&gt;&gt;</text>
<text text-anchor="middle" x="594.5599" y="-1089.7" font-family="Times,serif" font-size="14.00" fill="#000000">Context</text>
<polyline fill="none" stroke="#000000" points="515.6107,-1081.5 673.5091,-1081.5 "/>
<text text-anchor="middle" x="594.5599" y="-1064.9" font-family="Times,serif" font-size="14.00" fill="#000000"> </text>
<polyline fill="none" stroke="#000000" points="515.6107,-1056.7 673.5091,-1056.7 "/>
<text text-anchor="start" x="523.6107" y="-1040.1" font-family="Times,serif" font-size="14.00" fill="#000000">Internal:</text>
<text text-anchor="start" x="523.6107" y="-1023.3" font-family="Times,serif" font-size="14.00" fill="#000000"> &#160;&#160;&#160;_msgSender(): address</text>
<text text-anchor="start" x="523.6107" y="-1006.5" font-family="Times,serif" font-size="14.00" fill="#000000"> &#160;&#160;&#160;_msgData(): bytes</text>
</g>
<!-- 3 -->
<g id="node4" class="node">
<title>3</title>
<polygon fill="#f2f2f2" stroke="#000000" points="636.01,-492.1 636.01,-952.9 1071.1098,-952.9 1071.1098,-492.1 636.01,-492.1"/>
<text text-anchor="middle" x="853.5599" y="-936.3" font-family="Times,serif" font-size="14.00" fill="#000000">ERC20</text>
<polyline fill="none" stroke="#000000" points="636.01,-928.1 1071.1098,-928.1 "/>
<text text-anchor="start" x="644.01" y="-911.5" font-family="Times,serif" font-size="14.00" fill="#000000">Private:</text>
<text text-anchor="start" x="644.01" y="-894.7" font-family="Times,serif" font-size="14.00" fill="#000000"> &#160;&#160;_balances: mapping(address=&gt;uint256)</text>
<text text-anchor="start" x="644.01" y="-877.9" font-family="Times,serif" font-size="14.00" fill="#000000"> &#160;&#160;_allowances: mapping(address=&gt;mapping(address=&gt;uint256))</text>
<text text-anchor="start" x="644.01" y="-861.1" font-family="Times,serif" font-size="14.00" fill="#000000"> &#160;&#160;_totalSupply: uint256</text>
<text text-anchor="start" x="644.01" y="-844.3" font-family="Times,serif" font-size="14.00" fill="#000000"> &#160;&#160;_name: string</text>
<text text-anchor="start" x="644.01" y="-827.5" font-family="Times,serif" font-size="14.00" fill="#000000"> &#160;&#160;_symbol: string</text>
<polyline fill="none" stroke="#000000" points="636.01,-819.3 1071.1098,-819.3 "/>
<text text-anchor="start" x="644.01" y="-802.7" font-family="Times,serif" font-size="14.00" fill="#000000">Internal:</text>
<text text-anchor="start" x="644.01" y="-785.9" font-family="Times,serif" font-size="14.00" fill="#000000"> &#160;&#160;&#160;_transfer(sender: address, recipient: address, amount: uint256)</text>
<text text-anchor="start" x="644.01" y="-769.1" font-family="Times,serif" font-size="14.00" fill="#000000"> &#160;&#160;&#160;_mint(account: address, amount: uint256)</text>
<text text-anchor="start" x="644.01" y="-752.3" font-family="Times,serif" font-size="14.00" fill="#000000"> &#160;&#160;&#160;_burn(account: address, amount: uint256)</text>
<text text-anchor="start" x="644.01" y="-735.5" font-family="Times,serif" font-size="14.00" fill="#000000"> &#160;&#160;&#160;_approve(owner: address, spender: address, amount: uint256)</text>
<text text-anchor="start" x="644.01" y="-718.7" font-family="Times,serif" font-size="14.00" fill="#000000"> &#160;&#160;&#160;_beforeTokenTransfer(from: address, to: address, amount: uint256)</text>
<text text-anchor="start" x="644.01" y="-701.9" font-family="Times,serif" font-size="14.00" fill="#000000">Public:</text>
<text text-anchor="start" x="644.01" y="-685.1" font-family="Times,serif" font-size="14.00" fill="#000000"> &#160;&#160;&#160;constructor(name_: string, symbol_: string)</text>
<text text-anchor="start" x="644.01" y="-668.3" font-family="Times,serif" font-size="14.00" fill="#000000"> &#160;&#160;&#160;name(): string</text>
<text text-anchor="start" x="644.01" y="-651.5" font-family="Times,serif" font-size="14.00" fill="#000000"> &#160;&#160;&#160;symbol(): string</text>
<text text-anchor="start" x="644.01" y="-634.7" font-family="Times,serif" font-size="14.00" fill="#000000"> &#160;&#160;&#160;decimals(): uint8</text>
<text text-anchor="start" x="644.01" y="-617.9" font-family="Times,serif" font-size="14.00" fill="#000000"> &#160;&#160;&#160;totalSupply(): uint256</text>
<text text-anchor="start" x="644.01" y="-601.1" font-family="Times,serif" font-size="14.00" fill="#000000"> &#160;&#160;&#160;balanceOf(account: address): uint256</text>
<text text-anchor="start" x="644.01" y="-584.3" font-family="Times,serif" font-size="14.00" fill="#000000"> &#160;&#160;&#160;transfer(recipient: address, amount: uint256): bool</text>
<text text-anchor="start" x="644.01" y="-567.5" font-family="Times,serif" font-size="14.00" fill="#000000"> &#160;&#160;&#160;allowance(owner: address, spender: address): uint256</text>
<text text-anchor="start" x="644.01" y="-550.7" font-family="Times,serif" font-size="14.00" fill="#000000"> &#160;&#160;&#160;approve(spender: address, amount: uint256): bool</text>
<text text-anchor="start" x="644.01" y="-533.9" font-family="Times,serif" font-size="14.00" fill="#000000"> &#160;&#160;&#160;transferFrom(sender: address, recipient: address, amount: uint256): bool</text>
<text text-anchor="start" x="644.01" y="-517.1" font-family="Times,serif" font-size="14.00" fill="#000000"> &#160;&#160;&#160;increaseAllowance(spender: address, addedValue: uint256): bool</text>
<text text-anchor="start" x="644.01" y="-500.3" font-family="Times,serif" font-size="14.00" fill="#000000"> &#160;&#160;&#160;decreaseAllowance(spender: address, subtractedValue: uint256): bool</text>
</g>
<!-- 3&#45;&gt;0 -->
<g id="edge3" class="edge">
<title>3&#45;&gt;0</title>
<path fill="none" stroke="#000000" stroke-dasharray="5,2" d="M919.711,-952.9596C922.2563,-965.234 924.5666,-977.4351 926.5599,-989.4 934.5542,-1037.385 939.2466,-1090.1956 941.9815,-1137.9718"/>
<polygon fill="none" stroke="#000000" points="931.5053,-1138.7107 943.4942,-1168.1473 952.4789,-1137.6592 931.5053,-1138.7107"/>
</g>
<!-- 3&#45;&gt;1 -->
<g id="edge4" class="edge">
<title>3&#45;&gt;1</title>
<path fill="none" stroke="#000000" stroke-dasharray="5,2" d="M853.5599,-953.2267C853.5599,-955.3298 853.5599,-957.4182 853.5599,-959.4902"/>
<polygon fill="none" stroke="#000000" points="843.06,-959.6846 853.5599,-989.6847 864.06,-959.6847 843.06,-959.6846"/>
</g>
<!-- 3&#45;&gt;2 -->
<g id="edge2" class="edge">
<title>3&#45;&gt;2</title>
<path fill="none" stroke="#000000" d="M676.865,-953.2267C671.3807,-960.3882 666.0271,-967.3788 660.852,-974.1364"/>
<polygon fill="none" stroke="#000000" points="652.34,-967.9818 642.436,-998.1838 669.0126,-980.75 652.34,-967.9818"/>
</g>
<!-- 4 -->
<g id="node5" class="node">
<title>4</title>
<polygon fill="#f2f2f2" stroke="#000000" points="450.8663,-263.1 450.8663,-387.9 738.2535,-387.9 738.2535,-263.1 450.8663,-263.1"/>
<text text-anchor="middle" x="594.5599" y="-371.3" font-family="Times,serif" font-size="14.00" fill="#000000">&lt;&lt;Abstract&gt;&gt;</text>
<text text-anchor="middle" x="594.5599" y="-354.5" font-family="Times,serif" font-size="14.00" fill="#000000">ERC20Burnable</text>
<polyline fill="none" stroke="#000000" points="450.8663,-346.3 738.2535,-346.3 "/>
<text text-anchor="middle" x="594.5599" y="-329.7" font-family="Times,serif" font-size="14.00" fill="#000000"> </text>
<polyline fill="none" stroke="#000000" points="450.8663,-321.5 738.2535,-321.5 "/>
<text text-anchor="start" x="458.8663" y="-304.9" font-family="Times,serif" font-size="14.00" fill="#000000">Public:</text>
<text text-anchor="start" x="458.8663" y="-288.1" font-family="Times,serif" font-size="14.00" fill="#000000"> &#160;&#160;&#160;burn(amount: uint256)</text>
<text text-anchor="start" x="458.8663" y="-271.3" font-family="Times,serif" font-size="14.00" fill="#000000"> &#160;&#160;&#160;burnFrom(account: address, amount: uint256)</text>
</g>
<!-- 4&#45;&gt;2 -->
<g id="edge5" class="edge">
<title>4&#45;&gt;2</title>
<path fill="none" stroke="#000000" d="M594.5599,-388.1827C594.5599,-517.8589 594.5599,-816.1375 594.5599,-968.0861"/>
<polygon fill="none" stroke="#000000" points="584.06,-968.1759 594.5599,-998.1759 605.06,-968.176 584.06,-968.1759"/>
</g>
<!-- 4&#45;&gt;3 -->
<g id="edge6" class="edge">
<title>4&#45;&gt;3</title>
<path fill="none" stroke="#000000" d="M635.3136,-387.968C650.0418,-410.5436 667.7208,-437.6423 686.5584,-466.517"/>
<polygon fill="none" stroke="#000000" points="677.8026,-472.3129 702.9886,-491.7015 695.3907,-460.8385 677.8026,-472.3129"/>
</g>
<!-- 5 -->
<g id="node6" class="node">
<title>5</title>
<polygon fill="#f2f2f2" stroke="#000000" points="2136.5019,-576.1 2136.5019,-868.9 2702.6179,-868.9 2702.6179,-576.1 2136.5019,-576.1"/>
<text text-anchor="middle" x="2419.5599" y="-852.3" font-family="Times,serif" font-size="14.00" fill="#000000">&lt;&lt;Library&gt;&gt;</text>
<text text-anchor="middle" x="2419.5599" y="-835.5" font-family="Times,serif" font-size="14.00" fill="#000000">Address</text>
<polyline fill="none" stroke="#000000" points="2136.5019,-827.3 2702.6179,-827.3 "/>
<text text-anchor="middle" x="2419.5599" y="-810.7" font-family="Times,serif" font-size="14.00" fill="#000000"> </text>
<polyline fill="none" stroke="#000000" points="2136.5019,-802.5 2702.6179,-802.5 "/>
<text text-anchor="start" x="2144.5019" y="-785.9" font-family="Times,serif" font-size="14.00" fill="#000000">Private:</text>
<text text-anchor="start" x="2144.5019" y="-769.1" font-family="Times,serif" font-size="14.00" fill="#000000"> &#160;&#160;&#160;_verifyCallResult(success: bool, returndata: bytes, errorMessage: string): bytes</text>
<text text-anchor="start" x="2144.5019" y="-752.3" font-family="Times,serif" font-size="14.00" fill="#000000">Internal:</text>
<text text-anchor="start" x="2144.5019" y="-735.5" font-family="Times,serif" font-size="14.00" fill="#000000"> &#160;&#160;&#160;isContract(account: address): bool</text>
<text text-anchor="start" x="2144.5019" y="-718.7" font-family="Times,serif" font-size="14.00" fill="#000000"> &#160;&#160;&#160;sendValue(recipient: address, amount: uint256)</text>
<text text-anchor="start" x="2144.5019" y="-701.9" font-family="Times,serif" font-size="14.00" fill="#000000"> &#160;&#160;&#160;functionCall(target: address, data: bytes): bytes</text>
<text text-anchor="start" x="2144.5019" y="-685.1" font-family="Times,serif" font-size="14.00" fill="#000000"> &#160;&#160;&#160;functionCall(target: address, data: bytes, errorMessage: string): bytes</text>
<text text-anchor="start" x="2144.5019" y="-668.3" font-family="Times,serif" font-size="14.00" fill="#000000"> &#160;&#160;&#160;functionCallWithValue(target: address, data: bytes, value: uint256): bytes</text>
<text text-anchor="start" x="2144.5019" y="-651.5" font-family="Times,serif" font-size="14.00" fill="#000000"> &#160;&#160;&#160;functionCallWithValue(target: address, data: bytes, value: uint256, errorMessage: string): bytes</text>
<text text-anchor="start" x="2144.5019" y="-634.7" font-family="Times,serif" font-size="14.00" fill="#000000"> &#160;&#160;&#160;functionStaticCall(target: address, data: bytes): bytes</text>
<text text-anchor="start" x="2144.5019" y="-617.9" font-family="Times,serif" font-size="14.00" fill="#000000"> &#160;&#160;&#160;functionStaticCall(target: address, data: bytes, errorMessage: string): bytes</text>
<text text-anchor="start" x="2144.5019" y="-601.1" font-family="Times,serif" font-size="14.00" fill="#000000"> &#160;&#160;&#160;functionDelegateCall(target: address, data: bytes): bytes</text>
<text text-anchor="start" x="2144.5019" y="-584.3" font-family="Times,serif" font-size="14.00" fill="#000000"> &#160;&#160;&#160;functionDelegateCall(target: address, data: bytes, errorMessage: string): bytes</text>
</g>
<!-- 6 -->
<g id="node7" class="node">
<title>6</title>
<polygon fill="#f2f2f2" stroke="#000000" points="1364.1422,-1006.7 1364.1422,-1114.7 1640.9776,-1114.7 1640.9776,-1006.7 1364.1422,-1006.7"/>
<text text-anchor="middle" x="1502.5599" y="-1098.1" font-family="Times,serif" font-size="14.00" fill="#000000">&lt;&lt;Interface&gt;&gt;</text>
<text text-anchor="middle" x="1502.5599" y="-1081.3" font-family="Times,serif" font-size="14.00" fill="#000000">IERC165</text>
<polyline fill="none" stroke="#000000" points="1364.1422,-1073.1 1640.9776,-1073.1 "/>
<text text-anchor="middle" x="1502.5599" y="-1056.5" font-family="Times,serif" font-size="14.00" fill="#000000"> </text>
<polyline fill="none" stroke="#000000" points="1364.1422,-1048.3 1640.9776,-1048.3 "/>
<text text-anchor="start" x="1372.1422" y="-1031.7" font-family="Times,serif" font-size="14.00" fill="#000000">External:</text>
<text text-anchor="start" x="1372.1422" y="-1014.9" font-family="Times,serif" font-size="14.00" fill="#000000"> &#160;&#160;&#160;&#160;supportsInterface(interfaceId: bytes4): bool</text>
</g>
<!-- 7 -->
<g id="node8" class="node">
<title>7</title>
<polygon fill="#f2f2f2" stroke="#000000" points="2720.8922,-668.5 2720.8922,-776.5 2994.2276,-776.5 2994.2276,-668.5 2720.8922,-668.5"/>
<text text-anchor="middle" x="2857.5599" y="-759.9" font-family="Times,serif" font-size="14.00" fill="#000000">&lt;&lt;Abstract&gt;&gt;</text>
<text text-anchor="middle" x="2857.5599" y="-743.1" font-family="Times,serif" font-size="14.00" fill="#000000">ERC165</text>
<polyline fill="none" stroke="#000000" points="2720.8922,-734.9 2994.2276,-734.9 "/>
<text text-anchor="middle" x="2857.5599" y="-718.3" font-family="Times,serif" font-size="14.00" fill="#000000"> </text>
<polyline fill="none" stroke="#000000" points="2720.8922,-710.1 2994.2276,-710.1 "/>
<text text-anchor="start" x="2728.8922" y="-693.5" font-family="Times,serif" font-size="14.00" fill="#000000">Public:</text>
<text text-anchor="start" x="2728.8922" y="-676.7" font-family="Times,serif" font-size="14.00" fill="#000000"> &#160;&#160;&#160;supportsInterface(interfaceId: bytes4): bool</text>
</g>
<!-- 7&#45;&gt;6 -->
<g id="edge7" class="edge">
<title>7&#45;&gt;6</title>
<path fill="none" stroke="#000000" stroke-dasharray="5,2" d="M2839.5914,-776.5952C2818.3225,-831.2994 2777.2544,-913.3265 2711.5599,-953.4 2624.8384,-1006.3 1982.8139,-1040.3859 1671.2397,-1053.987"/>
<polygon fill="none" stroke="#000000" points="1670.7666,-1043.4976 1641.2457,-1055.2775 1671.6694,-1064.4782 1670.7666,-1043.4976"/>
</g>
<!-- 8 -->
<g id="node9" class="node">
<title>8</title>
<polygon fill="#f2f2f2" stroke="#000000" points="1088.9104,-626.5 1088.9104,-818.5 1642.2094,-818.5 1642.2094,-626.5 1088.9104,-626.5"/>
<text text-anchor="middle" x="1365.5599" y="-801.9" font-family="Times,serif" font-size="14.00" fill="#000000">&lt;&lt;Interface&gt;&gt;</text>
<text text-anchor="middle" x="1365.5599" y="-785.1" font-family="Times,serif" font-size="14.00" fill="#000000">IERC1363</text>
<polyline fill="none" stroke="#000000" points="1088.9104,-776.9 1642.2094,-776.9 "/>
<text text-anchor="middle" x="1365.5599" y="-760.3" font-family="Times,serif" font-size="14.00" fill="#000000"> </text>
<polyline fill="none" stroke="#000000" points="1088.9104,-752.1 1642.2094,-752.1 "/>
<text text-anchor="start" x="1096.9104" y="-735.5" font-family="Times,serif" font-size="14.00" fill="#000000">External:</text>
<text text-anchor="start" x="1096.9104" y="-718.7" font-family="Times,serif" font-size="14.00" fill="#000000"> &#160;&#160;&#160;&#160;transferAndCall(recipient: address, amount: uint256): bool</text>
<text text-anchor="start" x="1096.9104" y="-701.9" font-family="Times,serif" font-size="14.00" fill="#000000"> &#160;&#160;&#160;&#160;transferAndCall(recipient: address, amount: uint256, data: bytes): bool</text>
<text text-anchor="start" x="1096.9104" y="-685.1" font-family="Times,serif" font-size="14.00" fill="#000000"> &#160;&#160;&#160;&#160;transferFromAndCall(sender: address, recipient: address, amount: uint256): bool</text>
<text text-anchor="start" x="1096.9104" y="-668.3" font-family="Times,serif" font-size="14.00" fill="#000000"> &#160;&#160;&#160;&#160;transferFromAndCall(sender: address, recipient: address, amount: uint256, data: bytes): bool</text>
<text text-anchor="start" x="1096.9104" y="-651.5" font-family="Times,serif" font-size="14.00" fill="#000000"> &#160;&#160;&#160;&#160;approveAndCall(spender: address, amount: uint256): bool</text>
<text text-anchor="start" x="1096.9104" y="-634.7" font-family="Times,serif" font-size="14.00" fill="#000000"> &#160;&#160;&#160;&#160;approveAndCall(spender: address, amount: uint256, data: bytes): bool</text>
</g>
<!-- 8&#45;&gt;0 -->
<g id="edge8" class="edge">
<title>8&#45;&gt;0</title>
<path fill="none" stroke="#000000" stroke-dasharray="5,2" d="M1294.3127,-818.7177C1228.2984,-907.8684 1129.1731,-1041.7347 1053.4545,-1143.9909"/>
<polygon fill="none" stroke="#000000" points="1044.8936,-1137.9079 1035.4793,-1168.2661 1061.7705,-1150.4048 1044.8936,-1137.9079"/>
</g>
<!-- 8&#45;&gt;6 -->
<g id="edge9" class="edge">
<title>8&#45;&gt;6</title>
<path fill="none" stroke="#000000" stroke-dasharray="5,2" d="M1404.4522,-818.5099C1424.9399,-869.0861 1449.8032,-930.4639 1469.3734,-978.7753"/>
<polygon fill="none" stroke="#000000" points="1459.6481,-982.7337 1480.6435,-1006.5968 1479.1118,-974.8492 1459.6481,-982.7337"/>
</g>
<!-- 9 -->
<g id="node10" class="node">
<title>9</title>
<polygon fill="#f2f2f2" stroke="#000000" points="3011.761,-668.5 3011.761,-776.5 3567.3588,-776.5 3567.3588,-668.5 3011.761,-668.5"/>
<text text-anchor="middle" x="3289.5599" y="-759.9" font-family="Times,serif" font-size="14.00" fill="#000000">&lt;&lt;Interface&gt;&gt;</text>
<text text-anchor="middle" x="3289.5599" y="-743.1" font-family="Times,serif" font-size="14.00" fill="#000000">IERC1363Receiver</text>
<polyline fill="none" stroke="#000000" points="3011.761,-734.9 3567.3588,-734.9 "/>
<text text-anchor="middle" x="3289.5599" y="-718.3" font-family="Times,serif" font-size="14.00" fill="#000000"> </text>
<polyline fill="none" stroke="#000000" points="3011.761,-710.1 3567.3588,-710.1 "/>
<text text-anchor="start" x="3019.761" y="-693.5" font-family="Times,serif" font-size="14.00" fill="#000000">External:</text>
<text text-anchor="start" x="3019.761" y="-676.7" font-family="Times,serif" font-size="14.00" fill="#000000"> &#160;&#160;&#160;&#160;onTransferReceived(operator: address, sender: address, amount: uint256, data: bytes): bytes4</text>
</g>
<!-- 10 -->
<g id="node11" class="node">
<title>10</title>
<polygon fill="#f2f2f2" stroke="#000000" points="1660.5342,-668.5 1660.5342,-776.5 2118.5856,-776.5 2118.5856,-668.5 1660.5342,-668.5"/>
<text text-anchor="middle" x="1889.5599" y="-759.9" font-family="Times,serif" font-size="14.00" fill="#000000">&lt;&lt;Interface&gt;&gt;</text>
<text text-anchor="middle" x="1889.5599" y="-743.1" font-family="Times,serif" font-size="14.00" fill="#000000">IERC1363Spender</text>
<polyline fill="none" stroke="#000000" points="1660.5342,-734.9 2118.5856,-734.9 "/>
<text text-anchor="middle" x="1889.5599" y="-718.3" font-family="Times,serif" font-size="14.00" fill="#000000"> </text>
<polyline fill="none" stroke="#000000" points="1660.5342,-710.1 2118.5856,-710.1 "/>
<text text-anchor="start" x="1668.5342" y="-693.5" font-family="Times,serif" font-size="14.00" fill="#000000">External:</text>
<text text-anchor="start" x="1668.5342" y="-676.7" font-family="Times,serif" font-size="14.00" fill="#000000"> &#160;&#160;&#160;&#160;onApprovalReceived(sender: address, amount: uint256, data: bytes): bytes4</text>
</g>
<!-- 11 -->
<g id="node12" class="node">
<title>11</title>
<polygon fill="#f2f2f2" stroke="#000000" points="1243.6744,-195.9 1243.6744,-455.1 1807.4454,-455.1 1807.4454,-195.9 1243.6744,-195.9"/>
<text text-anchor="middle" x="1525.5599" y="-438.5" font-family="Times,serif" font-size="14.00" fill="#000000">&lt;&lt;Abstract&gt;&gt;</text>
<text text-anchor="middle" x="1525.5599" y="-421.7" font-family="Times,serif" font-size="14.00" fill="#000000">ERC1363</text>
<polyline fill="none" stroke="#000000" points="1243.6744,-413.5 1807.4454,-413.5 "/>
<text text-anchor="middle" x="1525.5599" y="-396.9" font-family="Times,serif" font-size="14.00" fill="#000000"> </text>
<polyline fill="none" stroke="#000000" points="1243.6744,-388.7 1807.4454,-388.7 "/>
<text text-anchor="start" x="1251.6744" y="-372.1" font-family="Times,serif" font-size="14.00" fill="#000000">Internal:</text>
<text text-anchor="start" x="1251.6744" y="-355.3" font-family="Times,serif" font-size="14.00" fill="#000000"> &#160;&#160;&#160;_checkAndCallTransfer(sender: address, recipient: address, amount: uint256, data: bytes): bool</text>
<text text-anchor="start" x="1251.6744" y="-338.5" font-family="Times,serif" font-size="14.00" fill="#000000"> &#160;&#160;&#160;_checkAndCallApprove(spender: address, amount: uint256, data: bytes): bool</text>
<text text-anchor="start" x="1251.6744" y="-321.7" font-family="Times,serif" font-size="14.00" fill="#000000">Public:</text>
<text text-anchor="start" x="1251.6744" y="-304.9" font-family="Times,serif" font-size="14.00" fill="#000000"> &#160;&#160;&#160;supportsInterface(interfaceId: bytes4): bool</text>
<text text-anchor="start" x="1251.6744" y="-288.1" font-family="Times,serif" font-size="14.00" fill="#000000"> &#160;&#160;&#160;transferAndCall(recipient: address, amount: uint256): bool</text>
<text text-anchor="start" x="1251.6744" y="-271.3" font-family="Times,serif" font-size="14.00" fill="#000000"> &#160;&#160;&#160;transferAndCall(recipient: address, amount: uint256, data: bytes): bool</text>
<text text-anchor="start" x="1251.6744" y="-254.5" font-family="Times,serif" font-size="14.00" fill="#000000"> &#160;&#160;&#160;transferFromAndCall(sender: address, recipient: address, amount: uint256): bool</text>
<text text-anchor="start" x="1251.6744" y="-237.7" font-family="Times,serif" font-size="14.00" fill="#000000"> &#160;&#160;&#160;transferFromAndCall(sender: address, recipient: address, amount: uint256, data: bytes): bool</text>
<text text-anchor="start" x="1251.6744" y="-220.9" font-family="Times,serif" font-size="14.00" fill="#000000"> &#160;&#160;&#160;approveAndCall(spender: address, amount: uint256): bool</text>
<text text-anchor="start" x="1251.6744" y="-204.1" font-family="Times,serif" font-size="14.00" fill="#000000"> &#160;&#160;&#160;approveAndCall(spender: address, amount: uint256, data: bytes): bool</text>
</g>
<!-- 11&#45;&gt;3 -->
<g id="edge10" class="edge">
<title>11&#45;&gt;3</title>
<path fill="none" stroke="#000000" d="M1243.4299,-452.9179C1240.799,-453.8266 1238.1752,-454.721 1235.5599,-455.6 1177.4655,-475.1265 1149.7475,-461.8856 1098.1593,-483.2046"/>
<polygon fill="none" stroke="#000000" points="1093.4555,-473.8167 1071.16,-496.4698 1102.7159,-492.6647 1093.4555,-473.8167"/>
</g>
<!-- 11&#45;&gt;5 -->
<g id="edge13" class="edge">
<title>11&#45;&gt;5</title>
<path fill="none" stroke="#000000" stroke-dasharray="5,2" d="M1807.7315,-453.1087C1810.6814,-453.9636 1813.6248,-454.7945 1816.5599,-455.6 1950.7442,-492.4236 1998.9779,-438.4207 2127.5599,-491.6 2173.6116,-510.6461 2218.4131,-539.1673 2258.5395,-569.7276"/>
<polygon fill="#000000" stroke="#000000" points="2256.4444,-572.5318 2266.5014,-575.8647 2260.7179,-566.9877 2256.4444,-572.5318"/>
</g>
<!-- 11&#45;&gt;7 -->
<g id="edge12" class="edge">
<title>11&#45;&gt;7</title>
<path fill="none" stroke="#000000" d="M1807.6506,-453.4266C1810.6263,-454.1802 1813.5966,-454.9052 1816.5599,-455.6 1913.4569,-478.3197 2625.368,-441.8392 2711.5599,-491.6 2767.833,-524.0879 2805.6899,-587.9332 2828.7254,-640.2686"/>
<polygon fill="none" stroke="#000000" points="2819.0998,-644.4712 2840.1663,-668.2714 2838.5399,-636.5286 2819.0998,-644.4712"/>
</g>
<!-- 11&#45;&gt;8 -->
<g id="edge11" class="edge">
<title>11&#45;&gt;8</title>
<path fill="none" stroke="#000000" stroke-dasharray="5,2" d="M1473.2807,-455.2179C1454.7146,-501.285 1433.8755,-552.9919 1415.509,-598.5638"/>
<polygon fill="none" stroke="#000000" points="1405.764,-594.6543 1404.2886,-626.4045 1425.2417,-602.5043 1405.764,-594.6543"/>
</g>
<!-- 11&#45;&gt;9 -->
<g id="edge14" class="edge">
<title>11&#45;&gt;9</title>
<path fill="none" stroke="#000000" stroke-dasharray="5,2" d="M1807.6409,-453.4687C1810.6196,-454.2088 1813.5932,-454.9198 1816.5599,-455.6 1945.1726,-485.0865 2879.827,-445.7652 3003.5599,-491.6 3097.3394,-526.339 3183.479,-605.0745 3236.1891,-660.9222"/>
<polygon fill="#000000" stroke="#000000" points="3233.6991,-663.3839 3243.0843,-668.3001 3238.8133,-658.6042 3233.6991,-663.3839"/>
</g>
<!-- 11&#45;&gt;10 -->
<g id="edge15" class="edge">
<title>11&#45;&gt;10</title>
<path fill="none" stroke="#000000" stroke-dasharray="5,2" d="M1644.4953,-455.2179C1707.8827,-524.352 1782.9162,-606.188 1833.106,-660.928"/>
<polygon fill="#000000" stroke="#000000" points="1830.6814,-663.4626 1840.0193,-668.468 1835.841,-658.7319 1830.6814,-663.4626"/>
</g>
<!-- 12 -->
<g id="node13" class="node">
<title>12</title>
<polygon fill="#f2f2f2" stroke="#000000" points="82.1229,-618.1 82.1229,-826.9 566.9969,-826.9 566.9969,-618.1 82.1229,-618.1"/>
<text text-anchor="middle" x="324.5599" y="-810.3" font-family="Times,serif" font-size="14.00" fill="#000000">&lt;&lt;Abstract&gt;&gt;</text>
<text text-anchor="middle" x="324.5599" y="-793.5" font-family="Times,serif" font-size="14.00" fill="#000000">Ownable</text>
<polyline fill="none" stroke="#000000" points="82.1229,-785.3 566.9969,-785.3 "/>
<text text-anchor="start" x="90.1229" y="-768.7" font-family="Times,serif" font-size="14.00" fill="#000000">Private:</text>
<text text-anchor="start" x="90.1229" y="-751.9" font-family="Times,serif" font-size="14.00" fill="#000000"> &#160;&#160;_owner: address</text>
<polyline fill="none" stroke="#000000" points="82.1229,-743.7 566.9969,-743.7 "/>
<text text-anchor="start" x="90.1229" y="-727.1" font-family="Times,serif" font-size="14.00" fill="#000000">Public:</text>
<text text-anchor="start" x="90.1229" y="-710.3" font-family="Times,serif" font-size="14.00" fill="#000000"> &#160;&#160;&#160;&lt;&lt;event&gt;&gt; OwnershipTransferred(previousOwner: address, newOwner: address)</text>
<text text-anchor="start" x="90.1229" y="-693.5" font-family="Times,serif" font-size="14.00" fill="#000000"> &#160;&#160;&#160;&lt;&lt;modifier&gt;&gt; onlyOwner()</text>
<text text-anchor="start" x="90.1229" y="-676.7" font-family="Times,serif" font-size="14.00" fill="#000000"> &#160;&#160;&#160;constructor()</text>
<text text-anchor="start" x="90.1229" y="-659.9" font-family="Times,serif" font-size="14.00" fill="#000000"> &#160;&#160;&#160;owner(): address</text>
<text text-anchor="start" x="90.1229" y="-643.1" font-family="Times,serif" font-size="14.00" fill="#000000"> &#160;&#160;&#160;renounceOwnership()</text>
<text text-anchor="start" x="90.1229" y="-626.3" font-family="Times,serif" font-size="14.00" fill="#000000"> &#160;&#160;&#160;transferOwnership(newOwner: address)</text>
</g>
<!-- 12&#45;&gt;2 -->
<g id="edge16" class="edge">
<title>12&#45;&gt;2</title>
<path fill="none" stroke="#000000" d="M408.1406,-827.1925C445.7753,-874.3335 489.6782,-929.3259 525.4219,-974.0983"/>
<polygon fill="none" stroke="#000000" points="517.4256,-980.9116 544.3486,-997.8056 533.8371,-967.8096 517.4256,-980.9116"/>
</g>
<!-- 13 -->
<g id="node14" class="node">
<title>13</title>
<polygon fill="#f2f2f2" stroke="#000000" points="50.0486,-279.9 50.0486,-371.1 433.0712,-371.1 433.0712,-279.9 50.0486,-279.9"/>
<text text-anchor="middle" x="241.5599" y="-354.5" font-family="Times,serif" font-size="14.00" fill="#000000">TokenRecover</text>
<polyline fill="none" stroke="#000000" points="50.0486,-346.3 433.0712,-346.3 "/>
<text text-anchor="middle" x="241.5599" y="-329.7" font-family="Times,serif" font-size="14.00" fill="#000000"> </text>
<polyline fill="none" stroke="#000000" points="50.0486,-321.5 433.0712,-321.5 "/>
<text text-anchor="start" x="58.0486" y="-304.9" font-family="Times,serif" font-size="14.00" fill="#000000">Public:</text>
<text text-anchor="start" x="58.0486" y="-288.1" font-family="Times,serif" font-size="14.00" fill="#000000"> &#160;&#160;&#160;recoverERC20(tokenAddress: address, tokenAmount: uint256)</text>
</g>
<!-- 13&#45;&gt;0 -->
<g id="edge18" class="edge">
<title>13&#45;&gt;0</title>
<path fill="none" stroke="#000000" stroke-dasharray="5,2" d="M174.028,-371.1864C136.7759,-400.6567 94.0256,-442.5863 73.5599,-491.6 -5.5226,-680.997 -40.5947,-782.8304 73.5599,-953.4 147.431,-1063.778 483.4307,-1170.5151 716.0884,-1233.1283"/>
<polygon fill="#000000" stroke="#000000" points="715.4835,-1236.5896 726.0488,-1235.7989 717.2964,-1229.8284 715.4835,-1236.5896"/>
</g>
<!-- 13&#45;&gt;12 -->
<g id="edge17" class="edge">
<title>13&#45;&gt;12</title>
<path fill="none" stroke="#000000" d="M251.1622,-371.4288C262.2065,-424.2555 280.8407,-513.3851 296.569,-588.6158"/>
<polygon fill="none" stroke="#000000" points="286.2928,-590.7723 302.71,-617.9886 306.8484,-586.4748 286.2928,-590.7723"/>
</g>
<!-- 14 -->
<g id="node15" class="node">
<title>14</title>
<polygon fill="#f2f2f2" stroke="#000000" points="755.9452,-254.7 755.9452,-396.3 951.1746,-396.3 951.1746,-254.7 755.9452,-254.7"/>
<text text-anchor="middle" x="853.5599" y="-379.7" font-family="Times,serif" font-size="14.00" fill="#000000">&lt;&lt;Abstract&gt;&gt;</text>
<text text-anchor="middle" x="853.5599" y="-362.9" font-family="Times,serif" font-size="14.00" fill="#000000">ERC20Decimals</text>
<polyline fill="none" stroke="#000000" points="755.9452,-354.7 951.1746,-354.7 "/>
<text text-anchor="start" x="763.9452" y="-338.1" font-family="Times,serif" font-size="14.00" fill="#000000">Private:</text>
<text text-anchor="start" x="763.9452" y="-321.3" font-family="Times,serif" font-size="14.00" fill="#000000"> &#160;&#160;_decimals: uint8</text>
<polyline fill="none" stroke="#000000" points="755.9452,-313.1 951.1746,-313.1 "/>
<text text-anchor="start" x="763.9452" y="-296.5" font-family="Times,serif" font-size="14.00" fill="#000000">Public:</text>
<text text-anchor="start" x="763.9452" y="-279.7" font-family="Times,serif" font-size="14.00" fill="#000000"> &#160;&#160;&#160;constructor(decimals_: uint8)</text>
<text text-anchor="start" x="763.9452" y="-262.9" font-family="Times,serif" font-size="14.00" fill="#000000"> &#160;&#160;&#160;decimals(): uint8</text>
</g>
<!-- 14&#45;&gt;3 -->
<g id="edge19" class="edge">
<title>14&#45;&gt;3</title>
<path fill="none" stroke="#000000" d="M853.5599,-396.4756C853.5599,-415.8426 853.5599,-438.0183 853.5599,-461.4928"/>
<polygon fill="none" stroke="#000000" points="843.06,-461.8081 853.5599,-491.8081 864.06,-461.8082 843.06,-461.8081"/>
</g>
<!-- 15 -->
<g id="node16" class="node">
<title>15</title>
<polygon fill="#f2f2f2" stroke="#000000" points="969.0276,-204.3 969.0276,-446.7 1226.0922,-446.7 1226.0922,-204.3 969.0276,-204.3"/>
<text text-anchor="middle" x="1097.5599" y="-430.1" font-family="Times,serif" font-size="14.00" fill="#000000">&lt;&lt;Abstract&gt;&gt;</text>
<text text-anchor="middle" x="1097.5599" y="-413.3" font-family="Times,serif" font-size="14.00" fill="#000000">ERC20Mintable</text>
<polyline fill="none" stroke="#000000" points="969.0276,-405.1 1226.0922,-405.1 "/>
<text text-anchor="start" x="977.0276" y="-388.5" font-family="Times,serif" font-size="14.00" fill="#000000">Private:</text>
<text text-anchor="start" x="977.0276" y="-371.7" font-family="Times,serif" font-size="14.00" fill="#000000"> &#160;&#160;_mintingFinished: bool</text>
<polyline fill="none" stroke="#000000" points="969.0276,-363.5 1226.0922,-363.5 "/>
<text text-anchor="start" x="977.0276" y="-346.9" font-family="Times,serif" font-size="14.00" fill="#000000">Internal:</text>
<text text-anchor="start" x="977.0276" y="-330.1" font-family="Times,serif" font-size="14.00" fill="#000000"> &#160;&#160;&#160;_finishMinting()</text>
<text text-anchor="start" x="977.0276" y="-313.3" font-family="Times,serif" font-size="14.00" fill="#000000">External:</text>
<text text-anchor="start" x="977.0276" y="-296.5" font-family="Times,serif" font-size="14.00" fill="#000000"> &#160;&#160;&#160;mintingFinished(): bool</text>
<text text-anchor="start" x="977.0276" y="-279.7" font-family="Times,serif" font-size="14.00" fill="#000000"> &#160;&#160;&#160;mint(account: address, amount: uint256)</text>
<text text-anchor="start" x="977.0276" y="-262.9" font-family="Times,serif" font-size="14.00" fill="#000000"> &#160;&#160;&#160;finishMinting()</text>
<text text-anchor="start" x="977.0276" y="-246.1" font-family="Times,serif" font-size="14.00" fill="#000000">Public:</text>
<text text-anchor="start" x="977.0276" y="-229.3" font-family="Times,serif" font-size="14.00" fill="#000000"> &#160;&#160;&#160;&lt;&lt;event&gt;&gt; MintFinished()</text>
<text text-anchor="start" x="977.0276" y="-212.5" font-family="Times,serif" font-size="14.00" fill="#000000"> &#160;&#160;&#160;&lt;&lt;modifier&gt;&gt; canMint()</text>
</g>
<!-- 15&#45;&gt;3 -->
<g id="edge20" class="edge">
<title>15&#45;&gt;3</title>
<path fill="none" stroke="#000000" d="M1023.0261,-446.7703C1019.1326,-453.1052 1015.1627,-459.5644 1011.1361,-466.1158"/>
<polygon fill="none" stroke="#000000" points="1002.1292,-460.7178 995.3661,-491.7745 1020.0202,-471.7139 1002.1292,-460.7178"/>
</g>
<!-- 16 -->
<g id="node17" class="node">
<title>16</title>
<polygon fill="#f2f2f2" stroke="#000000" points="1193.8705,-25.7 1193.8705,-133.7 1369.2493,-133.7 1369.2493,-25.7 1193.8705,-25.7"/>
<text text-anchor="middle" x="1281.5599" y="-117.1" font-family="Times,serif" font-size="14.00" fill="#000000">&lt;&lt;Interface&gt;&gt;</text>
<text text-anchor="middle" x="1281.5599" y="-100.3" font-family="Times,serif" font-size="14.00" fill="#000000">IPayable</text>
<polyline fill="none" stroke="#000000" points="1193.8705,-92.1 1369.2493,-92.1 "/>
<text text-anchor="middle" x="1281.5599" y="-75.5" font-family="Times,serif" font-size="14.00" fill="#000000"> </text>
<polyline fill="none" stroke="#000000" points="1193.8705,-67.3 1369.2493,-67.3 "/>
<text text-anchor="start" x="1201.8705" y="-50.7" font-family="Times,serif" font-size="14.00" fill="#000000">External:</text>
<text text-anchor="start" x="1201.8705" y="-33.9" font-family="Times,serif" font-size="14.00" fill="#000000"> &#160;&#160;&#160;&#160;pay(serviceName: string)</text>
</g>
<!-- 17 -->
<g id="node18" class="node">
<title>17</title>
<polygon fill="#f2f2f2" stroke="#000000" points="1825.5198,-271.5 1825.5198,-379.5 2141.6,-379.5 2141.6,-271.5 1825.5198,-271.5"/>
<text text-anchor="middle" x="1983.5599" y="-362.9" font-family="Times,serif" font-size="14.00" fill="#000000">&lt;&lt;Abstract&gt;&gt;</text>
<text text-anchor="middle" x="1983.5599" y="-346.1" font-family="Times,serif" font-size="14.00" fill="#000000">ServicePayer</text>
<polyline fill="none" stroke="#000000" points="1825.5198,-337.9 2141.6,-337.9 "/>
<text text-anchor="middle" x="1983.5599" y="-321.3" font-family="Times,serif" font-size="14.00" fill="#000000"> </text>
<polyline fill="none" stroke="#000000" points="1825.5198,-313.1 2141.6,-313.1 "/>
<text text-anchor="start" x="1833.5198" y="-296.5" font-family="Times,serif" font-size="14.00" fill="#000000">Public:</text>
<text text-anchor="start" x="1833.5198" y="-279.7" font-family="Times,serif" font-size="14.00" fill="#000000"> &#160;&#160;&#160;constructor(receiver: address, serviceName: string)</text>
</g>
<!-- 18 -->
<g id="node19" class="node">
<title>18</title>
<polygon fill="#f2f2f2" stroke="#000000" points="530.8301,-.5 530.8301,-158.9 1176.2897,-158.9 1176.2897,-.5 530.8301,-.5"/>
<text text-anchor="middle" x="853.5599" y="-142.3" font-family="Times,serif" font-size="14.00" fill="#000000">AmazingERC20</text>
<polyline fill="none" stroke="#000000" points="530.8301,-134.1 1176.2897,-134.1 "/>
<text text-anchor="middle" x="853.5599" y="-117.5" font-family="Times,serif" font-size="14.00" fill="#000000"> </text>
<polyline fill="none" stroke="#000000" points="530.8301,-109.3 1176.2897,-109.3 "/>
<text text-anchor="start" x="538.8301" y="-92.7" font-family="Times,serif" font-size="14.00" fill="#000000">Internal:</text>
<text text-anchor="start" x="538.8301" y="-75.9" font-family="Times,serif" font-size="14.00" fill="#000000"> &#160;&#160;&#160;_mint(account: address, amount: uint256)</text>
<text text-anchor="start" x="538.8301" y="-59.1" font-family="Times,serif" font-size="14.00" fill="#000000"> &#160;&#160;&#160;_finishMinting()</text>
<text text-anchor="start" x="538.8301" y="-42.3" font-family="Times,serif" font-size="14.00" fill="#000000">Public:</text>
<text text-anchor="start" x="538.8301" y="-25.5" font-family="Times,serif" font-size="14.00" fill="#000000"> &#160;&#160;&#160;constructor(name_: string, symbol_: string, decimals_: uint8, initialBalance_: uint256, feeReceiver_: address)</text>
<text text-anchor="start" x="538.8301" y="-8.7" font-family="Times,serif" font-size="14.00" fill="#000000"> &#160;&#160;&#160;decimals(): uint8</text>
</g>
<!-- 18&#45;&gt;4 -->
<g id="edge23" class="edge">
<title>18&#45;&gt;4</title>
<path fill="none" stroke="#000000" d="M769.8277,-159.1648C741.8392,-185.7268 710.5774,-215.3954 682.2927,-242.2386"/>
<polygon fill="none" stroke="#000000" points="674.8991,-234.7795 660.3666,-263.0472 689.3551,-250.0119 674.8991,-234.7795"/>
</g>
<!-- 18&#45;&gt;11 -->
<g id="edge24" class="edge">
<title>18&#45;&gt;11</title>
<path fill="none" stroke="#000000" d="M1130.3846,-158.9713C1157.6601,-167.8046 1185.0383,-177.0665 1215.0121,-187.9048"/>
<polygon fill="none" stroke="#000000" points="1211.56,-197.8228 1243.3404,-198.3344 1218.8155,-178.116 1211.56,-197.8228"/>
</g>
<!-- 18&#45;&gt;13 -->
<g id="edge25" class="edge">
<title>18&#45;&gt;13</title>
<path fill="none" stroke="#000000" d="M534.0595,-158.9532C502.3305,-169.9248 470.9997,-182.0672 441.5599,-195.4 401.6216,-213.4875 360.5196,-238.8582 326.0435,-262.3977"/>
<polygon fill="none" stroke="#000000" points="319.9185,-253.8684 301.3817,-279.6878 331.9738,-271.0634 319.9185,-253.8684"/>
</g>
<!-- 18&#45;&gt;14 -->
<g id="edge21" class="edge">
<title>18&#45;&gt;14</title>
<path fill="none" stroke="#000000" d="M853.5599,-159.1648C853.5599,-179.923 853.5599,-202.5784 853.5599,-224.2999"/>
<polygon fill="none" stroke="#000000" points="843.06,-224.6061 853.5599,-254.6061 864.06,-224.6061 843.06,-224.6061"/>
</g>
<!-- 18&#45;&gt;15 -->
<g id="edge22" class="edge">
<title>18&#45;&gt;15</title>
<path fill="none" stroke="#000000" d="M932.4428,-159.1648C939.8766,-166.6534 947.5555,-174.389 955.3476,-182.2386"/>
<polygon fill="none" stroke="#000000" points="948.2253,-189.9678 976.8123,-203.8616 963.129,-175.1732 948.2253,-189.9678"/>
</g>
<!-- 18&#45;&gt;17 -->
<g id="edge26" class="edge">
<title>18&#45;&gt;17</title>
<path fill="none" stroke="#000000" d="M1176.6378,-158.202C1179.2875,-158.612 1181.9286,-159.0115 1184.5599,-159.4 1323.7232,-179.9479 1684.8739,-145.9284 1816.5599,-195.4 1849.7869,-207.8827 1881.7112,-229.4627 1908.5869,-251.4997"/>
<polygon fill="none" stroke="#000000" points="1901.7356,-259.4565 1931.275,-271.1902 1915.5002,-243.5966 1901.7356,-259.4565"/>
</g>
</g>
</svg>
