<?xml version="1.0" encoding="UTF-8" standalone="no"?>
<!DOCTYPE svg PUBLIC "-//W3C//DTD SVG 1.1//EN"
 "http://www.w3.org/Graphics/SVG/1.1/DTD/svg11.dtd">
<!-- Generated by graphviz version 2.40.1 (20161225.0304)
 -->
<!-- Title: UmlClassDiagram Pages: 1 -->
<svg width="926pt" height="1251pt"
 viewBox="0.00 0.00 926.38 1251.40" xmlns="http://www.w3.org/2000/svg" xmlns:xlink="http://www.w3.org/1999/xlink">
<g id="graph0" class="graph" transform="scale(1 1) rotate(0) translate(4 1247.4)">
<title>UmlClassDiagram</title>
<polygon fill="#ffffff" stroke="transparent" points="-4,4 -4,-1247.4 922.383,-1247.4 922.383,4 -4,4"/>
<!-- 0 -->
<g id="node1" class="node">
<title>0</title>
<polygon fill="#f2f2f2" stroke="#000000" points="170.3937,-1000.5 170.3937,-1242.9 608.9935,-1242.9 608.9935,-1000.5 170.3937,-1000.5"/>
<text text-anchor="middle" x="389.6936" y="-1226.3" font-family="Times,serif" font-size="14.00" fill="#000000">&lt;&lt;Interface&gt;&gt;</text>
<text text-anchor="middle" x="389.6936" y="-1209.5" font-family="Times,serif" font-size="14.00" fill="#000000">IERC20</text>
<polyline fill="none" stroke="#000000" points="170.3937,-1201.3 608.9935,-1201.3 "/>
<text text-anchor="middle" x="389.6936" y="-1184.7" font-family="Times,serif" font-size="14.00" fill="#000000"> </text>
<polyline fill="none" stroke="#000000" points="170.3937,-1176.5 608.9935,-1176.5 "/>
<text text-anchor="start" x="178.3937" y="-1159.9" font-family="Times,serif" font-size="14.00" fill="#000000">External:</text>
<text text-anchor="start" x="178.3937" y="-1143.1" font-family="Times,serif" font-size="14.00" fill="#000000"> &#160;&#160;&#160;&#160;totalSupply(): uint256</text>
<text text-anchor="start" x="178.3937" y="-1126.3" font-family="Times,serif" font-size="14.00" fill="#000000"> &#160;&#160;&#160;&#160;balanceOf(account: address): uint256</text>
<text text-anchor="start" x="178.3937" y="-1109.5" font-family="Times,serif" font-size="14.00" fill="#000000"> &#160;&#160;&#160;&#160;transfer(recipient: address, amount: uint256): bool</text>
<text text-anchor="start" x="178.3937" y="-1092.7" font-family="Times,serif" font-size="14.00" fill="#000000"> &#160;&#160;&#160;&#160;allowance(owner: address, spender: address): uint256</text>
<text text-anchor="start" x="178.3937" y="-1075.9" font-family="Times,serif" font-size="14.00" fill="#000000"> &#160;&#160;&#160;&#160;approve(spender: address, amount: uint256): bool</text>
<text text-anchor="start" x="178.3937" y="-1059.1" font-family="Times,serif" font-size="14.00" fill="#000000"> &#160;&#160;&#160;&#160;transferFrom(sender: address, recipient: address, amount: uint256): bool</text>
<text text-anchor="start" x="178.3937" y="-1042.3" font-family="Times,serif" font-size="14.00" fill="#000000">Public:</text>
<text text-anchor="start" x="178.3937" y="-1025.5" font-family="Times,serif" font-size="14.00" fill="#000000"> &#160;&#160;&#160;&lt;&lt;event&gt;&gt; Transfer(from: address, to: address, value: uint256)</text>
<text text-anchor="start" x="178.3937" y="-1008.7" font-family="Times,serif" font-size="14.00" fill="#000000"> &#160;&#160;&#160;&lt;&lt;event&gt;&gt; Approval(owner: address, spender: address, value: uint256)</text>
</g>
<!-- 1 -->
<g id="node2" class="node">
<title>1</title>
<polygon fill="#f2f2f2" stroke="#000000" points="371.317,-821.9 371.317,-963.5 500.0702,-963.5 500.0702,-821.9 371.317,-821.9"/>
<text text-anchor="middle" x="435.6936" y="-946.9" font-family="Times,serif" font-size="14.00" fill="#000000">&lt;&lt;Interface&gt;&gt;</text>
<text text-anchor="middle" x="435.6936" y="-930.1" font-family="Times,serif" font-size="14.00" fill="#000000">IERC20Metadata</text>
<polyline fill="none" stroke="#000000" points="371.317,-921.9 500.0702,-921.9 "/>
<text text-anchor="middle" x="435.6936" y="-905.3" font-family="Times,serif" font-size="14.00" fill="#000000"> </text>
<polyline fill="none" stroke="#000000" points="371.317,-897.1 500.0702,-897.1 "/>
<text text-anchor="start" x="379.317" y="-880.5" font-family="Times,serif" font-size="14.00" fill="#000000">External:</text>
<text text-anchor="start" x="379.317" y="-863.7" font-family="Times,serif" font-size="14.00" fill="#000000"> &#160;&#160;&#160;&#160;name(): string</text>
<text text-anchor="start" x="379.317" y="-846.9" font-family="Times,serif" font-size="14.00" fill="#000000"> &#160;&#160;&#160;&#160;symbol(): string</text>
<text text-anchor="start" x="379.317" y="-830.1" font-family="Times,serif" font-size="14.00" fill="#000000"> &#160;&#160;&#160;&#160;decimals(): uint8</text>
</g>
<!-- 1&#45;&gt;0 -->
<g id="edge1" class="edge">
<title>1&#45;&gt;0</title>
<path fill="none" stroke="#000000" stroke-dasharray="5,2" d="M421.4539,-963.5888C420.9953,-965.8721 420.5311,-968.1827 420.0624,-970.516"/>
<polygon fill="none" stroke="#000000" points="409.7137,-968.7191 414.0998,-1000.1994 430.3025,-972.8548 409.7137,-968.7191"/>
</g>
<!-- 2 -->
<g id="node3" class="node">
<title>2</title>
<polygon fill="#f2f2f2" stroke="#000000" points="134.7444,-830.3 134.7444,-955.1 292.6428,-955.1 292.6428,-830.3 134.7444,-830.3"/>
<text text-anchor="middle" x="213.6936" y="-938.5" font-family="Times,serif" font-size="14.00" fill="#000000">&lt;&lt;Abstract&gt;&gt;</text>
<text text-anchor="middle" x="213.6936" y="-921.7" font-family="Times,serif" font-size="14.00" fill="#000000">Context</text>
<polyline fill="none" stroke="#000000" points="134.7444,-913.5 292.6428,-913.5 "/>
<text text-anchor="middle" x="213.6936" y="-896.9" font-family="Times,serif" font-size="14.00" fill="#000000"> </text>
<polyline fill="none" stroke="#000000" points="134.7444,-888.7 292.6428,-888.7 "/>
<text text-anchor="start" x="142.7444" y="-872.1" font-family="Times,serif" font-size="14.00" fill="#000000">Internal:</text>
<text text-anchor="start" x="142.7444" y="-855.3" font-family="Times,serif" font-size="14.00" fill="#000000"> &#160;&#160;&#160;_msgSender(): address</text>
<text text-anchor="start" x="142.7444" y="-838.5" font-family="Times,serif" font-size="14.00" fill="#000000"> &#160;&#160;&#160;_msgData(): bytes</text>
</g>
<!-- 3 -->
<g id="node4" class="node">
<title>3</title>
<polygon fill="#f2f2f2" stroke="#000000" points="172.1437,-324.1 172.1437,-784.9 607.2435,-784.9 607.2435,-324.1 172.1437,-324.1"/>
<text text-anchor="middle" x="389.6936" y="-768.3" font-family="Times,serif" font-size="14.00" fill="#000000">ERC20</text>
<polyline fill="none" stroke="#000000" points="172.1437,-760.1 607.2435,-760.1 "/>
<text text-anchor="start" x="180.1437" y="-743.5" font-family="Times,serif" font-size="14.00" fill="#000000">Private:</text>
<text text-anchor="start" x="180.1437" y="-726.7" font-family="Times,serif" font-size="14.00" fill="#000000"> &#160;&#160;_balances: mapping(address=&gt;uint256)</text>
<text text-anchor="start" x="180.1437" y="-709.9" font-family="Times,serif" font-size="14.00" fill="#000000"> &#160;&#160;_allowances: mapping(address=&gt;mapping(address=&gt;uint256))</text>
<text text-anchor="start" x="180.1437" y="-693.1" font-family="Times,serif" font-size="14.00" fill="#000000"> &#160;&#160;_totalSupply: uint256</text>
<text text-anchor="start" x="180.1437" y="-676.3" font-family="Times,serif" font-size="14.00" fill="#000000"> &#160;&#160;_name: string</text>
<text text-anchor="start" x="180.1437" y="-659.5" font-family="Times,serif" font-size="14.00" fill="#000000"> &#160;&#160;_symbol: string</text>
<polyline fill="none" stroke="#000000" points="172.1437,-651.3 607.2435,-651.3 "/>
<text text-anchor="start" x="180.1437" y="-634.7" font-family="Times,serif" font-size="14.00" fill="#000000">Internal:</text>
<text text-anchor="start" x="180.1437" y="-617.9" font-family="Times,serif" font-size="14.00" fill="#000000"> &#160;&#160;&#160;_transfer(sender: address, recipient: address, amount: uint256)</text>
<text text-anchor="start" x="180.1437" y="-601.1" font-family="Times,serif" font-size="14.00" fill="#000000"> &#160;&#160;&#160;_mint(account: address, amount: uint256)</text>
<text text-anchor="start" x="180.1437" y="-584.3" font-family="Times,serif" font-size="14.00" fill="#000000"> &#160;&#160;&#160;_burn(account: address, amount: uint256)</text>
<text text-anchor="start" x="180.1437" y="-567.5" font-family="Times,serif" font-size="14.00" fill="#000000"> &#160;&#160;&#160;_approve(owner: address, spender: address, amount: uint256)</text>
<text text-anchor="start" x="180.1437" y="-550.7" font-family="Times,serif" font-size="14.00" fill="#000000"> &#160;&#160;&#160;_beforeTokenTransfer(from: address, to: address, amount: uint256)</text>
<text text-anchor="start" x="180.1437" y="-533.9" font-family="Times,serif" font-size="14.00" fill="#000000">Public:</text>
<text text-anchor="start" x="180.1437" y="-517.1" font-family="Times,serif" font-size="14.00" fill="#000000"> &#160;&#160;&#160;constructor(name_: string, symbol_: string)</text>
<text text-anchor="start" x="180.1437" y="-500.3" font-family="Times,serif" font-size="14.00" fill="#000000"> &#160;&#160;&#160;name(): string</text>
<text text-anchor="start" x="180.1437" y="-483.5" font-family="Times,serif" font-size="14.00" fill="#000000"> &#160;&#160;&#160;symbol(): string</text>
<text text-anchor="start" x="180.1437" y="-466.7" font-family="Times,serif" font-size="14.00" fill="#000000"> &#160;&#160;&#160;decimals(): uint8</text>
<text text-anchor="start" x="180.1437" y="-449.9" font-family="Times,serif" font-size="14.00" fill="#000000"> &#160;&#160;&#160;totalSupply(): uint256</text>
<text text-anchor="start" x="180.1437" y="-433.1" font-family="Times,serif" font-size="14.00" fill="#000000"> &#160;&#160;&#160;balanceOf(account: address): uint256</text>
<text text-anchor="start" x="180.1437" y="-416.3" font-family="Times,serif" font-size="14.00" fill="#000000"> &#160;&#160;&#160;transfer(recipient: address, amount: uint256): bool</text>
<text text-anchor="start" x="180.1437" y="-399.5" font-family="Times,serif" font-size="14.00" fill="#000000"> &#160;&#160;&#160;allowance(owner: address, spender: address): uint256</text>
<text text-anchor="start" x="180.1437" y="-382.7" font-family="Times,serif" font-size="14.00" fill="#000000"> &#160;&#160;&#160;approve(spender: address, amount: uint256): bool</text>
<text text-anchor="start" x="180.1437" y="-365.9" font-family="Times,serif" font-size="14.00" fill="#000000"> &#160;&#160;&#160;transferFrom(sender: address, recipient: address, amount: uint256): bool</text>
<text text-anchor="start" x="180.1437" y="-349.1" font-family="Times,serif" font-size="14.00" fill="#000000"> &#160;&#160;&#160;increaseAllowance(spender: address, addedValue: uint256): bool</text>
<text text-anchor="start" x="180.1437" y="-332.3" font-family="Times,serif" font-size="14.00" fill="#000000"> &#160;&#160;&#160;decreaseAllowance(spender: address, subtractedValue: uint256): bool</text>
</g>
<!-- 3&#45;&gt;0 -->
<g id="edge3" class="edge">
<title>3&#45;&gt;0</title>
<path fill="none" stroke="#000000" stroke-dasharray="5,2" d="M362.3231,-784.9968C358.7295,-843.4267 357.7688,-906.0526 362.6936,-964 362.8654,-966.0217 363.0494,-968.0565 363.2448,-970.1018"/>
<polygon fill="none" stroke="#000000" points="352.8444,-971.5662 366.7649,-1000.1401 373.7017,-969.1219 352.8444,-971.5662"/>
</g>
<!-- 3&#45;&gt;1 -->
<g id="edge4" class="edge">
<title>3&#45;&gt;1</title>
<path fill="none" stroke="#000000" stroke-dasharray="5,2" d="M421.0757,-785.2267C421.3754,-787.43 421.6729,-789.617 421.9679,-791.7861"/>
<polygon fill="none" stroke="#000000" points="411.587,-793.3735 426.0345,-821.6847 432.3954,-790.5432 411.587,-793.3735"/>
</g>
<!-- 3&#45;&gt;2 -->
<g id="edge2" class="edge">
<title>3&#45;&gt;2</title>
<path fill="none" stroke="#000000" d="M269.6229,-785.2267C266.4192,-791.383 263.2811,-797.4131 260.2293,-803.2775"/>
<polygon fill="none" stroke="#000000" points="250.762,-798.7245 246.2272,-830.1838 269.3905,-808.4189 250.762,-798.7245"/>
</g>
<!-- 4 -->
<g id="node5" class="node">
<title>4</title>
<polygon fill="#f2f2f2" stroke="#000000" points="0,-153.9 0,-278.7 287.3872,-278.7 287.3872,-153.9 0,-153.9"/>
<text text-anchor="middle" x="143.6936" y="-262.1" font-family="Times,serif" font-size="14.00" fill="#000000">&lt;&lt;Abstract&gt;&gt;</text>
<text text-anchor="middle" x="143.6936" y="-245.3" font-family="Times,serif" font-size="14.00" fill="#000000">ERC20Burnable</text>
<polyline fill="none" stroke="#000000" points="0,-237.1 287.3872,-237.1 "/>
<text text-anchor="middle" x="143.6936" y="-220.5" font-family="Times,serif" font-size="14.00" fill="#000000"> </text>
<polyline fill="none" stroke="#000000" points="0,-212.3 287.3872,-212.3 "/>
<text text-anchor="start" x="8" y="-195.7" font-family="Times,serif" font-size="14.00" fill="#000000">Public:</text>
<text text-anchor="start" x="8" y="-178.9" font-family="Times,serif" font-size="14.00" fill="#000000"> &#160;&#160;&#160;burn(amount: uint256)</text>
<text text-anchor="start" x="8" y="-162.1" font-family="Times,serif" font-size="14.00" fill="#000000"> &#160;&#160;&#160;burnFrom(account: address, amount: uint256)</text>
</g>
<!-- 4&#45;&gt;2 -->
<g id="edge5" class="edge">
<title>4&#45;&gt;2</title>
<path fill="none" stroke="#000000" d="M137.5709,-278.8952C129.0097,-384.906 119.0144,-605.7715 162.6936,-785.4 164.0357,-790.9193 165.6792,-796.4928 167.5438,-802.045"/>
<polygon fill="none" stroke="#000000" points="157.8907,-806.1858 178.7422,-830.1746 177.4015,-798.4185 157.8907,-806.1858"/>
</g>
<!-- 4&#45;&gt;3 -->
<g id="edge6" class="edge">
<title>4&#45;&gt;3</title>
<path fill="none" stroke="#000000" d="M189.1005,-278.7252C193.9421,-285.3815 199.0549,-292.4105 204.3794,-299.7306"/>
<polygon fill="none" stroke="#000000" points="195.8932,-305.9141 222.0314,-323.9985 212.8758,-293.5613 195.8932,-305.9141"/>
</g>
<!-- 5 -->
<g id="node6" class="node">
<title>5</title>
<polygon fill="#f2f2f2" stroke="#000000" points="305.0789,-145.5 305.0789,-287.1 500.3083,-287.1 500.3083,-145.5 305.0789,-145.5"/>
<text text-anchor="middle" x="402.6936" y="-270.5" font-family="Times,serif" font-size="14.00" fill="#000000">&lt;&lt;Abstract&gt;&gt;</text>
<text text-anchor="middle" x="402.6936" y="-253.7" font-family="Times,serif" font-size="14.00" fill="#000000">ERC20Decimals</text>
<polyline fill="none" stroke="#000000" points="305.0789,-245.5 500.3083,-245.5 "/>
<text text-anchor="start" x="313.0789" y="-228.9" font-family="Times,serif" font-size="14.00" fill="#000000">Private:</text>
<text text-anchor="start" x="313.0789" y="-212.1" font-family="Times,serif" font-size="14.00" fill="#000000"> &#160;&#160;_decimals: uint8</text>
<polyline fill="none" stroke="#000000" points="305.0789,-203.9 500.3083,-203.9 "/>
<text text-anchor="start" x="313.0789" y="-187.3" font-family="Times,serif" font-size="14.00" fill="#000000">Public:</text>
<text text-anchor="start" x="313.0789" y="-170.5" font-family="Times,serif" font-size="14.00" fill="#000000"> &#160;&#160;&#160;constructor(decimals_: uint8)</text>
<text text-anchor="start" x="313.0789" y="-153.7" font-family="Times,serif" font-size="14.00" fill="#000000"> &#160;&#160;&#160;decimals(): uint8</text>
</g>
<!-- 5&#45;&gt;3 -->
<g id="edge7" class="edge">
<title>5&#45;&gt;3</title>
<path fill="none" stroke="#000000" d="M399.9684,-287.1978C399.886,-289.3405 399.8024,-291.5155 399.7177,-293.7202"/>
<polygon fill="none" stroke="#000000" points="389.2191,-293.4847 398.5589,-323.8659 410.2036,-294.2914 389.2191,-293.4847"/>
</g>
<!-- 6 -->
<g id="node7" class="node">
<title>6</title>
<polygon fill="#f2f2f2" stroke="#000000" points="743.0042,-.5 743.0042,-108.5 918.383,-108.5 918.383,-.5 743.0042,-.5"/>
<text text-anchor="middle" x="830.6936" y="-91.9" font-family="Times,serif" font-size="14.00" fill="#000000">&lt;&lt;Interface&gt;&gt;</text>
<text text-anchor="middle" x="830.6936" y="-75.1" font-family="Times,serif" font-size="14.00" fill="#000000">IPayable</text>
<polyline fill="none" stroke="#000000" points="743.0042,-66.9 918.383,-66.9 "/>
<text text-anchor="middle" x="830.6936" y="-50.3" font-family="Times,serif" font-size="14.00" fill="#000000"> </text>
<polyline fill="none" stroke="#000000" points="743.0042,-42.1 918.383,-42.1 "/>
<text text-anchor="start" x="751.0042" y="-25.5" font-family="Times,serif" font-size="14.00" fill="#000000">External:</text>
<text text-anchor="start" x="751.0042" y="-8.7" font-family="Times,serif" font-size="14.00" fill="#000000"> &#160;&#160;&#160;&#160;pay(serviceName: string)</text>
</g>
<!-- 7 -->
<g id="node8" class="node">
<title>7</title>
<polygon fill="#f2f2f2" stroke="#000000" points="518.6535,-162.3 518.6535,-270.3 834.7337,-270.3 834.7337,-162.3 518.6535,-162.3"/>
<text text-anchor="middle" x="676.6936" y="-253.7" font-family="Times,serif" font-size="14.00" fill="#000000">&lt;&lt;Abstract&gt;&gt;</text>
<text text-anchor="middle" x="676.6936" y="-236.9" font-family="Times,serif" font-size="14.00" fill="#000000">ServicePayer</text>
<polyline fill="none" stroke="#000000" points="518.6535,-228.7 834.7337,-228.7 "/>
<text text-anchor="middle" x="676.6936" y="-212.1" font-family="Times,serif" font-size="14.00" fill="#000000"> </text>
<polyline fill="none" stroke="#000000" points="518.6535,-203.9 834.7337,-203.9 "/>
<text text-anchor="start" x="526.6535" y="-187.3" font-family="Times,serif" font-size="14.00" fill="#000000">Public:</text>
<text text-anchor="start" x="526.6535" y="-170.5" font-family="Times,serif" font-size="14.00" fill="#000000"> &#160;&#160;&#160;constructor(receiver: address, serviceName: string)</text>
</g>
<!-- 8 -->
<g id="node9" class="node">
<title>8</title>
<polygon fill="#f2f2f2" stroke="#000000" points="79.9638,-.5 79.9638,-108.5 725.4234,-108.5 725.4234,-.5 79.9638,-.5"/>
<text text-anchor="middle" x="402.6936" y="-91.9" font-family="Times,serif" font-size="14.00" fill="#000000">BurnableERC20</text>
<polyline fill="none" stroke="#000000" points="79.9638,-83.7 725.4234,-83.7 "/>
<text text-anchor="middle" x="402.6936" y="-67.1" font-family="Times,serif" font-size="14.00" fill="#000000"> </text>
<polyline fill="none" stroke="#000000" points="79.9638,-58.9 725.4234,-58.9 "/>
<text text-anchor="start" x="87.9638" y="-42.3" font-family="Times,serif" font-size="14.00" fill="#000000">Public:</text>
<text text-anchor="start" x="87.9638" y="-25.5" font-family="Times,serif" font-size="14.00" fill="#000000"> &#160;&#160;&#160;constructor(name_: string, symbol_: string, decimals_: uint8, initialBalance_: uint256, feeReceiver_: address)</text>
<text text-anchor="start" x="87.9638" y="-8.7" font-family="Times,serif" font-size="14.00" fill="#000000"> &#160;&#160;&#160;decimals(): uint8</text>
</g>
<!-- 8&#45;&gt;4 -->
<g id="edge9" class="edge">
<title>8&#45;&gt;4</title>
<path fill="none" stroke="#000000" d="M316.0903,-108.602C301.0238,-118.0142 285.0841,-127.9719 269.2238,-137.88"/>
<polygon fill="none" stroke="#000000" points="263.529,-129.0571 243.6488,-153.8569 274.6553,-146.8674 263.529,-129.0571"/>
</g>
<!-- 8&#45;&gt;5 -->
<g id="edge8" class="edge">
<title>8&#45;&gt;5</title>
<path fill="none" stroke="#000000" d="M402.6936,-108.8272C402.6936,-110.9387 402.6936,-113.0774 402.6936,-115.2366"/>
<polygon fill="none" stroke="#000000" points="392.1937,-115.4498 402.6936,-145.4499 413.1937,-115.4499 392.1937,-115.4498"/>
</g>
<!-- 8&#45;&gt;7 -->
<g id="edge10" class="edge">
<title>8&#45;&gt;7</title>
<path fill="none" stroke="#000000" d="M494.3126,-108.602C515.106,-120.8807 537.4717,-134.088 559.172,-146.9022"/>
<polygon fill="none" stroke="#000000" points="553.9896,-156.036 585.161,-162.249 564.6677,-137.9534 553.9896,-156.036"/>
</g>
</g>
</svg>
