<?xml version="1.0" encoding="UTF-8" standalone="no"?>
<!DOCTYPE svg PUBLIC "-//W3C//DTD SVG 1.1//EN"
 "http://www.w3.org/Graphics/SVG/1.1/DTD/svg11.dtd">
<!-- Generated by graphviz version 2.40.1 (20161225.0304)
 -->
<!-- Title: UmlClassDiagram Pages: 1 -->
<svg width="1709pt" height="1403pt"
 viewBox="0.00 0.00 1709.48 1402.60" xmlns="http://www.w3.org/2000/svg" xmlns:xlink="http://www.w3.org/1999/xlink">
<g id="graph0" class="graph" transform="scale(1 1) rotate(0) translate(4 1398.6)">
<title>UmlClassDiagram</title>
<polygon fill="#ffffff" stroke="transparent" points="-4,4 -4,-1398.6 1705.4771,-1398.6 1705.4771,4 -4,4"/>
<!-- 0 -->
<g id="node1" class="node">
<title>0</title>
<polygon fill="#f2f2f2" stroke="#000000" points="433.4878,-981.5 433.4878,-1106.3 591.3862,-1106.3 591.3862,-981.5 433.4878,-981.5"/>
<text text-anchor="middle" x="512.437" y="-1089.7" font-family="Times,serif" font-size="14.00" fill="#000000">&lt;&lt;Abstract&gt;&gt;</text>
<text text-anchor="middle" x="512.437" y="-1072.9" font-family="Times,serif" font-size="14.00" fill="#000000">Context</text>
<polyline fill="none" stroke="#000000" points="433.4878,-1064.7 591.3862,-1064.7 "/>
<text text-anchor="middle" x="512.437" y="-1048.1" font-family="Times,serif" font-size="14.00" fill="#000000"> </text>
<polyline fill="none" stroke="#000000" points="433.4878,-1039.9 591.3862,-1039.9 "/>
<text text-anchor="start" x="441.4878" y="-1023.3" font-family="Times,serif" font-size="14.00" fill="#000000">Internal:</text>
<text text-anchor="start" x="441.4878" y="-1006.5" font-family="Times,serif" font-size="14.00" fill="#000000"> &#160;&#160;&#160;_msgSender(): address</text>
<text text-anchor="start" x="441.4878" y="-989.7" font-family="Times,serif" font-size="14.00" fill="#000000"> &#160;&#160;&#160;_msgData(): bytes</text>
</g>
<!-- 1 -->
<g id="node2" class="node">
<title>1</title>
<polygon fill="#f2f2f2" stroke="#000000" points="0,-601.3 0,-810.1 484.874,-810.1 484.874,-601.3 0,-601.3"/>
<text text-anchor="middle" x="242.437" y="-793.5" font-family="Times,serif" font-size="14.00" fill="#000000">&lt;&lt;Abstract&gt;&gt;</text>
<text text-anchor="middle" x="242.437" y="-776.7" font-family="Times,serif" font-size="14.00" fill="#000000">Ownable</text>
<polyline fill="none" stroke="#000000" points="0,-768.5 484.874,-768.5 "/>
<text text-anchor="start" x="8" y="-751.9" font-family="Times,serif" font-size="14.00" fill="#000000">Private:</text>
<text text-anchor="start" x="8" y="-735.1" font-family="Times,serif" font-size="14.00" fill="#000000"> &#160;&#160;_owner: address</text>
<polyline fill="none" stroke="#000000" points="0,-726.9 484.874,-726.9 "/>
<text text-anchor="start" x="8" y="-710.3" font-family="Times,serif" font-size="14.00" fill="#000000">Public:</text>
<text text-anchor="start" x="8" y="-693.5" font-family="Times,serif" font-size="14.00" fill="#000000"> &#160;&#160;&#160;&lt;&lt;event&gt;&gt; OwnershipTransferred(previousOwner: address, newOwner: address)</text>
<text text-anchor="start" x="8" y="-676.7" font-family="Times,serif" font-size="14.00" fill="#000000"> &#160;&#160;&#160;&lt;&lt;modifier&gt;&gt; onlyOwner()</text>
<text text-anchor="start" x="8" y="-659.9" font-family="Times,serif" font-size="14.00" fill="#000000"> &#160;&#160;&#160;constructor()</text>
<text text-anchor="start" x="8" y="-643.1" font-family="Times,serif" font-size="14.00" fill="#000000"> &#160;&#160;&#160;owner(): address</text>
<text text-anchor="start" x="8" y="-626.3" font-family="Times,serif" font-size="14.00" fill="#000000"> &#160;&#160;&#160;renounceOwnership()</text>
<text text-anchor="start" x="8" y="-609.5" font-family="Times,serif" font-size="14.00" fill="#000000"> &#160;&#160;&#160;transferOwnership(newOwner: address)</text>
</g>
<!-- 1&#45;&gt;0 -->
<g id="edge1" class="edge">
<title>1&#45;&gt;0</title>
<path fill="none" stroke="#000000" d="M326.0176,-810.3925C363.6524,-857.5335 407.5552,-912.5259 443.299,-957.2983"/>
<polygon fill="none" stroke="#000000" points="435.3027,-964.1116 462.2256,-981.0056 451.7142,-951.0096 435.3027,-964.1116"/>
</g>
<!-- 2 -->
<g id="node3" class="node">
<title>2</title>
<polygon fill="#f2f2f2" stroke="#000000" points="542.1371,-1151.7 542.1371,-1394.1 980.7369,-1394.1 980.7369,-1151.7 542.1371,-1151.7"/>
<text text-anchor="middle" x="761.437" y="-1377.5" font-family="Times,serif" font-size="14.00" fill="#000000">&lt;&lt;Interface&gt;&gt;</text>
<text text-anchor="middle" x="761.437" y="-1360.7" font-family="Times,serif" font-size="14.00" fill="#000000">IERC20</text>
<polyline fill="none" stroke="#000000" points="542.1371,-1352.5 980.7369,-1352.5 "/>
<text text-anchor="middle" x="761.437" y="-1335.9" font-family="Times,serif" font-size="14.00" fill="#000000"> </text>
<polyline fill="none" stroke="#000000" points="542.1371,-1327.7 980.7369,-1327.7 "/>
<text text-anchor="start" x="550.1371" y="-1311.1" font-family="Times,serif" font-size="14.00" fill="#000000">External:</text>
<text text-anchor="start" x="550.1371" y="-1294.3" font-family="Times,serif" font-size="14.00" fill="#000000"> &#160;&#160;&#160;&#160;totalSupply(): uint256</text>
<text text-anchor="start" x="550.1371" y="-1277.5" font-family="Times,serif" font-size="14.00" fill="#000000"> &#160;&#160;&#160;&#160;balanceOf(account: address): uint256</text>
<text text-anchor="start" x="550.1371" y="-1260.7" font-family="Times,serif" font-size="14.00" fill="#000000"> &#160;&#160;&#160;&#160;transfer(recipient: address, amount: uint256): bool</text>
<text text-anchor="start" x="550.1371" y="-1243.9" font-family="Times,serif" font-size="14.00" fill="#000000"> &#160;&#160;&#160;&#160;allowance(owner: address, spender: address): uint256</text>
<text text-anchor="start" x="550.1371" y="-1227.1" font-family="Times,serif" font-size="14.00" fill="#000000"> &#160;&#160;&#160;&#160;approve(spender: address, amount: uint256): bool</text>
<text text-anchor="start" x="550.1371" y="-1210.3" font-family="Times,serif" font-size="14.00" fill="#000000"> &#160;&#160;&#160;&#160;transferFrom(sender: address, recipient: address, amount: uint256): bool</text>
<text text-anchor="start" x="550.1371" y="-1193.5" font-family="Times,serif" font-size="14.00" fill="#000000">Public:</text>
<text text-anchor="start" x="550.1371" y="-1176.7" font-family="Times,serif" font-size="14.00" fill="#000000"> &#160;&#160;&#160;&lt;&lt;event&gt;&gt; Transfer(from: address, to: address, value: uint256)</text>
<text text-anchor="start" x="550.1371" y="-1159.9" font-family="Times,serif" font-size="14.00" fill="#000000"> &#160;&#160;&#160;&lt;&lt;event&gt;&gt; Approval(owner: address, spender: address, value: uint256)</text>
</g>
<!-- 3 -->
<g id="node4" class="node">
<title>3</title>
<polygon fill="#f2f2f2" stroke="#000000" points="651.0604,-973.1 651.0604,-1114.7 779.8136,-1114.7 779.8136,-973.1 651.0604,-973.1"/>
<text text-anchor="middle" x="715.437" y="-1098.1" font-family="Times,serif" font-size="14.00" fill="#000000">&lt;&lt;Interface&gt;&gt;</text>
<text text-anchor="middle" x="715.437" y="-1081.3" font-family="Times,serif" font-size="14.00" fill="#000000">IERC20Metadata</text>
<polyline fill="none" stroke="#000000" points="651.0604,-1073.1 779.8136,-1073.1 "/>
<text text-anchor="middle" x="715.437" y="-1056.5" font-family="Times,serif" font-size="14.00" fill="#000000"> </text>
<polyline fill="none" stroke="#000000" points="651.0604,-1048.3 779.8136,-1048.3 "/>
<text text-anchor="start" x="659.0604" y="-1031.7" font-family="Times,serif" font-size="14.00" fill="#000000">External:</text>
<text text-anchor="start" x="659.0604" y="-1014.9" font-family="Times,serif" font-size="14.00" fill="#000000"> &#160;&#160;&#160;&#160;name(): string</text>
<text text-anchor="start" x="659.0604" y="-998.1" font-family="Times,serif" font-size="14.00" fill="#000000"> &#160;&#160;&#160;&#160;symbol(): string</text>
<text text-anchor="start" x="659.0604" y="-981.3" font-family="Times,serif" font-size="14.00" fill="#000000"> &#160;&#160;&#160;&#160;decimals(): uint8</text>
</g>
<!-- 3&#45;&gt;2 -->
<g id="edge2" class="edge">
<title>3&#45;&gt;2</title>
<path fill="none" stroke="#000000" stroke-dasharray="5,2" d="M729.6767,-1114.7888C730.1353,-1117.0721 730.5995,-1119.3827 731.0682,-1121.716"/>
<polygon fill="none" stroke="#000000" points="720.8281,-1124.0548 737.0308,-1151.3994 741.4169,-1119.9191 720.8281,-1124.0548"/>
</g>
<!-- 4 -->
<g id="node5" class="node">
<title>4</title>
<polygon fill="#f2f2f2" stroke="#000000" points="540.8871,-475.3 540.8871,-936.1 975.9869,-936.1 975.9869,-475.3 540.8871,-475.3"/>
<text text-anchor="middle" x="758.437" y="-919.5" font-family="Times,serif" font-size="14.00" fill="#000000">ERC20</text>
<polyline fill="none" stroke="#000000" points="540.8871,-911.3 975.9869,-911.3 "/>
<text text-anchor="start" x="548.8871" y="-894.7" font-family="Times,serif" font-size="14.00" fill="#000000">Private:</text>
<text text-anchor="start" x="548.8871" y="-877.9" font-family="Times,serif" font-size="14.00" fill="#000000"> &#160;&#160;_balances: mapping(address=&gt;uint256)</text>
<text text-anchor="start" x="548.8871" y="-861.1" font-family="Times,serif" font-size="14.00" fill="#000000"> &#160;&#160;_allowances: mapping(address=&gt;mapping(address=&gt;uint256))</text>
<text text-anchor="start" x="548.8871" y="-844.3" font-family="Times,serif" font-size="14.00" fill="#000000"> &#160;&#160;_totalSupply: uint256</text>
<text text-anchor="start" x="548.8871" y="-827.5" font-family="Times,serif" font-size="14.00" fill="#000000"> &#160;&#160;_name: string</text>
<text text-anchor="start" x="548.8871" y="-810.7" font-family="Times,serif" font-size="14.00" fill="#000000"> &#160;&#160;_symbol: string</text>
<polyline fill="none" stroke="#000000" points="540.8871,-802.5 975.9869,-802.5 "/>
<text text-anchor="start" x="548.8871" y="-785.9" font-family="Times,serif" font-size="14.00" fill="#000000">Internal:</text>
<text text-anchor="start" x="548.8871" y="-769.1" font-family="Times,serif" font-size="14.00" fill="#000000"> &#160;&#160;&#160;_transfer(sender: address, recipient: address, amount: uint256)</text>
<text text-anchor="start" x="548.8871" y="-752.3" font-family="Times,serif" font-size="14.00" fill="#000000"> &#160;&#160;&#160;_mint(account: address, amount: uint256)</text>
<text text-anchor="start" x="548.8871" y="-735.5" font-family="Times,serif" font-size="14.00" fill="#000000"> &#160;&#160;&#160;_burn(account: address, amount: uint256)</text>
<text text-anchor="start" x="548.8871" y="-718.7" font-family="Times,serif" font-size="14.00" fill="#000000"> &#160;&#160;&#160;_approve(owner: address, spender: address, amount: uint256)</text>
<text text-anchor="start" x="548.8871" y="-701.9" font-family="Times,serif" font-size="14.00" fill="#000000"> &#160;&#160;&#160;_beforeTokenTransfer(from: address, to: address, amount: uint256)</text>
<text text-anchor="start" x="548.8871" y="-685.1" font-family="Times,serif" font-size="14.00" fill="#000000">Public:</text>
<text text-anchor="start" x="548.8871" y="-668.3" font-family="Times,serif" font-size="14.00" fill="#000000"> &#160;&#160;&#160;constructor(name_: string, symbol_: string)</text>
<text text-anchor="start" x="548.8871" y="-651.5" font-family="Times,serif" font-size="14.00" fill="#000000"> &#160;&#160;&#160;name(): string</text>
<text text-anchor="start" x="548.8871" y="-634.7" font-family="Times,serif" font-size="14.00" fill="#000000"> &#160;&#160;&#160;symbol(): string</text>
<text text-anchor="start" x="548.8871" y="-617.9" font-family="Times,serif" font-size="14.00" fill="#000000"> &#160;&#160;&#160;decimals(): uint8</text>
<text text-anchor="start" x="548.8871" y="-601.1" font-family="Times,serif" font-size="14.00" fill="#000000"> &#160;&#160;&#160;totalSupply(): uint256</text>
<text text-anchor="start" x="548.8871" y="-584.3" font-family="Times,serif" font-size="14.00" fill="#000000"> &#160;&#160;&#160;balanceOf(account: address): uint256</text>
<text text-anchor="start" x="548.8871" y="-567.5" font-family="Times,serif" font-size="14.00" fill="#000000"> &#160;&#160;&#160;transfer(recipient: address, amount: uint256): bool</text>
<text text-anchor="start" x="548.8871" y="-550.7" font-family="Times,serif" font-size="14.00" fill="#000000"> &#160;&#160;&#160;allowance(owner: address, spender: address): uint256</text>
<text text-anchor="start" x="548.8871" y="-533.9" font-family="Times,serif" font-size="14.00" fill="#000000"> &#160;&#160;&#160;approve(spender: address, amount: uint256): bool</text>
<text text-anchor="start" x="548.8871" y="-517.1" font-family="Times,serif" font-size="14.00" fill="#000000"> &#160;&#160;&#160;transferFrom(sender: address, recipient: address, amount: uint256): bool</text>
<text text-anchor="start" x="548.8871" y="-500.3" font-family="Times,serif" font-size="14.00" fill="#000000"> &#160;&#160;&#160;increaseAllowance(spender: address, addedValue: uint256): bool</text>
<text text-anchor="start" x="548.8871" y="-483.5" font-family="Times,serif" font-size="14.00" fill="#000000"> &#160;&#160;&#160;decreaseAllowance(spender: address, subtractedValue: uint256): bool</text>
</g>
<!-- 4&#45;&gt;0 -->
<g id="edge3" class="edge">
<title>4&#45;&gt;0</title>
<path fill="none" stroke="#000000" d="M590.6109,-936.4267C585.4932,-943.4625 580.4955,-950.3334 575.6605,-956.9805"/>
<polygon fill="none" stroke="#000000" points="567.0656,-950.9465 557.91,-981.3838 584.0482,-963.2994 567.0656,-950.9465"/>
</g>
<!-- 4&#45;&gt;2 -->
<g id="edge4" class="edge">
<title>4&#45;&gt;2</title>
<path fill="none" stroke="#000000" stroke-dasharray="5,2" d="M788.0905,-936.1559C792.0996,-994.5866 793.3643,-1057.2232 788.437,-1115.2 788.2652,-1117.2217 788.0812,-1119.2565 787.8858,-1121.3018"/>
<polygon fill="none" stroke="#000000" points="777.4289,-1120.3219 784.3657,-1151.3401 798.2862,-1122.7662 777.4289,-1120.3219"/>
</g>
<!-- 4&#45;&gt;3 -->
<g id="edge5" class="edge">
<title>4&#45;&gt;3</title>
<path fill="none" stroke="#000000" stroke-dasharray="5,2" d="M729.1016,-936.4267C728.8214,-938.63 728.5434,-940.817 728.2676,-942.9861"/>
<polygon fill="none" stroke="#000000" points="717.8339,-941.7999 724.4662,-972.8847 738.6662,-944.4486 717.8339,-941.7999"/>
</g>
<!-- 5 -->
<g id="node6" class="node">
<title>5</title>
<polygon fill="#f2f2f2" stroke="#000000" points="889.4047,-229.5 889.4047,-404.7 1153.4693,-404.7 1153.4693,-229.5 889.4047,-229.5"/>
<text text-anchor="middle" x="1021.437" y="-388.1" font-family="Times,serif" font-size="14.00" fill="#000000">&lt;&lt;Abstract&gt;&gt;</text>
<text text-anchor="middle" x="1021.437" y="-371.3" font-family="Times,serif" font-size="14.00" fill="#000000">ERC20Capped</text>
<polyline fill="none" stroke="#000000" points="889.4047,-363.1 1153.4693,-363.1 "/>
<text text-anchor="start" x="897.4047" y="-346.5" font-family="Times,serif" font-size="14.00" fill="#000000">Private:</text>
<text text-anchor="start" x="897.4047" y="-329.7" font-family="Times,serif" font-size="14.00" fill="#000000"> &#160;&#160;_cap: uint256</text>
<polyline fill="none" stroke="#000000" points="889.4047,-321.5 1153.4693,-321.5 "/>
<text text-anchor="start" x="897.4047" y="-304.9" font-family="Times,serif" font-size="14.00" fill="#000000">Internal:</text>
<text text-anchor="start" x="897.4047" y="-288.1" font-family="Times,serif" font-size="14.00" fill="#000000"> &#160;&#160;&#160;_mint(account: address, amount: uint256)</text>
<text text-anchor="start" x="897.4047" y="-271.3" font-family="Times,serif" font-size="14.00" fill="#000000">Public:</text>
<text text-anchor="start" x="897.4047" y="-254.5" font-family="Times,serif" font-size="14.00" fill="#000000"> &#160;&#160;&#160;constructor(cap_: uint256)</text>
<text text-anchor="start" x="897.4047" y="-237.7" font-family="Times,serif" font-size="14.00" fill="#000000"> &#160;&#160;&#160;cap(): uint256</text>
</g>
<!-- 5&#45;&gt;4 -->
<g id="edge6" class="edge">
<title>5&#45;&gt;4</title>
<path fill="none" stroke="#000000" d="M962.0867,-404.794C952.4853,-418.9807 942.1406,-434.2657 931.3837,-450.1597"/>
<polygon fill="none" stroke="#000000" points="922.6076,-444.3935 914.4885,-475.1235 939.999,-456.1638 922.6076,-444.3935"/>
</g>
<!-- 6 -->
<g id="node7" class="node">
<title>6</title>
<polygon fill="#f2f2f2" stroke="#000000" points="270.7434,-254.7 270.7434,-379.5 558.1306,-379.5 558.1306,-254.7 270.7434,-254.7"/>
<text text-anchor="middle" x="414.437" y="-362.9" font-family="Times,serif" font-size="14.00" fill="#000000">&lt;&lt;Abstract&gt;&gt;</text>
<text text-anchor="middle" x="414.437" y="-346.1" font-family="Times,serif" font-size="14.00" fill="#000000">ERC20Burnable</text>
<polyline fill="none" stroke="#000000" points="270.7434,-337.9 558.1306,-337.9 "/>
<text text-anchor="middle" x="414.437" y="-321.3" font-family="Times,serif" font-size="14.00" fill="#000000"> </text>
<polyline fill="none" stroke="#000000" points="270.7434,-313.1 558.1306,-313.1 "/>
<text text-anchor="start" x="278.7434" y="-296.5" font-family="Times,serif" font-size="14.00" fill="#000000">Public:</text>
<text text-anchor="start" x="278.7434" y="-279.7" font-family="Times,serif" font-size="14.00" fill="#000000"> &#160;&#160;&#160;burn(amount: uint256)</text>
<text text-anchor="start" x="278.7434" y="-262.9" font-family="Times,serif" font-size="14.00" fill="#000000"> &#160;&#160;&#160;burnFrom(account: address, amount: uint256)</text>
</g>
<!-- 6&#45;&gt;0 -->
<g id="edge7" class="edge">
<title>6&#45;&gt;0</title>
<path fill="none" stroke="#000000" d="M453.7015,-379.8604C469.1,-407.8339 485.0642,-441.8573 493.437,-474.8 535.0163,-638.3944 529.5828,-836.9319 521.3527,-951.0226"/>
<polygon fill="none" stroke="#000000" points="510.8637,-950.4693 518.9646,-981.2041 531.7983,-952.1258 510.8637,-950.4693"/>
</g>
<!-- 6&#45;&gt;4 -->
<g id="edge8" class="edge">
<title>6&#45;&gt;4</title>
<path fill="none" stroke="#000000" d="M469.7066,-379.5353C488.4021,-400.6548 510.5816,-425.7098 534.2141,-452.4064"/>
<polygon fill="none" stroke="#000000" points="526.6157,-459.6639 554.3627,-475.1673 542.3398,-445.7444 526.6157,-459.6639"/>
</g>
<!-- 7 -->
<g id="node8" class="node">
<title>7</title>
<polygon fill="#f2f2f2" stroke="#000000" points="1171.8223,-246.3 1171.8223,-387.9 1367.0517,-387.9 1367.0517,-246.3 1171.8223,-246.3"/>
<text text-anchor="middle" x="1269.437" y="-371.3" font-family="Times,serif" font-size="14.00" fill="#000000">&lt;&lt;Abstract&gt;&gt;</text>
<text text-anchor="middle" x="1269.437" y="-354.5" font-family="Times,serif" font-size="14.00" fill="#000000">ERC20Decimals</text>
<polyline fill="none" stroke="#000000" points="1171.8223,-346.3 1367.0517,-346.3 "/>
<text text-anchor="start" x="1179.8223" y="-329.7" font-family="Times,serif" font-size="14.00" fill="#000000">Private:</text>
<text text-anchor="start" x="1179.8223" y="-312.9" font-family="Times,serif" font-size="14.00" fill="#000000"> &#160;&#160;_decimals: uint8</text>
<polyline fill="none" stroke="#000000" points="1171.8223,-304.7 1367.0517,-304.7 "/>
<text text-anchor="start" x="1179.8223" y="-288.1" font-family="Times,serif" font-size="14.00" fill="#000000">Public:</text>
<text text-anchor="start" x="1179.8223" y="-271.3" font-family="Times,serif" font-size="14.00" fill="#000000"> &#160;&#160;&#160;constructor(decimals_: uint8)</text>
<text text-anchor="start" x="1179.8223" y="-254.5" font-family="Times,serif" font-size="14.00" fill="#000000"> &#160;&#160;&#160;decimals(): uint8</text>
</g>
<!-- 7&#45;&gt;4 -->
<g id="edge9" class="edge">
<title>7&#45;&gt;4</title>
<path fill="none" stroke="#000000" d="M1212.7265,-388.0192C1197.27,-405.4943 1179.9369,-423.5532 1162.437,-438.8 1113.0386,-481.8385 1056.2726,-523.4096 1001.2038,-560.4175"/>
<polygon fill="none" stroke="#000000" points="995.2575,-551.7617 976.0538,-577.089 1006.8604,-569.2653 995.2575,-551.7617"/>
</g>
<!-- 8 -->
<g id="node9" class="node">
<title>8</title>
<polygon fill="#f2f2f2" stroke="#000000" points="575.9047,-195.9 575.9047,-438.3 832.9693,-438.3 832.9693,-195.9 575.9047,-195.9"/>
<text text-anchor="middle" x="704.437" y="-421.7" font-family="Times,serif" font-size="14.00" fill="#000000">&lt;&lt;Abstract&gt;&gt;</text>
<text text-anchor="middle" x="704.437" y="-404.9" font-family="Times,serif" font-size="14.00" fill="#000000">ERC20Mintable</text>
<polyline fill="none" stroke="#000000" points="575.9047,-396.7 832.9693,-396.7 "/>
<text text-anchor="start" x="583.9047" y="-380.1" font-family="Times,serif" font-size="14.00" fill="#000000">Private:</text>
<text text-anchor="start" x="583.9047" y="-363.3" font-family="Times,serif" font-size="14.00" fill="#000000"> &#160;&#160;_mintingFinished: bool</text>
<polyline fill="none" stroke="#000000" points="575.9047,-355.1 832.9693,-355.1 "/>
<text text-anchor="start" x="583.9047" y="-338.5" font-family="Times,serif" font-size="14.00" fill="#000000">Internal:</text>
<text text-anchor="start" x="583.9047" y="-321.7" font-family="Times,serif" font-size="14.00" fill="#000000"> &#160;&#160;&#160;_finishMinting()</text>
<text text-anchor="start" x="583.9047" y="-304.9" font-family="Times,serif" font-size="14.00" fill="#000000">External:</text>
<text text-anchor="start" x="583.9047" y="-288.1" font-family="Times,serif" font-size="14.00" fill="#000000"> &#160;&#160;&#160;mintingFinished(): bool</text>
<text text-anchor="start" x="583.9047" y="-271.3" font-family="Times,serif" font-size="14.00" fill="#000000"> &#160;&#160;&#160;mint(account: address, amount: uint256)</text>
<text text-anchor="start" x="583.9047" y="-254.5" font-family="Times,serif" font-size="14.00" fill="#000000"> &#160;&#160;&#160;finishMinting()</text>
<text text-anchor="start" x="583.9047" y="-237.7" font-family="Times,serif" font-size="14.00" fill="#000000">Public:</text>
<text text-anchor="start" x="583.9047" y="-220.9" font-family="Times,serif" font-size="14.00" fill="#000000"> &#160;&#160;&#160;&lt;&lt;event&gt;&gt; MintFinished()</text>
<text text-anchor="start" x="583.9047" y="-204.1" font-family="Times,serif" font-size="14.00" fill="#000000"> &#160;&#160;&#160;&lt;&lt;modifier&gt;&gt; canMint()</text>
</g>
<!-- 8&#45;&gt;4 -->
<g id="edge10" class="edge">
<title>8&#45;&gt;4</title>
<path fill="none" stroke="#000000" d="M721.3008,-438.457C721.6242,-440.784 721.9498,-443.1273 722.2775,-445.4853"/>
<polygon fill="none" stroke="#000000" points="711.8863,-446.9949 726.4155,-475.2641 732.6864,-444.1044 711.8863,-446.9949"/>
</g>
<!-- 9 -->
<g id="node10" class="node">
<title>9</title>
<polygon fill="#f2f2f2" stroke="#000000" points="1243.7476,-25.7 1243.7476,-133.7 1419.1264,-133.7 1419.1264,-25.7 1243.7476,-25.7"/>
<text text-anchor="middle" x="1331.437" y="-117.1" font-family="Times,serif" font-size="14.00" fill="#000000">&lt;&lt;Interface&gt;&gt;</text>
<text text-anchor="middle" x="1331.437" y="-100.3" font-family="Times,serif" font-size="14.00" fill="#000000">IPayable</text>
<polyline fill="none" stroke="#000000" points="1243.7476,-92.1 1419.1264,-92.1 "/>
<text text-anchor="middle" x="1331.437" y="-75.5" font-family="Times,serif" font-size="14.00" fill="#000000"> </text>
<polyline fill="none" stroke="#000000" points="1243.7476,-67.3 1419.1264,-67.3 "/>
<text text-anchor="start" x="1251.7476" y="-50.7" font-family="Times,serif" font-size="14.00" fill="#000000">External:</text>
<text text-anchor="start" x="1251.7476" y="-33.9" font-family="Times,serif" font-size="14.00" fill="#000000"> &#160;&#160;&#160;&#160;pay(serviceName: string)</text>
</g>
<!-- 10 -->
<g id="node11" class="node">
<title>10</title>
<polygon fill="#f2f2f2" stroke="#000000" points="1385.3969,-263.1 1385.3969,-371.1 1701.4771,-371.1 1701.4771,-263.1 1385.3969,-263.1"/>
<text text-anchor="middle" x="1543.437" y="-354.5" font-family="Times,serif" font-size="14.00" fill="#000000">&lt;&lt;Abstract&gt;&gt;</text>
<text text-anchor="middle" x="1543.437" y="-337.7" font-family="Times,serif" font-size="14.00" fill="#000000">ServicePayer</text>
<polyline fill="none" stroke="#000000" points="1385.3969,-329.5 1701.4771,-329.5 "/>
<text text-anchor="middle" x="1543.437" y="-312.9" font-family="Times,serif" font-size="14.00" fill="#000000"> </text>
<polyline fill="none" stroke="#000000" points="1385.3969,-304.7 1701.4771,-304.7 "/>
<text text-anchor="start" x="1393.3969" y="-288.1" font-family="Times,serif" font-size="14.00" fill="#000000">Public:</text>
<text text-anchor="start" x="1393.3969" y="-271.3" font-family="Times,serif" font-size="14.00" fill="#000000"> &#160;&#160;&#160;constructor(receiver: address, serviceName: string)</text>
</g>
<!-- 11 -->
<g id="node12" class="node">
<title>11</title>
<polygon fill="#f2f2f2" stroke="#000000" points="496.9067,-.5 496.9067,-158.9 1225.9673,-158.9 1225.9673,-.5 496.9067,-.5"/>
<text text-anchor="middle" x="861.437" y="-142.3" font-family="Times,serif" font-size="14.00" fill="#000000">CommonERC20</text>
<polyline fill="none" stroke="#000000" points="496.9067,-134.1 1225.9673,-134.1 "/>
<text text-anchor="middle" x="861.437" y="-117.5" font-family="Times,serif" font-size="14.00" fill="#000000"> </text>
<polyline fill="none" stroke="#000000" points="496.9067,-109.3 1225.9673,-109.3 "/>
<text text-anchor="start" x="504.9067" y="-92.7" font-family="Times,serif" font-size="14.00" fill="#000000">Internal:</text>
<text text-anchor="start" x="504.9067" y="-75.9" font-family="Times,serif" font-size="14.00" fill="#000000"> &#160;&#160;&#160;_mint(account: address, amount: uint256)</text>
<text text-anchor="start" x="504.9067" y="-59.1" font-family="Times,serif" font-size="14.00" fill="#000000"> &#160;&#160;&#160;_finishMinting()</text>
<text text-anchor="start" x="504.9067" y="-42.3" font-family="Times,serif" font-size="14.00" fill="#000000">Public:</text>
<text text-anchor="start" x="504.9067" y="-25.5" font-family="Times,serif" font-size="14.00" fill="#000000"> &#160;&#160;&#160;constructor(name_: string, symbol_: string, decimals_: uint8, cap_: uint256, initialBalance_: uint256, feeReceiver_: address)</text>
<text text-anchor="start" x="504.9067" y="-8.7" font-family="Times,serif" font-size="14.00" fill="#000000"> &#160;&#160;&#160;decimals(): uint8</text>
</g>
<!-- 11&#45;&gt;1 -->
<g id="edge15" class="edge">
<title>11&#45;&gt;1</title>
<path fill="none" stroke="#000000" d="M496.5644,-112.4185C391.1289,-129.7323 295.2716,-155.9368 261.437,-195.4 173.8628,-297.5426 183.4429,-457.9189 205.764,-571.5878"/>
<polygon fill="none" stroke="#000000" points="195.5581,-574.0751 212.0762,-601.2304 216.0976,-569.7013 195.5581,-574.0751"/>
</g>
<!-- 11&#45;&gt;4 -->
<g id="edge17" class="edge">
<title>11&#45;&gt;4</title>
<path fill="none" stroke="#000000" stroke-dasharray="5,2" d="M862.9388,-159.1702C862.9777,-232.3789 859.6274,-343.7298 842.437,-438.8 840.867,-447.4828 839.0969,-456.2772 837.163,-465.1236"/>
<polygon fill="#000000" stroke="#000000" points="833.692,-464.6059 834.9119,-475.1303 840.5213,-466.1423 833.692,-464.6059"/>
</g>
<!-- 11&#45;&gt;5 -->
<g id="edge12" class="edge">
<title>11&#45;&gt;5</title>
<path fill="none" stroke="#000000" d="M914.9371,-159.0808C924.7155,-173.5895 935.0893,-188.9817 945.3761,-204.2447"/>
<polygon fill="none" stroke="#000000" points="936.7285,-210.2012 962.2021,-229.2103 954.1426,-198.4646 936.7285,-210.2012"/>
</g>
<!-- 11&#45;&gt;6 -->
<g id="edge14" class="edge">
<title>11&#45;&gt;6</title>
<path fill="none" stroke="#000000" d="M637.7588,-159.0662C613.1812,-170.231 588.9372,-182.3838 566.437,-195.4 546.2836,-207.0586 525.9724,-221.2526 507.047,-235.7741"/>
<polygon fill="none" stroke="#000000" points="500.4379,-227.6146 483.5159,-254.5201 513.5229,-244.0397 500.4379,-227.6146"/>
</g>
<!-- 11&#45;&gt;7 -->
<g id="edge11" class="edge">
<title>11&#45;&gt;7</title>
<path fill="none" stroke="#000000" d="M1100.3383,-158.9103C1122.0747,-169.8209 1143.1411,-181.9631 1162.437,-195.4 1174.2945,-203.6571 1185.7009,-213.4994 1196.36,-223.9586"/>
<polygon fill="none" stroke="#000000" points="1188.8857,-231.3374 1217.0946,-245.9834 1204.176,-216.9428 1188.8857,-231.3374"/>
</g>
<!-- 11&#45;&gt;8 -->
<g id="edge13" class="edge">
<title>11&#45;&gt;8</title>
<path fill="none" stroke="#000000" d="M808.94,-159.0808C806.4273,-162.8803 803.8745,-166.7404 801.2937,-170.6428"/>
<polygon fill="none" stroke="#000000" points="792.3911,-165.0694 784.6007,-195.8844 809.9072,-176.6534 792.3911,-165.0694"/>
</g>
<!-- 11&#45;&gt;10 -->
<g id="edge16" class="edge">
<title>11&#45;&gt;10</title>
<path fill="none" stroke="#000000" d="M1226.2202,-158.942C1304.7931,-176.5655 1367.3464,-191.2816 1376.437,-195.4 1404.5968,-208.1573 1432.7214,-226.1159 1457.6436,-244.3286"/>
<polygon fill="none" stroke="#000000" points="1451.6353,-252.9518 1481.8504,-262.8159 1464.3815,-236.2624 1451.6353,-252.9518"/>
</g>
</g>
</svg>
