<?xml version="1.0" encoding="UTF-8" standalone="no"?>
<!DOCTYPE svg PUBLIC "-//W3C//DTD SVG 1.1//EN"
 "http://www.w3.org/Graphics/SVG/1.1/DTD/svg11.dtd">
<!-- Generated by graphviz version 2.40.1 (20161225.0304)
 -->
<!-- Title: UmlClassDiagram Pages: 1 -->
<svg width="1435pt" height="1403pt"
 viewBox="0.00 0.00 1435.48 1402.60" xmlns="http://www.w3.org/2000/svg" xmlns:xlink="http://www.w3.org/1999/xlink">
<g id="graph0" class="graph" transform="scale(1 1) rotate(0) translate(4 1398.6)">
<title>UmlClassDiagram</title>
<polygon fill="#ffffff" stroke="transparent" points="-4,4 -4,-1398.6 1431.4771,-1398.6 1431.4771,4 -4,4"/>
<!-- 0 -->
<g id="node1" class="node">
<title>0</title>
<polygon fill="#f2f2f2" stroke="#000000" points="349.4878,-981.5 349.4878,-1106.3 507.3862,-1106.3 507.3862,-981.5 349.4878,-981.5"/>
<text text-anchor="middle" x="428.437" y="-1089.7" font-family="Times,serif" font-size="14.00" fill="#000000">&lt;&lt;Abstract&gt;&gt;</text>
<text text-anchor="middle" x="428.437" y="-1072.9" font-family="Times,serif" font-size="14.00" fill="#000000">Context</text>
<polyline fill="none" stroke="#000000" points="349.4878,-1064.7 507.3862,-1064.7 "/>
<text text-anchor="middle" x="428.437" y="-1048.1" font-family="Times,serif" font-size="14.00" fill="#000000"> </text>
<polyline fill="none" stroke="#000000" points="349.4878,-1039.9 507.3862,-1039.9 "/>
<text text-anchor="start" x="357.4878" y="-1023.3" font-family="Times,serif" font-size="14.00" fill="#000000">Internal:</text>
<text text-anchor="start" x="357.4878" y="-1006.5" font-family="Times,serif" font-size="14.00" fill="#000000"> &#160;&#160;&#160;_msgSender(): address</text>
<text text-anchor="start" x="357.4878" y="-989.7" font-family="Times,serif" font-size="14.00" fill="#000000"> &#160;&#160;&#160;_msgData(): bytes</text>
</g>
<!-- 1 -->
<g id="node2" class="node">
<title>1</title>
<polygon fill="#f2f2f2" stroke="#000000" points="0,-601.3 0,-810.1 484.874,-810.1 484.874,-601.3 0,-601.3"/>
<text text-anchor="middle" x="242.437" y="-793.5" font-family="Times,serif" font-size="14.00" fill="#000000">&lt;&lt;Abstract&gt;&gt;</text>
<text text-anchor="middle" x="242.437" y="-776.7" font-family="Times,serif" font-size="14.00" fill="#000000">Ownable</text>
<polyline fill="none" stroke="#000000" points="0,-768.5 484.874,-768.5 "/>
<text text-anchor="start" x="8" y="-751.9" font-family="Times,serif" font-size="14.00" fill="#000000">Private:</text>
<text text-anchor="start" x="8" y="-735.1" font-family="Times,serif" font-size="14.00" fill="#000000"> &#160;&#160;_owner: address</text>
<polyline fill="none" stroke="#000000" points="0,-726.9 484.874,-726.9 "/>
<text text-anchor="start" x="8" y="-710.3" font-family="Times,serif" font-size="14.00" fill="#000000">Public:</text>
<text text-anchor="start" x="8" y="-693.5" font-family="Times,serif" font-size="14.00" fill="#000000"> &#160;&#160;&#160;&lt;&lt;event&gt;&gt; OwnershipTransferred(previousOwner: address, newOwner: address)</text>
<text text-anchor="start" x="8" y="-676.7" font-family="Times,serif" font-size="14.00" fill="#000000"> &#160;&#160;&#160;&lt;&lt;modifier&gt;&gt; onlyOwner()</text>
<text text-anchor="start" x="8" y="-659.9" font-family="Times,serif" font-size="14.00" fill="#000000"> &#160;&#160;&#160;constructor()</text>
<text text-anchor="start" x="8" y="-643.1" font-family="Times,serif" font-size="14.00" fill="#000000"> &#160;&#160;&#160;owner(): address</text>
<text text-anchor="start" x="8" y="-626.3" font-family="Times,serif" font-size="14.00" fill="#000000"> &#160;&#160;&#160;renounceOwnership()</text>
<text text-anchor="start" x="8" y="-609.5" font-family="Times,serif" font-size="14.00" fill="#000000"> &#160;&#160;&#160;transferOwnership(newOwner: address)</text>
</g>
<!-- 1&#45;&gt;0 -->
<g id="edge1" class="edge">
<title>1&#45;&gt;0</title>
<path fill="none" stroke="#000000" d="M300.0148,-810.3925C325.4008,-856.5514 354.9268,-910.2379 379.2624,-954.4868"/>
<polygon fill="none" stroke="#000000" points="370.1895,-959.7788 393.8469,-981.0056 388.5903,-949.6588 370.1895,-959.7788"/>
</g>
<!-- 2 -->
<g id="node3" class="node">
<title>2</title>
<polygon fill="#f2f2f2" stroke="#000000" points="501.1371,-1151.7 501.1371,-1394.1 939.7369,-1394.1 939.7369,-1151.7 501.1371,-1151.7"/>
<text text-anchor="middle" x="720.437" y="-1377.5" font-family="Times,serif" font-size="14.00" fill="#000000">&lt;&lt;Interface&gt;&gt;</text>
<text text-anchor="middle" x="720.437" y="-1360.7" font-family="Times,serif" font-size="14.00" fill="#000000">IERC20</text>
<polyline fill="none" stroke="#000000" points="501.1371,-1352.5 939.7369,-1352.5 "/>
<text text-anchor="middle" x="720.437" y="-1335.9" font-family="Times,serif" font-size="14.00" fill="#000000"> </text>
<polyline fill="none" stroke="#000000" points="501.1371,-1327.7 939.7369,-1327.7 "/>
<text text-anchor="start" x="509.1371" y="-1311.1" font-family="Times,serif" font-size="14.00" fill="#000000">External:</text>
<text text-anchor="start" x="509.1371" y="-1294.3" font-family="Times,serif" font-size="14.00" fill="#000000"> &#160;&#160;&#160;&#160;totalSupply(): uint256</text>
<text text-anchor="start" x="509.1371" y="-1277.5" font-family="Times,serif" font-size="14.00" fill="#000000"> &#160;&#160;&#160;&#160;balanceOf(account: address): uint256</text>
<text text-anchor="start" x="509.1371" y="-1260.7" font-family="Times,serif" font-size="14.00" fill="#000000"> &#160;&#160;&#160;&#160;transfer(recipient: address, amount: uint256): bool</text>
<text text-anchor="start" x="509.1371" y="-1243.9" font-family="Times,serif" font-size="14.00" fill="#000000"> &#160;&#160;&#160;&#160;allowance(owner: address, spender: address): uint256</text>
<text text-anchor="start" x="509.1371" y="-1227.1" font-family="Times,serif" font-size="14.00" fill="#000000"> &#160;&#160;&#160;&#160;approve(spender: address, amount: uint256): bool</text>
<text text-anchor="start" x="509.1371" y="-1210.3" font-family="Times,serif" font-size="14.00" fill="#000000"> &#160;&#160;&#160;&#160;transferFrom(sender: address, recipient: address, amount: uint256): bool</text>
<text text-anchor="start" x="509.1371" y="-1193.5" font-family="Times,serif" font-size="14.00" fill="#000000">Public:</text>
<text text-anchor="start" x="509.1371" y="-1176.7" font-family="Times,serif" font-size="14.00" fill="#000000"> &#160;&#160;&#160;&lt;&lt;event&gt;&gt; Transfer(from: address, to: address, value: uint256)</text>
<text text-anchor="start" x="509.1371" y="-1159.9" font-family="Times,serif" font-size="14.00" fill="#000000"> &#160;&#160;&#160;&lt;&lt;event&gt;&gt; Approval(owner: address, spender: address, value: uint256)</text>
</g>
<!-- 3 -->
<g id="node4" class="node">
<title>3</title>
<polygon fill="#f2f2f2" stroke="#000000" points="702.0604,-973.1 702.0604,-1114.7 830.8136,-1114.7 830.8136,-973.1 702.0604,-973.1"/>
<text text-anchor="middle" x="766.437" y="-1098.1" font-family="Times,serif" font-size="14.00" fill="#000000">&lt;&lt;Interface&gt;&gt;</text>
<text text-anchor="middle" x="766.437" y="-1081.3" font-family="Times,serif" font-size="14.00" fill="#000000">IERC20Metadata</text>
<polyline fill="none" stroke="#000000" points="702.0604,-1073.1 830.8136,-1073.1 "/>
<text text-anchor="middle" x="766.437" y="-1056.5" font-family="Times,serif" font-size="14.00" fill="#000000"> </text>
<polyline fill="none" stroke="#000000" points="702.0604,-1048.3 830.8136,-1048.3 "/>
<text text-anchor="start" x="710.0604" y="-1031.7" font-family="Times,serif" font-size="14.00" fill="#000000">External:</text>
<text text-anchor="start" x="710.0604" y="-1014.9" font-family="Times,serif" font-size="14.00" fill="#000000"> &#160;&#160;&#160;&#160;name(): string</text>
<text text-anchor="start" x="710.0604" y="-998.1" font-family="Times,serif" font-size="14.00" fill="#000000"> &#160;&#160;&#160;&#160;symbol(): string</text>
<text text-anchor="start" x="710.0604" y="-981.3" font-family="Times,serif" font-size="14.00" fill="#000000"> &#160;&#160;&#160;&#160;decimals(): uint8</text>
</g>
<!-- 3&#45;&gt;2 -->
<g id="edge2" class="edge">
<title>3&#45;&gt;2</title>
<path fill="none" stroke="#000000" stroke-dasharray="5,2" d="M752.1973,-1114.7888C751.7387,-1117.0721 751.2745,-1119.3827 750.8058,-1121.716"/>
<polygon fill="none" stroke="#000000" points="740.4571,-1119.9191 744.8432,-1151.3994 761.0459,-1124.0548 740.4571,-1119.9191"/>
</g>
<!-- 4 -->
<g id="node5" class="node">
<title>4</title>
<polygon fill="#f2f2f2" stroke="#000000" points="502.8871,-475.3 502.8871,-936.1 937.9869,-936.1 937.9869,-475.3 502.8871,-475.3"/>
<text text-anchor="middle" x="720.437" y="-919.5" font-family="Times,serif" font-size="14.00" fill="#000000">ERC20</text>
<polyline fill="none" stroke="#000000" points="502.8871,-911.3 937.9869,-911.3 "/>
<text text-anchor="start" x="510.8871" y="-894.7" font-family="Times,serif" font-size="14.00" fill="#000000">Private:</text>
<text text-anchor="start" x="510.8871" y="-877.9" font-family="Times,serif" font-size="14.00" fill="#000000"> &#160;&#160;_balances: mapping(address=&gt;uint256)</text>
<text text-anchor="start" x="510.8871" y="-861.1" font-family="Times,serif" font-size="14.00" fill="#000000"> &#160;&#160;_allowances: mapping(address=&gt;mapping(address=&gt;uint256))</text>
<text text-anchor="start" x="510.8871" y="-844.3" font-family="Times,serif" font-size="14.00" fill="#000000"> &#160;&#160;_totalSupply: uint256</text>
<text text-anchor="start" x="510.8871" y="-827.5" font-family="Times,serif" font-size="14.00" fill="#000000"> &#160;&#160;_name: string</text>
<text text-anchor="start" x="510.8871" y="-810.7" font-family="Times,serif" font-size="14.00" fill="#000000"> &#160;&#160;_symbol: string</text>
<polyline fill="none" stroke="#000000" points="502.8871,-802.5 937.9869,-802.5 "/>
<text text-anchor="start" x="510.8871" y="-785.9" font-family="Times,serif" font-size="14.00" fill="#000000">Internal:</text>
<text text-anchor="start" x="510.8871" y="-769.1" font-family="Times,serif" font-size="14.00" fill="#000000"> &#160;&#160;&#160;_transfer(sender: address, recipient: address, amount: uint256)</text>
<text text-anchor="start" x="510.8871" y="-752.3" font-family="Times,serif" font-size="14.00" fill="#000000"> &#160;&#160;&#160;_mint(account: address, amount: uint256)</text>
<text text-anchor="start" x="510.8871" y="-735.5" font-family="Times,serif" font-size="14.00" fill="#000000"> &#160;&#160;&#160;_burn(account: address, amount: uint256)</text>
<text text-anchor="start" x="510.8871" y="-718.7" font-family="Times,serif" font-size="14.00" fill="#000000"> &#160;&#160;&#160;_approve(owner: address, spender: address, amount: uint256)</text>
<text text-anchor="start" x="510.8871" y="-701.9" font-family="Times,serif" font-size="14.00" fill="#000000"> &#160;&#160;&#160;_beforeTokenTransfer(from: address, to: address, amount: uint256)</text>
<text text-anchor="start" x="510.8871" y="-685.1" font-family="Times,serif" font-size="14.00" fill="#000000">Public:</text>
<text text-anchor="start" x="510.8871" y="-668.3" font-family="Times,serif" font-size="14.00" fill="#000000"> &#160;&#160;&#160;constructor(name_: string, symbol_: string)</text>
<text text-anchor="start" x="510.8871" y="-651.5" font-family="Times,serif" font-size="14.00" fill="#000000"> &#160;&#160;&#160;name(): string</text>
<text text-anchor="start" x="510.8871" y="-634.7" font-family="Times,serif" font-size="14.00" fill="#000000"> &#160;&#160;&#160;symbol(): string</text>
<text text-anchor="start" x="510.8871" y="-617.9" font-family="Times,serif" font-size="14.00" fill="#000000"> &#160;&#160;&#160;decimals(): uint8</text>
<text text-anchor="start" x="510.8871" y="-601.1" font-family="Times,serif" font-size="14.00" fill="#000000"> &#160;&#160;&#160;totalSupply(): uint256</text>
<text text-anchor="start" x="510.8871" y="-584.3" font-family="Times,serif" font-size="14.00" fill="#000000"> &#160;&#160;&#160;balanceOf(account: address): uint256</text>
<text text-anchor="start" x="510.8871" y="-567.5" font-family="Times,serif" font-size="14.00" fill="#000000"> &#160;&#160;&#160;transfer(recipient: address, amount: uint256): bool</text>
<text text-anchor="start" x="510.8871" y="-550.7" font-family="Times,serif" font-size="14.00" fill="#000000"> &#160;&#160;&#160;allowance(owner: address, spender: address): uint256</text>
<text text-anchor="start" x="510.8871" y="-533.9" font-family="Times,serif" font-size="14.00" fill="#000000"> &#160;&#160;&#160;approve(spender: address, amount: uint256): bool</text>
<text text-anchor="start" x="510.8871" y="-517.1" font-family="Times,serif" font-size="14.00" fill="#000000"> &#160;&#160;&#160;transferFrom(sender: address, recipient: address, amount: uint256): bool</text>
<text text-anchor="start" x="510.8871" y="-500.3" font-family="Times,serif" font-size="14.00" fill="#000000"> &#160;&#160;&#160;increaseAllowance(spender: address, addedValue: uint256): bool</text>
<text text-anchor="start" x="510.8871" y="-483.5" font-family="Times,serif" font-size="14.00" fill="#000000"> &#160;&#160;&#160;decreaseAllowance(spender: address, subtractedValue: uint256): bool</text>
</g>
<!-- 4&#45;&gt;0 -->
<g id="edge3" class="edge">
<title>4&#45;&gt;0</title>
<path fill="none" stroke="#000000" d="M521.2288,-936.4267C514.7203,-943.9651 508.3751,-951.3141 502.256,-958.4014"/>
<polygon fill="none" stroke="#000000" points="494.071,-951.8145 482.4131,-981.3838 509.9662,-965.5383 494.071,-951.8145"/>
</g>
<!-- 4&#45;&gt;2 -->
<g id="edge4" class="edge">
<title>4&#45;&gt;2</title>
<path fill="none" stroke="#000000" stroke-dasharray="5,2" d="M693.0665,-936.1968C689.4729,-994.6267 688.5122,-1057.2526 693.437,-1115.2 693.6088,-1117.2217 693.7928,-1119.2565 693.9882,-1121.3018"/>
<polygon fill="none" stroke="#000000" points="683.5878,-1122.7662 697.5083,-1151.3401 704.4451,-1120.3219 683.5878,-1122.7662"/>
</g>
<!-- 4&#45;&gt;3 -->
<g id="edge5" class="edge">
<title>4&#45;&gt;3</title>
<path fill="none" stroke="#000000" stroke-dasharray="5,2" d="M751.8191,-936.4267C752.1188,-938.63 752.4163,-940.817 752.7113,-942.9861"/>
<polygon fill="none" stroke="#000000" points="742.3304,-944.5735 756.7779,-972.8847 763.1388,-941.7432 742.3304,-944.5735"/>
</g>
<!-- 5 -->
<g id="node6" class="node">
<title>5</title>
<polygon fill="#f2f2f2" stroke="#000000" points="340.4047,-229.5 340.4047,-404.7 604.4693,-404.7 604.4693,-229.5 340.4047,-229.5"/>
<text text-anchor="middle" x="472.437" y="-388.1" font-family="Times,serif" font-size="14.00" fill="#000000">&lt;&lt;Abstract&gt;&gt;</text>
<text text-anchor="middle" x="472.437" y="-371.3" font-family="Times,serif" font-size="14.00" fill="#000000">ERC20Capped</text>
<polyline fill="none" stroke="#000000" points="340.4047,-363.1 604.4693,-363.1 "/>
<text text-anchor="start" x="348.4047" y="-346.5" font-family="Times,serif" font-size="14.00" fill="#000000">Private:</text>
<text text-anchor="start" x="348.4047" y="-329.7" font-family="Times,serif" font-size="14.00" fill="#000000"> &#160;&#160;_cap: uint256</text>
<polyline fill="none" stroke="#000000" points="340.4047,-321.5 604.4693,-321.5 "/>
<text text-anchor="start" x="348.4047" y="-304.9" font-family="Times,serif" font-size="14.00" fill="#000000">Internal:</text>
<text text-anchor="start" x="348.4047" y="-288.1" font-family="Times,serif" font-size="14.00" fill="#000000"> &#160;&#160;&#160;_mint(account: address, amount: uint256)</text>
<text text-anchor="start" x="348.4047" y="-271.3" font-family="Times,serif" font-size="14.00" fill="#000000">Public:</text>
<text text-anchor="start" x="348.4047" y="-254.5" font-family="Times,serif" font-size="14.00" fill="#000000"> &#160;&#160;&#160;constructor(cap_: uint256)</text>
<text text-anchor="start" x="348.4047" y="-237.7" font-family="Times,serif" font-size="14.00" fill="#000000"> &#160;&#160;&#160;cap(): uint256</text>
</g>
<!-- 5&#45;&gt;4 -->
<g id="edge6" class="edge">
<title>5&#45;&gt;4</title>
<path fill="none" stroke="#000000" d="M528.4023,-404.794C537.349,-418.8129 546.98,-433.9041 556.9942,-449.5957"/>
<polygon fill="none" stroke="#000000" points="548.2955,-455.4832 573.2857,-475.1235 565.9977,-444.1858 548.2955,-455.4832"/>
</g>
<!-- 6 -->
<g id="node7" class="node">
<title>6</title>
<polygon fill="#f2f2f2" stroke="#000000" points="622.8223,-246.3 622.8223,-387.9 818.0517,-387.9 818.0517,-246.3 622.8223,-246.3"/>
<text text-anchor="middle" x="720.437" y="-371.3" font-family="Times,serif" font-size="14.00" fill="#000000">&lt;&lt;Abstract&gt;&gt;</text>
<text text-anchor="middle" x="720.437" y="-354.5" font-family="Times,serif" font-size="14.00" fill="#000000">ERC20Decimals</text>
<polyline fill="none" stroke="#000000" points="622.8223,-346.3 818.0517,-346.3 "/>
<text text-anchor="start" x="630.8223" y="-329.7" font-family="Times,serif" font-size="14.00" fill="#000000">Private:</text>
<text text-anchor="start" x="630.8223" y="-312.9" font-family="Times,serif" font-size="14.00" fill="#000000"> &#160;&#160;_decimals: uint8</text>
<polyline fill="none" stroke="#000000" points="622.8223,-304.7 818.0517,-304.7 "/>
<text text-anchor="start" x="630.8223" y="-288.1" font-family="Times,serif" font-size="14.00" fill="#000000">Public:</text>
<text text-anchor="start" x="630.8223" y="-271.3" font-family="Times,serif" font-size="14.00" fill="#000000"> &#160;&#160;&#160;constructor(decimals_: uint8)</text>
<text text-anchor="start" x="630.8223" y="-254.5" font-family="Times,serif" font-size="14.00" fill="#000000"> &#160;&#160;&#160;decimals(): uint8</text>
</g>
<!-- 6&#45;&gt;4 -->
<g id="edge7" class="edge">
<title>6&#45;&gt;4</title>
<path fill="none" stroke="#000000" d="M720.437,-387.9234C720.437,-405.0844 720.437,-424.4397 720.437,-444.9151"/>
<polygon fill="none" stroke="#000000" points="709.9371,-445.0403 720.437,-475.0403 730.9371,-445.0403 709.9371,-445.0403"/>
</g>
<!-- 7 -->
<g id="node8" class="node">
<title>7</title>
<polygon fill="#f2f2f2" stroke="#000000" points="835.9047,-195.9 835.9047,-438.3 1092.9693,-438.3 1092.9693,-195.9 835.9047,-195.9"/>
<text text-anchor="middle" x="964.437" y="-421.7" font-family="Times,serif" font-size="14.00" fill="#000000">&lt;&lt;Abstract&gt;&gt;</text>
<text text-anchor="middle" x="964.437" y="-404.9" font-family="Times,serif" font-size="14.00" fill="#000000">ERC20Mintable</text>
<polyline fill="none" stroke="#000000" points="835.9047,-396.7 1092.9693,-396.7 "/>
<text text-anchor="start" x="843.9047" y="-380.1" font-family="Times,serif" font-size="14.00" fill="#000000">Private:</text>
<text text-anchor="start" x="843.9047" y="-363.3" font-family="Times,serif" font-size="14.00" fill="#000000"> &#160;&#160;_mintingFinished: bool</text>
<polyline fill="none" stroke="#000000" points="835.9047,-355.1 1092.9693,-355.1 "/>
<text text-anchor="start" x="843.9047" y="-338.5" font-family="Times,serif" font-size="14.00" fill="#000000">Internal:</text>
<text text-anchor="start" x="843.9047" y="-321.7" font-family="Times,serif" font-size="14.00" fill="#000000"> &#160;&#160;&#160;_finishMinting()</text>
<text text-anchor="start" x="843.9047" y="-304.9" font-family="Times,serif" font-size="14.00" fill="#000000">External:</text>
<text text-anchor="start" x="843.9047" y="-288.1" font-family="Times,serif" font-size="14.00" fill="#000000"> &#160;&#160;&#160;mintingFinished(): bool</text>
<text text-anchor="start" x="843.9047" y="-271.3" font-family="Times,serif" font-size="14.00" fill="#000000"> &#160;&#160;&#160;mint(account: address, amount: uint256)</text>
<text text-anchor="start" x="843.9047" y="-254.5" font-family="Times,serif" font-size="14.00" fill="#000000"> &#160;&#160;&#160;finishMinting()</text>
<text text-anchor="start" x="843.9047" y="-237.7" font-family="Times,serif" font-size="14.00" fill="#000000">Public:</text>
<text text-anchor="start" x="843.9047" y="-220.9" font-family="Times,serif" font-size="14.00" fill="#000000"> &#160;&#160;&#160;&lt;&lt;event&gt;&gt; MintFinished()</text>
<text text-anchor="start" x="843.9047" y="-204.1" font-family="Times,serif" font-size="14.00" fill="#000000"> &#160;&#160;&#160;&lt;&lt;modifier&gt;&gt; canMint()</text>
</g>
<!-- 7&#45;&gt;4 -->
<g id="edge8" class="edge">
<title>7&#45;&gt;4</title>
<path fill="none" stroke="#000000" d="M888.2375,-438.457C885.8998,-442.1802 883.5358,-445.9452 881.1497,-449.7452"/>
<polygon fill="none" stroke="#000000" points="872.187,-444.2738 865.1265,-475.2641 889.9718,-455.4408 872.187,-444.2738"/>
</g>
<!-- 8 -->
<g id="node9" class="node">
<title>8</title>
<polygon fill="#f2f2f2" stroke="#000000" points="1102.7476,-25.7 1102.7476,-133.7 1278.1264,-133.7 1278.1264,-25.7 1102.7476,-25.7"/>
<text text-anchor="middle" x="1190.437" y="-117.1" font-family="Times,serif" font-size="14.00" fill="#000000">&lt;&lt;Interface&gt;&gt;</text>
<text text-anchor="middle" x="1190.437" y="-100.3" font-family="Times,serif" font-size="14.00" fill="#000000">IPayable</text>
<polyline fill="none" stroke="#000000" points="1102.7476,-92.1 1278.1264,-92.1 "/>
<text text-anchor="middle" x="1190.437" y="-75.5" font-family="Times,serif" font-size="14.00" fill="#000000"> </text>
<polyline fill="none" stroke="#000000" points="1102.7476,-67.3 1278.1264,-67.3 "/>
<text text-anchor="start" x="1110.7476" y="-50.7" font-family="Times,serif" font-size="14.00" fill="#000000">External:</text>
<text text-anchor="start" x="1110.7476" y="-33.9" font-family="Times,serif" font-size="14.00" fill="#000000"> &#160;&#160;&#160;&#160;pay(serviceName: string)</text>
</g>
<!-- 9 -->
<g id="node10" class="node">
<title>9</title>
<polygon fill="#f2f2f2" stroke="#000000" points="1111.3969,-263.1 1111.3969,-371.1 1427.4771,-371.1 1427.4771,-263.1 1111.3969,-263.1"/>
<text text-anchor="middle" x="1269.437" y="-354.5" font-family="Times,serif" font-size="14.00" fill="#000000">&lt;&lt;Abstract&gt;&gt;</text>
<text text-anchor="middle" x="1269.437" y="-337.7" font-family="Times,serif" font-size="14.00" fill="#000000">ServicePayer</text>
<polyline fill="none" stroke="#000000" points="1111.3969,-329.5 1427.4771,-329.5 "/>
<text text-anchor="middle" x="1269.437" y="-312.9" font-family="Times,serif" font-size="14.00" fill="#000000"> </text>
<polyline fill="none" stroke="#000000" points="1111.3969,-304.7 1427.4771,-304.7 "/>
<text text-anchor="start" x="1119.3969" y="-288.1" font-family="Times,serif" font-size="14.00" fill="#000000">Public:</text>
<text text-anchor="start" x="1119.3969" y="-271.3" font-family="Times,serif" font-size="14.00" fill="#000000"> &#160;&#160;&#160;constructor(receiver: address, serviceName: string)</text>
</g>
<!-- 10 -->
<g id="node11" class="node">
<title>10</title>
<polygon fill="#f2f2f2" stroke="#000000" points="355.9067,-.5 355.9067,-158.9 1084.9673,-158.9 1084.9673,-.5 355.9067,-.5"/>
<text text-anchor="middle" x="720.437" y="-142.3" font-family="Times,serif" font-size="14.00" fill="#000000">MintableERC20</text>
<polyline fill="none" stroke="#000000" points="355.9067,-134.1 1084.9673,-134.1 "/>
<text text-anchor="middle" x="720.437" y="-117.5" font-family="Times,serif" font-size="14.00" fill="#000000"> </text>
<polyline fill="none" stroke="#000000" points="355.9067,-109.3 1084.9673,-109.3 "/>
<text text-anchor="start" x="363.9067" y="-92.7" font-family="Times,serif" font-size="14.00" fill="#000000">Internal:</text>
<text text-anchor="start" x="363.9067" y="-75.9" font-family="Times,serif" font-size="14.00" fill="#000000"> &#160;&#160;&#160;_mint(account: address, amount: uint256)</text>
<text text-anchor="start" x="363.9067" y="-59.1" font-family="Times,serif" font-size="14.00" fill="#000000"> &#160;&#160;&#160;_finishMinting()</text>
<text text-anchor="start" x="363.9067" y="-42.3" font-family="Times,serif" font-size="14.00" fill="#000000">Public:</text>
<text text-anchor="start" x="363.9067" y="-25.5" font-family="Times,serif" font-size="14.00" fill="#000000"> &#160;&#160;&#160;constructor(name_: string, symbol_: string, decimals_: uint8, cap_: uint256, initialBalance_: uint256, feeReceiver_: address)</text>
<text text-anchor="start" x="363.9067" y="-8.7" font-family="Times,serif" font-size="14.00" fill="#000000"> &#160;&#160;&#160;decimals(): uint8</text>
</g>
<!-- 10&#45;&gt;1 -->
<g id="edge12" class="edge">
<title>10&#45;&gt;1</title>
<path fill="none" stroke="#000000" d="M355.6581,-150.9836C320.1972,-163.9695 292.2392,-178.7653 278.437,-195.4 192.6569,-298.7842 195.6751,-458.1461 212.505,-571.2456"/>
<polygon fill="none" stroke="#000000" points="202.1877,-573.2143 217.4247,-601.1085 222.9084,-569.8007 202.1877,-573.2143"/>
</g>
<!-- 10&#45;&gt;4 -->
<g id="edge14" class="edge">
<title>10&#45;&gt;4</title>
<path fill="none" stroke="#000000" stroke-dasharray="5,2" d="M384.9556,-158.9522C360.3017,-170.0904 341.2312,-182.2687 331.437,-195.4 266.76,-282.114 263.7472,-354.4168 331.437,-438.8 377.5884,-496.333 428.9335,-439.0328 493.437,-474.8 493.533,-474.8532 493.629,-474.9065 493.725,-474.9599"/>
<polygon fill="#000000" stroke="#000000" points="492.1963,-478.1183 502.6096,-480.071 495.6869,-472.0506 492.1963,-478.1183"/>
</g>
<!-- 10&#45;&gt;5 -->
<g id="edge10" class="edge">
<title>10&#45;&gt;5</title>
<path fill="none" stroke="#000000" d="M637.5118,-159.0808C620.9775,-174.9084 603.3447,-191.7875 585.987,-208.4033"/>
<polygon fill="none" stroke="#000000" points="578.6616,-200.8803 564.2511,-229.2103 593.1831,-216.0502 578.6616,-200.8803"/>
</g>
<!-- 10&#45;&gt;6 -->
<g id="edge9" class="edge">
<title>10&#45;&gt;6</title>
<path fill="none" stroke="#000000" d="M720.437,-159.0808C720.437,-177.3484 720.437,-197.0166 720.437,-216.0641"/>
<polygon fill="none" stroke="#000000" points="709.9371,-216.1755 720.437,-246.1755 730.9371,-216.1756 709.9371,-216.1755"/>
</g>
<!-- 10&#45;&gt;7 -->
<g id="edge11" class="edge">
<title>10&#45;&gt;7</title>
<path fill="none" stroke="#000000" d="M802.0247,-159.0808C807.3585,-164.2703 812.8085,-169.5729 818.327,-174.9422"/>
<polygon fill="none" stroke="#000000" points="811.0273,-182.4897 839.8514,-195.8844 825.6716,-167.4382 811.0273,-182.4897"/>
</g>
<!-- 10&#45;&gt;9 -->
<g id="edge13" class="edge">
<title>10&#45;&gt;9</title>
<path fill="none" stroke="#000000" d="M1017.823,-158.934C1046.9411,-169.8971 1075.608,-182.0432 1102.437,-195.4 1129.6326,-208.9393 1157.1094,-226.8378 1181.7057,-244.7301"/>
<polygon fill="none" stroke="#000000" points="1175.4182,-253.1396 1205.6917,-262.8229 1188.0644,-236.3743 1175.4182,-253.1396"/>
</g>
</g>
</svg>
