<?xml version="1.0" encoding="UTF-8" standalone="no"?>
<!DOCTYPE svg PUBLIC "-//W3C//DTD SVG 1.1//EN"
 "http://www.w3.org/Graphics/SVG/1.1/DTD/svg11.dtd">
<!-- Generated by graphviz version 2.40.1 (20161225.0304)
 -->
<!-- Title: UmlClassDiagram Pages: 1 -->
<svg width="1431pt" height="1335pt"
 viewBox="0.00 0.00 1431.48 1335.40" xmlns="http://www.w3.org/2000/svg" xmlns:xlink="http://www.w3.org/1999/xlink">
<g id="graph0" class="graph" transform="scale(1 1) rotate(0) translate(4 1331.4)">
<title>UmlClassDiagram</title>
<polygon fill="#ffffff" stroke="transparent" points="-4,4 -4,-1331.4 1427.4771,-1331.4 1427.4771,4 -4,4"/>
<!-- 0 -->
<g id="node1" class="node">
<title>0</title>
<polygon fill="#f2f2f2" stroke="#000000" points="550.4878,-914.3 550.4878,-1039.1 708.3862,-1039.1 708.3862,-914.3 550.4878,-914.3"/>
<text text-anchor="middle" x="629.437" y="-1022.5" font-family="Times,serif" font-size="14.00" fill="#000000">&lt;&lt;Abstract&gt;&gt;</text>
<text text-anchor="middle" x="629.437" y="-1005.7" font-family="Times,serif" font-size="14.00" fill="#000000">Context</text>
<polyline fill="none" stroke="#000000" points="550.4878,-997.5 708.3862,-997.5 "/>
<text text-anchor="middle" x="629.437" y="-980.9" font-family="Times,serif" font-size="14.00" fill="#000000"> </text>
<polyline fill="none" stroke="#000000" points="550.4878,-972.7 708.3862,-972.7 "/>
<text text-anchor="start" x="558.4878" y="-956.1" font-family="Times,serif" font-size="14.00" fill="#000000">Internal:</text>
<text text-anchor="start" x="558.4878" y="-939.3" font-family="Times,serif" font-size="14.00" fill="#000000"> &#160;&#160;&#160;_msgSender(): address</text>
<text text-anchor="start" x="558.4878" y="-922.5" font-family="Times,serif" font-size="14.00" fill="#000000"> &#160;&#160;&#160;_msgData(): bytes</text>
</g>
<!-- 1 -->
<g id="node2" class="node">
<title>1</title>
<polygon fill="#f2f2f2" stroke="#000000" points="0,-534.1 0,-742.9 484.874,-742.9 484.874,-534.1 0,-534.1"/>
<text text-anchor="middle" x="242.437" y="-726.3" font-family="Times,serif" font-size="14.00" fill="#000000">&lt;&lt;Abstract&gt;&gt;</text>
<text text-anchor="middle" x="242.437" y="-709.5" font-family="Times,serif" font-size="14.00" fill="#000000">Ownable</text>
<polyline fill="none" stroke="#000000" points="0,-701.3 484.874,-701.3 "/>
<text text-anchor="start" x="8" y="-684.7" font-family="Times,serif" font-size="14.00" fill="#000000">Private:</text>
<text text-anchor="start" x="8" y="-667.9" font-family="Times,serif" font-size="14.00" fill="#000000"> &#160;&#160;_owner: address</text>
<polyline fill="none" stroke="#000000" points="0,-659.7 484.874,-659.7 "/>
<text text-anchor="start" x="8" y="-643.1" font-family="Times,serif" font-size="14.00" fill="#000000">Public:</text>
<text text-anchor="start" x="8" y="-626.3" font-family="Times,serif" font-size="14.00" fill="#000000"> &#160;&#160;&#160;&lt;&lt;event&gt;&gt; OwnershipTransferred(previousOwner: address, newOwner: address)</text>
<text text-anchor="start" x="8" y="-609.5" font-family="Times,serif" font-size="14.00" fill="#000000"> &#160;&#160;&#160;&lt;&lt;modifier&gt;&gt; onlyOwner()</text>
<text text-anchor="start" x="8" y="-592.7" font-family="Times,serif" font-size="14.00" fill="#000000"> &#160;&#160;&#160;constructor()</text>
<text text-anchor="start" x="8" y="-575.9" font-family="Times,serif" font-size="14.00" fill="#000000"> &#160;&#160;&#160;owner(): address</text>
<text text-anchor="start" x="8" y="-559.1" font-family="Times,serif" font-size="14.00" fill="#000000"> &#160;&#160;&#160;renounceOwnership()</text>
<text text-anchor="start" x="8" y="-542.3" font-family="Times,serif" font-size="14.00" fill="#000000"> &#160;&#160;&#160;transferOwnership(newOwner: address)</text>
</g>
<!-- 1&#45;&gt;0 -->
<g id="edge1" class="edge">
<title>1&#45;&gt;0</title>
<path fill="none" stroke="#000000" d="M352.3233,-742.9277C395.6353,-783.2002 446.2338,-829.1672 493.437,-869.4 504.0321,-878.4305 515.2421,-887.7034 526.4983,-896.8359"/>
<polygon fill="none" stroke="#000000" points="520.2525,-905.2862 550.2298,-915.8509 533.3837,-888.898 520.2525,-905.2862"/>
</g>
<!-- 2 -->
<g id="node3" class="node">
<title>2</title>
<polygon fill="#f2f2f2" stroke="#000000" points="772.1371,-1084.5 772.1371,-1326.9 1210.7369,-1326.9 1210.7369,-1084.5 772.1371,-1084.5"/>
<text text-anchor="middle" x="991.437" y="-1310.3" font-family="Times,serif" font-size="14.00" fill="#000000">&lt;&lt;Interface&gt;&gt;</text>
<text text-anchor="middle" x="991.437" y="-1293.5" font-family="Times,serif" font-size="14.00" fill="#000000">IERC20</text>
<polyline fill="none" stroke="#000000" points="772.1371,-1285.3 1210.7369,-1285.3 "/>
<text text-anchor="middle" x="991.437" y="-1268.7" font-family="Times,serif" font-size="14.00" fill="#000000"> </text>
<polyline fill="none" stroke="#000000" points="772.1371,-1260.5 1210.7369,-1260.5 "/>
<text text-anchor="start" x="780.1371" y="-1243.9" font-family="Times,serif" font-size="14.00" fill="#000000">External:</text>
<text text-anchor="start" x="780.1371" y="-1227.1" font-family="Times,serif" font-size="14.00" fill="#000000"> &#160;&#160;&#160;&#160;totalSupply(): uint256</text>
<text text-anchor="start" x="780.1371" y="-1210.3" font-family="Times,serif" font-size="14.00" fill="#000000"> &#160;&#160;&#160;&#160;balanceOf(account: address): uint256</text>
<text text-anchor="start" x="780.1371" y="-1193.5" font-family="Times,serif" font-size="14.00" fill="#000000"> &#160;&#160;&#160;&#160;transfer(recipient: address, amount: uint256): bool</text>
<text text-anchor="start" x="780.1371" y="-1176.7" font-family="Times,serif" font-size="14.00" fill="#000000"> &#160;&#160;&#160;&#160;allowance(owner: address, spender: address): uint256</text>
<text text-anchor="start" x="780.1371" y="-1159.9" font-family="Times,serif" font-size="14.00" fill="#000000"> &#160;&#160;&#160;&#160;approve(spender: address, amount: uint256): bool</text>
<text text-anchor="start" x="780.1371" y="-1143.1" font-family="Times,serif" font-size="14.00" fill="#000000"> &#160;&#160;&#160;&#160;transferFrom(sender: address, recipient: address, amount: uint256): bool</text>
<text text-anchor="start" x="780.1371" y="-1126.3" font-family="Times,serif" font-size="14.00" fill="#000000">Public:</text>
<text text-anchor="start" x="780.1371" y="-1109.5" font-family="Times,serif" font-size="14.00" fill="#000000"> &#160;&#160;&#160;&lt;&lt;event&gt;&gt; Transfer(from: address, to: address, value: uint256)</text>
<text text-anchor="start" x="780.1371" y="-1092.7" font-family="Times,serif" font-size="14.00" fill="#000000"> &#160;&#160;&#160;&lt;&lt;event&gt;&gt; Approval(owner: address, spender: address, value: uint256)</text>
</g>
<!-- 3 -->
<g id="node4" class="node">
<title>3</title>
<polygon fill="#f2f2f2" stroke="#000000" points="973.0604,-905.9 973.0604,-1047.5 1101.8136,-1047.5 1101.8136,-905.9 973.0604,-905.9"/>
<text text-anchor="middle" x="1037.437" y="-1030.9" font-family="Times,serif" font-size="14.00" fill="#000000">&lt;&lt;Interface&gt;&gt;</text>
<text text-anchor="middle" x="1037.437" y="-1014.1" font-family="Times,serif" font-size="14.00" fill="#000000">IERC20Metadata</text>
<polyline fill="none" stroke="#000000" points="973.0604,-1005.9 1101.8136,-1005.9 "/>
<text text-anchor="middle" x="1037.437" y="-989.3" font-family="Times,serif" font-size="14.00" fill="#000000"> </text>
<polyline fill="none" stroke="#000000" points="973.0604,-981.1 1101.8136,-981.1 "/>
<text text-anchor="start" x="981.0604" y="-964.5" font-family="Times,serif" font-size="14.00" fill="#000000">External:</text>
<text text-anchor="start" x="981.0604" y="-947.7" font-family="Times,serif" font-size="14.00" fill="#000000"> &#160;&#160;&#160;&#160;name(): string</text>
<text text-anchor="start" x="981.0604" y="-930.9" font-family="Times,serif" font-size="14.00" fill="#000000"> &#160;&#160;&#160;&#160;symbol(): string</text>
<text text-anchor="start" x="981.0604" y="-914.1" font-family="Times,serif" font-size="14.00" fill="#000000"> &#160;&#160;&#160;&#160;decimals(): uint8</text>
</g>
<!-- 3&#45;&gt;2 -->
<g id="edge2" class="edge">
<title>3&#45;&gt;2</title>
<path fill="none" stroke="#000000" stroke-dasharray="5,2" d="M1023.1973,-1047.5888C1022.7387,-1049.8721 1022.2745,-1052.1827 1021.8058,-1054.516"/>
<polygon fill="none" stroke="#000000" points="1011.4571,-1052.7191 1015.8432,-1084.1994 1032.0459,-1056.8548 1011.4571,-1052.7191"/>
</g>
<!-- 4 -->
<g id="node5" class="node">
<title>4</title>
<polygon fill="#f2f2f2" stroke="#000000" points="773.8871,-408.1 773.8871,-868.9 1208.9869,-868.9 1208.9869,-408.1 773.8871,-408.1"/>
<text text-anchor="middle" x="991.437" y="-852.3" font-family="Times,serif" font-size="14.00" fill="#000000">ERC20</text>
<polyline fill="none" stroke="#000000" points="773.8871,-844.1 1208.9869,-844.1 "/>
<text text-anchor="start" x="781.8871" y="-827.5" font-family="Times,serif" font-size="14.00" fill="#000000">Private:</text>
<text text-anchor="start" x="781.8871" y="-810.7" font-family="Times,serif" font-size="14.00" fill="#000000"> &#160;&#160;_balances: mapping(address=&gt;uint256)</text>
<text text-anchor="start" x="781.8871" y="-793.9" font-family="Times,serif" font-size="14.00" fill="#000000"> &#160;&#160;_allowances: mapping(address=&gt;mapping(address=&gt;uint256))</text>
<text text-anchor="start" x="781.8871" y="-777.1" font-family="Times,serif" font-size="14.00" fill="#000000"> &#160;&#160;_totalSupply: uint256</text>
<text text-anchor="start" x="781.8871" y="-760.3" font-family="Times,serif" font-size="14.00" fill="#000000"> &#160;&#160;_name: string</text>
<text text-anchor="start" x="781.8871" y="-743.5" font-family="Times,serif" font-size="14.00" fill="#000000"> &#160;&#160;_symbol: string</text>
<polyline fill="none" stroke="#000000" points="773.8871,-735.3 1208.9869,-735.3 "/>
<text text-anchor="start" x="781.8871" y="-718.7" font-family="Times,serif" font-size="14.00" fill="#000000">Internal:</text>
<text text-anchor="start" x="781.8871" y="-701.9" font-family="Times,serif" font-size="14.00" fill="#000000"> &#160;&#160;&#160;_transfer(sender: address, recipient: address, amount: uint256)</text>
<text text-anchor="start" x="781.8871" y="-685.1" font-family="Times,serif" font-size="14.00" fill="#000000"> &#160;&#160;&#160;_mint(account: address, amount: uint256)</text>
<text text-anchor="start" x="781.8871" y="-668.3" font-family="Times,serif" font-size="14.00" fill="#000000"> &#160;&#160;&#160;_burn(account: address, amount: uint256)</text>
<text text-anchor="start" x="781.8871" y="-651.5" font-family="Times,serif" font-size="14.00" fill="#000000"> &#160;&#160;&#160;_approve(owner: address, spender: address, amount: uint256)</text>
<text text-anchor="start" x="781.8871" y="-634.7" font-family="Times,serif" font-size="14.00" fill="#000000"> &#160;&#160;&#160;_beforeTokenTransfer(from: address, to: address, amount: uint256)</text>
<text text-anchor="start" x="781.8871" y="-617.9" font-family="Times,serif" font-size="14.00" fill="#000000">Public:</text>
<text text-anchor="start" x="781.8871" y="-601.1" font-family="Times,serif" font-size="14.00" fill="#000000"> &#160;&#160;&#160;constructor(name_: string, symbol_: string)</text>
<text text-anchor="start" x="781.8871" y="-584.3" font-family="Times,serif" font-size="14.00" fill="#000000"> &#160;&#160;&#160;name(): string</text>
<text text-anchor="start" x="781.8871" y="-567.5" font-family="Times,serif" font-size="14.00" fill="#000000"> &#160;&#160;&#160;symbol(): string</text>
<text text-anchor="start" x="781.8871" y="-550.7" font-family="Times,serif" font-size="14.00" fill="#000000"> &#160;&#160;&#160;decimals(): uint8</text>
<text text-anchor="start" x="781.8871" y="-533.9" font-family="Times,serif" font-size="14.00" fill="#000000"> &#160;&#160;&#160;totalSupply(): uint256</text>
<text text-anchor="start" x="781.8871" y="-517.1" font-family="Times,serif" font-size="14.00" fill="#000000"> &#160;&#160;&#160;balanceOf(account: address): uint256</text>
<text text-anchor="start" x="781.8871" y="-500.3" font-family="Times,serif" font-size="14.00" fill="#000000"> &#160;&#160;&#160;transfer(recipient: address, amount: uint256): bool</text>
<text text-anchor="start" x="781.8871" y="-483.5" font-family="Times,serif" font-size="14.00" fill="#000000"> &#160;&#160;&#160;allowance(owner: address, spender: address): uint256</text>
<text text-anchor="start" x="781.8871" y="-466.7" font-family="Times,serif" font-size="14.00" fill="#000000"> &#160;&#160;&#160;approve(spender: address, amount: uint256): bool</text>
<text text-anchor="start" x="781.8871" y="-449.9" font-family="Times,serif" font-size="14.00" fill="#000000"> &#160;&#160;&#160;transferFrom(sender: address, recipient: address, amount: uint256): bool</text>
<text text-anchor="start" x="781.8871" y="-433.1" font-family="Times,serif" font-size="14.00" fill="#000000"> &#160;&#160;&#160;increaseAllowance(spender: address, addedValue: uint256): bool</text>
<text text-anchor="start" x="781.8871" y="-416.3" font-family="Times,serif" font-size="14.00" fill="#000000"> &#160;&#160;&#160;decreaseAllowance(spender: address, subtractedValue: uint256): bool</text>
</g>
<!-- 4&#45;&gt;0 -->
<g id="edge3" class="edge">
<title>4&#45;&gt;0</title>
<path fill="none" stroke="#000000" d="M773.5946,-862.0165C770.8689,-864.5009 768.1489,-866.963 765.437,-869.4 754.8113,-878.9485 743.4465,-888.6476 731.9828,-898.1128"/>
<polygon fill="none" stroke="#000000" points="725.2417,-890.0605 708.5181,-917.0897 738.4472,-906.389 725.2417,-890.0605"/>
</g>
<!-- 4&#45;&gt;2 -->
<g id="edge4" class="edge">
<title>4&#45;&gt;2</title>
<path fill="none" stroke="#000000" stroke-dasharray="5,2" d="M964.0665,-868.9968C960.4729,-927.4267 959.5122,-990.0526 964.437,-1048 964.6088,-1050.0217 964.7928,-1052.0565 964.9882,-1054.1018"/>
<polygon fill="none" stroke="#000000" points="954.5878,-1055.5662 968.5083,-1084.1401 975.4451,-1053.1219 954.5878,-1055.5662"/>
</g>
<!-- 4&#45;&gt;3 -->
<g id="edge5" class="edge">
<title>4&#45;&gt;3</title>
<path fill="none" stroke="#000000" stroke-dasharray="5,2" d="M1022.8191,-869.2267C1023.1188,-871.43 1023.4163,-873.617 1023.7113,-875.7861"/>
<polygon fill="none" stroke="#000000" points="1013.3304,-877.3735 1027.7779,-905.6847 1034.1388,-874.5432 1013.3304,-877.3735"/>
</g>
<!-- 5 -->
<g id="node6" class="node">
<title>5</title>
<polygon fill="#f2f2f2" stroke="#000000" points="502.6351,-508.9 502.6351,-768.1 756.2389,-768.1 756.2389,-508.9 502.6351,-508.9"/>
<text text-anchor="middle" x="629.437" y="-751.5" font-family="Times,serif" font-size="14.00" fill="#000000">&lt;&lt;Abstract&gt;&gt;</text>
<text text-anchor="middle" x="629.437" y="-734.7" font-family="Times,serif" font-size="14.00" fill="#000000">Pausable</text>
<polyline fill="none" stroke="#000000" points="502.6351,-726.5 756.2389,-726.5 "/>
<text text-anchor="start" x="510.6351" y="-709.9" font-family="Times,serif" font-size="14.00" fill="#000000">Private:</text>
<text text-anchor="start" x="510.6351" y="-693.1" font-family="Times,serif" font-size="14.00" fill="#000000"> &#160;&#160;_paused: bool</text>
<polyline fill="none" stroke="#000000" points="502.6351,-684.9 756.2389,-684.9 "/>
<text text-anchor="start" x="510.6351" y="-668.3" font-family="Times,serif" font-size="14.00" fill="#000000">Internal:</text>
<text text-anchor="start" x="510.6351" y="-651.5" font-family="Times,serif" font-size="14.00" fill="#000000"> &#160;&#160;&#160;_pause()</text>
<text text-anchor="start" x="510.6351" y="-634.7" font-family="Times,serif" font-size="14.00" fill="#000000"> &#160;&#160;&#160;_unpause()</text>
<text text-anchor="start" x="510.6351" y="-617.9" font-family="Times,serif" font-size="14.00" fill="#000000">Public:</text>
<text text-anchor="start" x="510.6351" y="-601.1" font-family="Times,serif" font-size="14.00" fill="#000000"> &#160;&#160;&#160;&lt;&lt;event&gt;&gt; Paused(account: address)</text>
<text text-anchor="start" x="510.6351" y="-584.3" font-family="Times,serif" font-size="14.00" fill="#000000"> &#160;&#160;&#160;&lt;&lt;event&gt;&gt; Unpaused(account: address)</text>
<text text-anchor="start" x="510.6351" y="-567.5" font-family="Times,serif" font-size="14.00" fill="#000000"> &#160;&#160;&#160;&lt;&lt;modifier&gt;&gt; whenNotPaused()</text>
<text text-anchor="start" x="510.6351" y="-550.7" font-family="Times,serif" font-size="14.00" fill="#000000"> &#160;&#160;&#160;&lt;&lt;modifier&gt;&gt; whenPaused()</text>
<text text-anchor="start" x="510.6351" y="-533.9" font-family="Times,serif" font-size="14.00" fill="#000000"> &#160;&#160;&#160;constructor()</text>
<text text-anchor="start" x="510.6351" y="-517.1" font-family="Times,serif" font-size="14.00" fill="#000000"> &#160;&#160;&#160;paused(): bool</text>
</g>
<!-- 5&#45;&gt;0 -->
<g id="edge6" class="edge">
<title>5&#45;&gt;0</title>
<path fill="none" stroke="#000000" d="M629.437,-768.2897C629.437,-806.9478 629.437,-848.5076 629.437,-884.2656"/>
<polygon fill="none" stroke="#000000" points="618.9371,-884.2871 629.437,-914.2871 639.9371,-884.2871 618.9371,-884.2871"/>
</g>
<!-- 6 -->
<g id="node7" class="node">
<title>6</title>
<polygon fill="#f2f2f2" stroke="#000000" points="467.3089,-246.3 467.3089,-354.3 875.5651,-354.3 875.5651,-246.3 467.3089,-246.3"/>
<text text-anchor="middle" x="671.437" y="-337.7" font-family="Times,serif" font-size="14.00" fill="#000000">&lt;&lt;Abstract&gt;&gt;</text>
<text text-anchor="middle" x="671.437" y="-320.9" font-family="Times,serif" font-size="14.00" fill="#000000">ERC20Pausable</text>
<polyline fill="none" stroke="#000000" points="467.3089,-312.7 875.5651,-312.7 "/>
<text text-anchor="middle" x="671.437" y="-296.1" font-family="Times,serif" font-size="14.00" fill="#000000"> </text>
<polyline fill="none" stroke="#000000" points="467.3089,-287.9 875.5651,-287.9 "/>
<text text-anchor="start" x="475.3089" y="-271.3" font-family="Times,serif" font-size="14.00" fill="#000000">Internal:</text>
<text text-anchor="start" x="475.3089" y="-254.5" font-family="Times,serif" font-size="14.00" fill="#000000"> &#160;&#160;&#160;_beforeTokenTransfer(from: address, to: address, amount: uint256)</text>
</g>
<!-- 6&#45;&gt;4 -->
<g id="edge7" class="edge">
<title>6&#45;&gt;4</title>
<path fill="none" stroke="#000000" d="M722.8505,-354.6377C732.0644,-364.3756 742.188,-375.075 752.9403,-386.4388"/>
<polygon fill="none" stroke="#000000" points="745.3606,-393.7054 773.6064,-408.2803 760.6146,-379.2722 745.3606,-393.7054"/>
</g>
<!-- 6&#45;&gt;5 -->
<g id="edge8" class="edge">
<title>6&#45;&gt;5</title>
<path fill="none" stroke="#000000" d="M664.689,-354.6377C660.4768,-388.5557 654.8162,-434.137 649.2651,-478.8364"/>
<polygon fill="none" stroke="#000000" points="638.8318,-477.6506 645.5545,-508.7159 659.6717,-480.2387 638.8318,-477.6506"/>
</g>
<!-- 7 -->
<g id="node8" class="node">
<title>7</title>
<polygon fill="#f2f2f2" stroke="#000000" points="893.8223,-229.5 893.8223,-371.1 1089.0517,-371.1 1089.0517,-229.5 893.8223,-229.5"/>
<text text-anchor="middle" x="991.437" y="-354.5" font-family="Times,serif" font-size="14.00" fill="#000000">&lt;&lt;Abstract&gt;&gt;</text>
<text text-anchor="middle" x="991.437" y="-337.7" font-family="Times,serif" font-size="14.00" fill="#000000">ERC20Decimals</text>
<polyline fill="none" stroke="#000000" points="893.8223,-329.5 1089.0517,-329.5 "/>
<text text-anchor="start" x="901.8223" y="-312.9" font-family="Times,serif" font-size="14.00" fill="#000000">Private:</text>
<text text-anchor="start" x="901.8223" y="-296.1" font-family="Times,serif" font-size="14.00" fill="#000000"> &#160;&#160;_decimals: uint8</text>
<polyline fill="none" stroke="#000000" points="893.8223,-287.9 1089.0517,-287.9 "/>
<text text-anchor="start" x="901.8223" y="-271.3" font-family="Times,serif" font-size="14.00" fill="#000000">Public:</text>
<text text-anchor="start" x="901.8223" y="-254.5" font-family="Times,serif" font-size="14.00" fill="#000000"> &#160;&#160;&#160;constructor(decimals_: uint8)</text>
<text text-anchor="start" x="901.8223" y="-237.7" font-family="Times,serif" font-size="14.00" fill="#000000"> &#160;&#160;&#160;decimals(): uint8</text>
</g>
<!-- 7&#45;&gt;4 -->
<g id="edge9" class="edge">
<title>7&#45;&gt;4</title>
<path fill="none" stroke="#000000" d="M991.437,-371.1978C991.437,-373.3405 991.437,-375.5155 991.437,-377.7202"/>
<polygon fill="none" stroke="#000000" points="980.9371,-377.8659 991.437,-407.8659 1001.9371,-377.8659 980.9371,-377.8659"/>
</g>
<!-- 8 -->
<g id="node9" class="node">
<title>8</title>
<polygon fill="#f2f2f2" stroke="#000000" points="1171.7476,-42.5 1171.7476,-150.5 1347.1264,-150.5 1347.1264,-42.5 1171.7476,-42.5"/>
<text text-anchor="middle" x="1259.437" y="-133.9" font-family="Times,serif" font-size="14.00" fill="#000000">&lt;&lt;Interface&gt;&gt;</text>
<text text-anchor="middle" x="1259.437" y="-117.1" font-family="Times,serif" font-size="14.00" fill="#000000">IPayable</text>
<polyline fill="none" stroke="#000000" points="1171.7476,-108.9 1347.1264,-108.9 "/>
<text text-anchor="middle" x="1259.437" y="-92.3" font-family="Times,serif" font-size="14.00" fill="#000000"> </text>
<polyline fill="none" stroke="#000000" points="1171.7476,-84.1 1347.1264,-84.1 "/>
<text text-anchor="start" x="1179.7476" y="-67.5" font-family="Times,serif" font-size="14.00" fill="#000000">External:</text>
<text text-anchor="start" x="1179.7476" y="-50.7" font-family="Times,serif" font-size="14.00" fill="#000000"> &#160;&#160;&#160;&#160;pay(serviceName: string)</text>
</g>
<!-- 9 -->
<g id="node10" class="node">
<title>9</title>
<polygon fill="#f2f2f2" stroke="#000000" points="1107.3969,-246.3 1107.3969,-354.3 1423.4771,-354.3 1423.4771,-246.3 1107.3969,-246.3"/>
<text text-anchor="middle" x="1265.437" y="-337.7" font-family="Times,serif" font-size="14.00" fill="#000000">&lt;&lt;Abstract&gt;&gt;</text>
<text text-anchor="middle" x="1265.437" y="-320.9" font-family="Times,serif" font-size="14.00" fill="#000000">ServicePayer</text>
<polyline fill="none" stroke="#000000" points="1107.3969,-312.7 1423.4771,-312.7 "/>
<text text-anchor="middle" x="1265.437" y="-296.1" font-family="Times,serif" font-size="14.00" fill="#000000"> </text>
<polyline fill="none" stroke="#000000" points="1107.3969,-287.9 1423.4771,-287.9 "/>
<text text-anchor="start" x="1115.3969" y="-271.3" font-family="Times,serif" font-size="14.00" fill="#000000">Public:</text>
<text text-anchor="start" x="1115.3969" y="-254.5" font-family="Times,serif" font-size="14.00" fill="#000000"> &#160;&#160;&#160;constructor(receiver: address, serviceName: string)</text>
</g>
<!-- 10 -->
<g id="node11" class="node">
<title>10</title>
<polygon fill="#f2f2f2" stroke="#000000" points="508.7072,-.5 508.7072,-192.5 1154.1668,-192.5 1154.1668,-.5 508.7072,-.5"/>
<text text-anchor="middle" x="831.437" y="-175.9" font-family="Times,serif" font-size="14.00" fill="#000000">PausableERC20</text>
<polyline fill="none" stroke="#000000" points="508.7072,-167.7 1154.1668,-167.7 "/>
<text text-anchor="middle" x="831.437" y="-151.1" font-family="Times,serif" font-size="14.00" fill="#000000"> </text>
<polyline fill="none" stroke="#000000" points="508.7072,-142.9 1154.1668,-142.9 "/>
<text text-anchor="start" x="516.7072" y="-126.3" font-family="Times,serif" font-size="14.00" fill="#000000">Internal:</text>
<text text-anchor="start" x="516.7072" y="-109.5" font-family="Times,serif" font-size="14.00" fill="#000000"> &#160;&#160;&#160;_beforeTokenTransfer(from: address, to: address, amount: uint256)</text>
<text text-anchor="start" x="516.7072" y="-92.7" font-family="Times,serif" font-size="14.00" fill="#000000">External:</text>
<text text-anchor="start" x="516.7072" y="-75.9" font-family="Times,serif" font-size="14.00" fill="#000000"> &#160;&#160;&#160;pause()</text>
<text text-anchor="start" x="516.7072" y="-59.1" font-family="Times,serif" font-size="14.00" fill="#000000"> &#160;&#160;&#160;unpause()</text>
<text text-anchor="start" x="516.7072" y="-42.3" font-family="Times,serif" font-size="14.00" fill="#000000">Public:</text>
<text text-anchor="start" x="516.7072" y="-25.5" font-family="Times,serif" font-size="14.00" fill="#000000"> &#160;&#160;&#160;constructor(name_: string, symbol_: string, decimals_: uint8, initialBalance_: uint256, feeReceiver_: address)</text>
<text text-anchor="start" x="516.7072" y="-8.7" font-family="Times,serif" font-size="14.00" fill="#000000"> &#160;&#160;&#160;decimals(): uint8</text>
</g>
<!-- 10&#45;&gt;1 -->
<g id="edge12" class="edge">
<title>10&#45;&gt;1</title>
<path fill="none" stroke="#000000" d="M508.6036,-192.6982C490.8001,-203.5628 473.8964,-215.6214 458.437,-229 374.07,-302.0115 317.6888,-416.243 283.749,-505.527"/>
<polygon fill="none" stroke="#000000" points="273.8323,-502.0724 273.4061,-533.854 293.5586,-509.2749 273.8323,-502.0724"/>
</g>
<!-- 10&#45;&gt;6 -->
<g id="edge11" class="edge">
<title>10&#45;&gt;6</title>
<path fill="none" stroke="#000000" d="M755.8881,-192.7304C748.1243,-202.6196 740.3044,-212.5802 732.7221,-222.2381"/>
<polygon fill="none" stroke="#000000" points="724.2434,-216.0343 713.9768,-246.115 740.7611,-229.0021 724.2434,-216.0343"/>
</g>
<!-- 10&#45;&gt;7 -->
<g id="edge10" class="edge">
<title>10&#45;&gt;7</title>
<path fill="none" stroke="#000000" d="M906.9859,-192.7304C910.3994,-197.0784 913.8238,-201.4401 917.234,-205.7839"/>
<polygon fill="none" stroke="#000000" points="909.0187,-212.3234 935.8031,-229.4363 925.5365,-199.3556 909.0187,-212.3234"/>
</g>
<!-- 10&#45;&gt;9 -->
<g id="edge13" class="edge">
<title>10&#45;&gt;9</title>
<path fill="none" stroke="#000000" d="M1036.046,-192.5814C1065.3006,-206.3189 1094.8565,-220.1979 1122.5776,-233.2154"/>
<polygon fill="none" stroke="#000000" points="1118.5395,-242.9191 1150.1577,-246.1665 1127.4657,-223.9106 1118.5395,-242.9191"/>
</g>
</g>
</svg>
