<?xml version="1.0" encoding="UTF-8" standalone="no"?>
<!DOCTYPE svg PUBLIC "-//W3C//DTD SVG 1.1//EN"
 "http://www.w3.org/Graphics/SVG/1.1/DTD/svg11.dtd">
<!-- Generated by graphviz version 2.40.1 (20161225.0304)
 -->
<!-- Title: UmlClassDiagram Pages: 1 -->
<svg width="1638pt" height="1335pt"
 viewBox="0.00 0.00 1638.48 1335.40" xmlns="http://www.w3.org/2000/svg" xmlns:xlink="http://www.w3.org/1999/xlink">
<g id="graph0" class="graph" transform="scale(1 1) rotate(0) translate(4 1331.4)">
<title>UmlClassDiagram</title>
<polygon fill="#ffffff" stroke="transparent" points="-4,4 -4,-1331.4 1634.4771,-1331.4 1634.4771,4 -4,4"/>
<!-- 0 -->
<g id="node1" class="node">
<title>0</title>
<polygon fill="#f2f2f2" stroke="#000000" points="511.4878,-914.3 511.4878,-1039.1 669.3862,-1039.1 669.3862,-914.3 511.4878,-914.3"/>
<text text-anchor="middle" x="590.437" y="-1022.5" font-family="Times,serif" font-size="14.00" fill="#000000">&lt;&lt;Abstract&gt;&gt;</text>
<text text-anchor="middle" x="590.437" y="-1005.7" font-family="Times,serif" font-size="14.00" fill="#000000">Context</text>
<polyline fill="none" stroke="#000000" points="511.4878,-997.5 669.3862,-997.5 "/>
<text text-anchor="middle" x="590.437" y="-980.9" font-family="Times,serif" font-size="14.00" fill="#000000"> </text>
<polyline fill="none" stroke="#000000" points="511.4878,-972.7 669.3862,-972.7 "/>
<text text-anchor="start" x="519.4878" y="-956.1" font-family="Times,serif" font-size="14.00" fill="#000000">Internal:</text>
<text text-anchor="start" x="519.4878" y="-939.3" font-family="Times,serif" font-size="14.00" fill="#000000"> &#160;&#160;&#160;_msgSender(): address</text>
<text text-anchor="start" x="519.4878" y="-922.5" font-family="Times,serif" font-size="14.00" fill="#000000"> &#160;&#160;&#160;_msgData(): bytes</text>
</g>
<!-- 1 -->
<g id="node2" class="node">
<title>1</title>
<polygon fill="#f2f2f2" stroke="#000000" points="0,-534.1 0,-742.9 484.874,-742.9 484.874,-534.1 0,-534.1"/>
<text text-anchor="middle" x="242.437" y="-726.3" font-family="Times,serif" font-size="14.00" fill="#000000">&lt;&lt;Abstract&gt;&gt;</text>
<text text-anchor="middle" x="242.437" y="-709.5" font-family="Times,serif" font-size="14.00" fill="#000000">Ownable</text>
<polyline fill="none" stroke="#000000" points="0,-701.3 484.874,-701.3 "/>
<text text-anchor="start" x="8" y="-684.7" font-family="Times,serif" font-size="14.00" fill="#000000">Private:</text>
<text text-anchor="start" x="8" y="-667.9" font-family="Times,serif" font-size="14.00" fill="#000000"> &#160;&#160;_owner: address</text>
<polyline fill="none" stroke="#000000" points="0,-659.7 484.874,-659.7 "/>
<text text-anchor="start" x="8" y="-643.1" font-family="Times,serif" font-size="14.00" fill="#000000">Public:</text>
<text text-anchor="start" x="8" y="-626.3" font-family="Times,serif" font-size="14.00" fill="#000000"> &#160;&#160;&#160;&lt;&lt;event&gt;&gt; OwnershipTransferred(previousOwner: address, newOwner: address)</text>
<text text-anchor="start" x="8" y="-609.5" font-family="Times,serif" font-size="14.00" fill="#000000"> &#160;&#160;&#160;&lt;&lt;modifier&gt;&gt; onlyOwner()</text>
<text text-anchor="start" x="8" y="-592.7" font-family="Times,serif" font-size="14.00" fill="#000000"> &#160;&#160;&#160;constructor()</text>
<text text-anchor="start" x="8" y="-575.9" font-family="Times,serif" font-size="14.00" fill="#000000"> &#160;&#160;&#160;owner(): address</text>
<text text-anchor="start" x="8" y="-559.1" font-family="Times,serif" font-size="14.00" fill="#000000"> &#160;&#160;&#160;renounceOwnership()</text>
<text text-anchor="start" x="8" y="-542.3" font-family="Times,serif" font-size="14.00" fill="#000000"> &#160;&#160;&#160;transferOwnership(newOwner: address)</text>
</g>
<!-- 1&#45;&gt;0 -->
<g id="edge1" class="edge">
<title>1&#45;&gt;0</title>
<path fill="none" stroke="#000000" d="M350.1632,-743.1925C399.7667,-791.3991 457.8185,-847.8162 504.4338,-893.1187"/>
<polygon fill="none" stroke="#000000" points="497.1445,-900.6764 525.9764,-914.0546 511.7802,-885.6166 497.1445,-900.6764"/>
</g>
<!-- 2 -->
<g id="node3" class="node">
<title>2</title>
<polygon fill="#f2f2f2" stroke="#000000" points="810.1371,-1084.5 810.1371,-1326.9 1248.7369,-1326.9 1248.7369,-1084.5 810.1371,-1084.5"/>
<text text-anchor="middle" x="1029.437" y="-1310.3" font-family="Times,serif" font-size="14.00" fill="#000000">&lt;&lt;Interface&gt;&gt;</text>
<text text-anchor="middle" x="1029.437" y="-1293.5" font-family="Times,serif" font-size="14.00" fill="#000000">IERC20</text>
<polyline fill="none" stroke="#000000" points="810.1371,-1285.3 1248.7369,-1285.3 "/>
<text text-anchor="middle" x="1029.437" y="-1268.7" font-family="Times,serif" font-size="14.00" fill="#000000"> </text>
<polyline fill="none" stroke="#000000" points="810.1371,-1260.5 1248.7369,-1260.5 "/>
<text text-anchor="start" x="818.1371" y="-1243.9" font-family="Times,serif" font-size="14.00" fill="#000000">External:</text>
<text text-anchor="start" x="818.1371" y="-1227.1" font-family="Times,serif" font-size="14.00" fill="#000000"> &#160;&#160;&#160;&#160;totalSupply(): uint256</text>
<text text-anchor="start" x="818.1371" y="-1210.3" font-family="Times,serif" font-size="14.00" fill="#000000"> &#160;&#160;&#160;&#160;balanceOf(account: address): uint256</text>
<text text-anchor="start" x="818.1371" y="-1193.5" font-family="Times,serif" font-size="14.00" fill="#000000"> &#160;&#160;&#160;&#160;transfer(recipient: address, amount: uint256): bool</text>
<text text-anchor="start" x="818.1371" y="-1176.7" font-family="Times,serif" font-size="14.00" fill="#000000"> &#160;&#160;&#160;&#160;allowance(owner: address, spender: address): uint256</text>
<text text-anchor="start" x="818.1371" y="-1159.9" font-family="Times,serif" font-size="14.00" fill="#000000"> &#160;&#160;&#160;&#160;approve(spender: address, amount: uint256): bool</text>
<text text-anchor="start" x="818.1371" y="-1143.1" font-family="Times,serif" font-size="14.00" fill="#000000"> &#160;&#160;&#160;&#160;transferFrom(sender: address, recipient: address, amount: uint256): bool</text>
<text text-anchor="start" x="818.1371" y="-1126.3" font-family="Times,serif" font-size="14.00" fill="#000000">Public:</text>
<text text-anchor="start" x="818.1371" y="-1109.5" font-family="Times,serif" font-size="14.00" fill="#000000"> &#160;&#160;&#160;&lt;&lt;event&gt;&gt; Transfer(from: address, to: address, value: uint256)</text>
<text text-anchor="start" x="818.1371" y="-1092.7" font-family="Times,serif" font-size="14.00" fill="#000000"> &#160;&#160;&#160;&lt;&lt;event&gt;&gt; Approval(owner: address, spender: address, value: uint256)</text>
</g>
<!-- 3 -->
<g id="node4" class="node">
<title>3</title>
<polygon fill="#f2f2f2" stroke="#000000" points="919.0604,-905.9 919.0604,-1047.5 1047.8136,-1047.5 1047.8136,-905.9 919.0604,-905.9"/>
<text text-anchor="middle" x="983.437" y="-1030.9" font-family="Times,serif" font-size="14.00" fill="#000000">&lt;&lt;Interface&gt;&gt;</text>
<text text-anchor="middle" x="983.437" y="-1014.1" font-family="Times,serif" font-size="14.00" fill="#000000">IERC20Metadata</text>
<polyline fill="none" stroke="#000000" points="919.0604,-1005.9 1047.8136,-1005.9 "/>
<text text-anchor="middle" x="983.437" y="-989.3" font-family="Times,serif" font-size="14.00" fill="#000000"> </text>
<polyline fill="none" stroke="#000000" points="919.0604,-981.1 1047.8136,-981.1 "/>
<text text-anchor="start" x="927.0604" y="-964.5" font-family="Times,serif" font-size="14.00" fill="#000000">External:</text>
<text text-anchor="start" x="927.0604" y="-947.7" font-family="Times,serif" font-size="14.00" fill="#000000"> &#160;&#160;&#160;&#160;name(): string</text>
<text text-anchor="start" x="927.0604" y="-930.9" font-family="Times,serif" font-size="14.00" fill="#000000"> &#160;&#160;&#160;&#160;symbol(): string</text>
<text text-anchor="start" x="927.0604" y="-914.1" font-family="Times,serif" font-size="14.00" fill="#000000"> &#160;&#160;&#160;&#160;decimals(): uint8</text>
</g>
<!-- 3&#45;&gt;2 -->
<g id="edge2" class="edge">
<title>3&#45;&gt;2</title>
<path fill="none" stroke="#000000" stroke-dasharray="5,2" d="M997.6767,-1047.5888C998.1353,-1049.8721 998.5995,-1052.1827 999.0682,-1054.516"/>
<polygon fill="none" stroke="#000000" points="988.8281,-1056.8548 1005.0308,-1084.1994 1009.4169,-1052.7191 988.8281,-1056.8548"/>
</g>
<!-- 4 -->
<g id="node5" class="node">
<title>4</title>
<polygon fill="#f2f2f2" stroke="#000000" points="811.8871,-408.1 811.8871,-868.9 1246.9869,-868.9 1246.9869,-408.1 811.8871,-408.1"/>
<text text-anchor="middle" x="1029.437" y="-852.3" font-family="Times,serif" font-size="14.00" fill="#000000">ERC20</text>
<polyline fill="none" stroke="#000000" points="811.8871,-844.1 1246.9869,-844.1 "/>
<text text-anchor="start" x="819.8871" y="-827.5" font-family="Times,serif" font-size="14.00" fill="#000000">Private:</text>
<text text-anchor="start" x="819.8871" y="-810.7" font-family="Times,serif" font-size="14.00" fill="#000000"> &#160;&#160;_balances: mapping(address=&gt;uint256)</text>
<text text-anchor="start" x="819.8871" y="-793.9" font-family="Times,serif" font-size="14.00" fill="#000000"> &#160;&#160;_allowances: mapping(address=&gt;mapping(address=&gt;uint256))</text>
<text text-anchor="start" x="819.8871" y="-777.1" font-family="Times,serif" font-size="14.00" fill="#000000"> &#160;&#160;_totalSupply: uint256</text>
<text text-anchor="start" x="819.8871" y="-760.3" font-family="Times,serif" font-size="14.00" fill="#000000"> &#160;&#160;_name: string</text>
<text text-anchor="start" x="819.8871" y="-743.5" font-family="Times,serif" font-size="14.00" fill="#000000"> &#160;&#160;_symbol: string</text>
<polyline fill="none" stroke="#000000" points="811.8871,-735.3 1246.9869,-735.3 "/>
<text text-anchor="start" x="819.8871" y="-718.7" font-family="Times,serif" font-size="14.00" fill="#000000">Internal:</text>
<text text-anchor="start" x="819.8871" y="-701.9" font-family="Times,serif" font-size="14.00" fill="#000000"> &#160;&#160;&#160;_transfer(sender: address, recipient: address, amount: uint256)</text>
<text text-anchor="start" x="819.8871" y="-685.1" font-family="Times,serif" font-size="14.00" fill="#000000"> &#160;&#160;&#160;_mint(account: address, amount: uint256)</text>
<text text-anchor="start" x="819.8871" y="-668.3" font-family="Times,serif" font-size="14.00" fill="#000000"> &#160;&#160;&#160;_burn(account: address, amount: uint256)</text>
<text text-anchor="start" x="819.8871" y="-651.5" font-family="Times,serif" font-size="14.00" fill="#000000"> &#160;&#160;&#160;_approve(owner: address, spender: address, amount: uint256)</text>
<text text-anchor="start" x="819.8871" y="-634.7" font-family="Times,serif" font-size="14.00" fill="#000000"> &#160;&#160;&#160;_beforeTokenTransfer(from: address, to: address, amount: uint256)</text>
<text text-anchor="start" x="819.8871" y="-617.9" font-family="Times,serif" font-size="14.00" fill="#000000">Public:</text>
<text text-anchor="start" x="819.8871" y="-601.1" font-family="Times,serif" font-size="14.00" fill="#000000"> &#160;&#160;&#160;constructor(name_: string, symbol_: string)</text>
<text text-anchor="start" x="819.8871" y="-584.3" font-family="Times,serif" font-size="14.00" fill="#000000"> &#160;&#160;&#160;name(): string</text>
<text text-anchor="start" x="819.8871" y="-567.5" font-family="Times,serif" font-size="14.00" fill="#000000"> &#160;&#160;&#160;symbol(): string</text>
<text text-anchor="start" x="819.8871" y="-550.7" font-family="Times,serif" font-size="14.00" fill="#000000"> &#160;&#160;&#160;decimals(): uint8</text>
<text text-anchor="start" x="819.8871" y="-533.9" font-family="Times,serif" font-size="14.00" fill="#000000"> &#160;&#160;&#160;totalSupply(): uint256</text>
<text text-anchor="start" x="819.8871" y="-517.1" font-family="Times,serif" font-size="14.00" fill="#000000"> &#160;&#160;&#160;balanceOf(account: address): uint256</text>
<text text-anchor="start" x="819.8871" y="-500.3" font-family="Times,serif" font-size="14.00" fill="#000000"> &#160;&#160;&#160;transfer(recipient: address, amount: uint256): bool</text>
<text text-anchor="start" x="819.8871" y="-483.5" font-family="Times,serif" font-size="14.00" fill="#000000"> &#160;&#160;&#160;allowance(owner: address, spender: address): uint256</text>
<text text-anchor="start" x="819.8871" y="-466.7" font-family="Times,serif" font-size="14.00" fill="#000000"> &#160;&#160;&#160;approve(spender: address, amount: uint256): bool</text>
<text text-anchor="start" x="819.8871" y="-449.9" font-family="Times,serif" font-size="14.00" fill="#000000"> &#160;&#160;&#160;transferFrom(sender: address, recipient: address, amount: uint256): bool</text>
<text text-anchor="start" x="819.8871" y="-433.1" font-family="Times,serif" font-size="14.00" fill="#000000"> &#160;&#160;&#160;increaseAllowance(spender: address, addedValue: uint256): bool</text>
<text text-anchor="start" x="819.8871" y="-416.3" font-family="Times,serif" font-size="14.00" fill="#000000"> &#160;&#160;&#160;decreaseAllowance(spender: address, subtractedValue: uint256): bool</text>
</g>
<!-- 4&#45;&gt;0 -->
<g id="edge3" class="edge">
<title>4&#45;&gt;0</title>
<path fill="none" stroke="#000000" d="M811.5763,-863.3418C808.8673,-865.3931 806.1537,-867.4134 803.437,-869.4 770.8515,-893.2278 732.1932,-914.4688 696.8136,-931.6375"/>
<polygon fill="none" stroke="#000000" points="692.3477,-922.1345 669.631,-944.3652 701.2527,-941.153 692.3477,-922.1345"/>
</g>
<!-- 4&#45;&gt;2 -->
<g id="edge4" class="edge">
<title>4&#45;&gt;2</title>
<path fill="none" stroke="#000000" stroke-dasharray="5,2" d="M1056.8075,-868.9968C1060.4011,-927.4267 1061.3618,-990.0526 1056.437,-1048 1056.2652,-1050.0217 1056.0812,-1052.0565 1055.8858,-1054.1018"/>
<polygon fill="none" stroke="#000000" points="1045.4289,-1053.1219 1052.3657,-1084.1401 1066.2862,-1055.5662 1045.4289,-1053.1219"/>
</g>
<!-- 4&#45;&gt;3 -->
<g id="edge5" class="edge">
<title>4&#45;&gt;3</title>
<path fill="none" stroke="#000000" stroke-dasharray="5,2" d="M998.0549,-869.2267C997.7552,-871.43 997.4577,-873.617 997.1627,-875.7861"/>
<polygon fill="none" stroke="#000000" points="986.7352,-874.5432 993.0961,-905.6847 1007.5436,-877.3735 986.7352,-874.5432"/>
</g>
<!-- 5 -->
<g id="node6" class="node">
<title>5</title>
<polygon fill="#f2f2f2" stroke="#000000" points="368.7434,-237.9 368.7434,-362.7 656.1306,-362.7 656.1306,-237.9 368.7434,-237.9"/>
<text text-anchor="middle" x="512.437" y="-346.1" font-family="Times,serif" font-size="14.00" fill="#000000">&lt;&lt;Abstract&gt;&gt;</text>
<text text-anchor="middle" x="512.437" y="-329.3" font-family="Times,serif" font-size="14.00" fill="#000000">ERC20Burnable</text>
<polyline fill="none" stroke="#000000" points="368.7434,-321.1 656.1306,-321.1 "/>
<text text-anchor="middle" x="512.437" y="-304.5" font-family="Times,serif" font-size="14.00" fill="#000000"> </text>
<polyline fill="none" stroke="#000000" points="368.7434,-296.3 656.1306,-296.3 "/>
<text text-anchor="start" x="376.7434" y="-279.7" font-family="Times,serif" font-size="14.00" fill="#000000">Public:</text>
<text text-anchor="start" x="376.7434" y="-262.9" font-family="Times,serif" font-size="14.00" fill="#000000"> &#160;&#160;&#160;burn(amount: uint256)</text>
<text text-anchor="start" x="376.7434" y="-246.1" font-family="Times,serif" font-size="14.00" fill="#000000"> &#160;&#160;&#160;burnFrom(account: address, amount: uint256)</text>
</g>
<!-- 5&#45;&gt;0 -->
<g id="edge6" class="edge">
<title>5&#45;&gt;0</title>
<path fill="none" stroke="#000000" d="M505.2041,-362.7669C494.9386,-469.0509 482.4095,-690.9007 531.437,-869.4 532.9995,-875.0887 534.9165,-880.8048 537.0928,-886.4757"/>
<polygon fill="none" stroke="#000000" points="527.6952,-891.1746 549.6943,-914.1156 546.803,-882.4629 527.6952,-891.1746"/>
</g>
<!-- 5&#45;&gt;4 -->
<g id="edge7" class="edge">
<title>5&#45;&gt;4</title>
<path fill="none" stroke="#000000" d="M642.3973,-362.7828C650.1358,-365.9032 657.8547,-368.8697 665.437,-371.6 715.756,-389.7194 740.3725,-380.2484 784.7776,-398.9448"/>
<polygon fill="none" stroke="#000000" points="780.2605,-408.4266 811.7719,-412.5838 789.7307,-389.6832 780.2605,-408.4266"/>
</g>
<!-- 6 -->
<g id="node7" class="node">
<title>6</title>
<polygon fill="#f2f2f2" stroke="#000000" points="540.6351,-508.9 540.6351,-768.1 794.2389,-768.1 794.2389,-508.9 540.6351,-508.9"/>
<text text-anchor="middle" x="667.437" y="-751.5" font-family="Times,serif" font-size="14.00" fill="#000000">&lt;&lt;Abstract&gt;&gt;</text>
<text text-anchor="middle" x="667.437" y="-734.7" font-family="Times,serif" font-size="14.00" fill="#000000">Pausable</text>
<polyline fill="none" stroke="#000000" points="540.6351,-726.5 794.2389,-726.5 "/>
<text text-anchor="start" x="548.6351" y="-709.9" font-family="Times,serif" font-size="14.00" fill="#000000">Private:</text>
<text text-anchor="start" x="548.6351" y="-693.1" font-family="Times,serif" font-size="14.00" fill="#000000"> &#160;&#160;_paused: bool</text>
<polyline fill="none" stroke="#000000" points="540.6351,-684.9 794.2389,-684.9 "/>
<text text-anchor="start" x="548.6351" y="-668.3" font-family="Times,serif" font-size="14.00" fill="#000000">Internal:</text>
<text text-anchor="start" x="548.6351" y="-651.5" font-family="Times,serif" font-size="14.00" fill="#000000"> &#160;&#160;&#160;_pause()</text>
<text text-anchor="start" x="548.6351" y="-634.7" font-family="Times,serif" font-size="14.00" fill="#000000"> &#160;&#160;&#160;_unpause()</text>
<text text-anchor="start" x="548.6351" y="-617.9" font-family="Times,serif" font-size="14.00" fill="#000000">Public:</text>
<text text-anchor="start" x="548.6351" y="-601.1" font-family="Times,serif" font-size="14.00" fill="#000000"> &#160;&#160;&#160;&lt;&lt;event&gt;&gt; Paused(account: address)</text>
<text text-anchor="start" x="548.6351" y="-584.3" font-family="Times,serif" font-size="14.00" fill="#000000"> &#160;&#160;&#160;&lt;&lt;event&gt;&gt; Unpaused(account: address)</text>
<text text-anchor="start" x="548.6351" y="-567.5" font-family="Times,serif" font-size="14.00" fill="#000000"> &#160;&#160;&#160;&lt;&lt;modifier&gt;&gt; whenNotPaused()</text>
<text text-anchor="start" x="548.6351" y="-550.7" font-family="Times,serif" font-size="14.00" fill="#000000"> &#160;&#160;&#160;&lt;&lt;modifier&gt;&gt; whenPaused()</text>
<text text-anchor="start" x="548.6351" y="-533.9" font-family="Times,serif" font-size="14.00" fill="#000000"> &#160;&#160;&#160;constructor()</text>
<text text-anchor="start" x="548.6351" y="-517.1" font-family="Times,serif" font-size="14.00" fill="#000000"> &#160;&#160;&#160;paused(): bool</text>
</g>
<!-- 6&#45;&gt;0 -->
<g id="edge8" class="edge">
<title>6&#45;&gt;0</title>
<path fill="none" stroke="#000000" d="M637.887,-768.2897C629.0409,-807.1435 619.5275,-848.9285 611.3585,-884.8083"/>
<polygon fill="none" stroke="#000000" points="601.0688,-882.7047 604.6469,-914.2871 621.5448,-887.3666 601.0688,-882.7047"/>
</g>
<!-- 7 -->
<g id="node8" class="node">
<title>7</title>
<polygon fill="#f2f2f2" stroke="#000000" points="674.3089,-246.3 674.3089,-354.3 1082.5651,-354.3 1082.5651,-246.3 674.3089,-246.3"/>
<text text-anchor="middle" x="878.437" y="-337.7" font-family="Times,serif" font-size="14.00" fill="#000000">&lt;&lt;Abstract&gt;&gt;</text>
<text text-anchor="middle" x="878.437" y="-320.9" font-family="Times,serif" font-size="14.00" fill="#000000">ERC20Pausable</text>
<polyline fill="none" stroke="#000000" points="674.3089,-312.7 1082.5651,-312.7 "/>
<text text-anchor="middle" x="878.437" y="-296.1" font-family="Times,serif" font-size="14.00" fill="#000000"> </text>
<polyline fill="none" stroke="#000000" points="674.3089,-287.9 1082.5651,-287.9 "/>
<text text-anchor="start" x="682.3089" y="-271.3" font-family="Times,serif" font-size="14.00" fill="#000000">Internal:</text>
<text text-anchor="start" x="682.3089" y="-254.5" font-family="Times,serif" font-size="14.00" fill="#000000"> &#160;&#160;&#160;_beforeTokenTransfer(from: address, to: address, amount: uint256)</text>
</g>
<!-- 7&#45;&gt;4 -->
<g id="edge9" class="edge">
<title>7&#45;&gt;4</title>
<path fill="none" stroke="#000000" d="M902.6978,-354.6377C906.2539,-362.6025 910.0972,-371.2105 914.1551,-380.2992"/>
<polygon fill="none" stroke="#000000" points="904.6746,-384.8203 926.4932,-407.9331 923.8502,-376.2587 904.6746,-384.8203"/>
</g>
<!-- 7&#45;&gt;6 -->
<g id="edge10" class="edge">
<title>7&#45;&gt;6</title>
<path fill="none" stroke="#000000" d="M838.6441,-354.5301C826.6921,-371.3314 813.7555,-390.0449 802.437,-407.6 786.9832,-431.5689 771.1744,-457.3267 756.0704,-482.6355"/>
<polygon fill="none" stroke="#000000" points="746.8583,-477.5854 740.63,-508.7536 764.9357,-488.2723 746.8583,-477.5854"/>
</g>
<!-- 8 -->
<g id="node9" class="node">
<title>8</title>
<polygon fill="#f2f2f2" stroke="#000000" points="1100.8223,-229.5 1100.8223,-371.1 1296.0517,-371.1 1296.0517,-229.5 1100.8223,-229.5"/>
<text text-anchor="middle" x="1198.437" y="-354.5" font-family="Times,serif" font-size="14.00" fill="#000000">&lt;&lt;Abstract&gt;&gt;</text>
<text text-anchor="middle" x="1198.437" y="-337.7" font-family="Times,serif" font-size="14.00" fill="#000000">ERC20Decimals</text>
<polyline fill="none" stroke="#000000" points="1100.8223,-329.5 1296.0517,-329.5 "/>
<text text-anchor="start" x="1108.8223" y="-312.9" font-family="Times,serif" font-size="14.00" fill="#000000">Private:</text>
<text text-anchor="start" x="1108.8223" y="-296.1" font-family="Times,serif" font-size="14.00" fill="#000000"> &#160;&#160;_decimals: uint8</text>
<polyline fill="none" stroke="#000000" points="1100.8223,-287.9 1296.0517,-287.9 "/>
<text text-anchor="start" x="1108.8223" y="-271.3" font-family="Times,serif" font-size="14.00" fill="#000000">Public:</text>
<text text-anchor="start" x="1108.8223" y="-254.5" font-family="Times,serif" font-size="14.00" fill="#000000"> &#160;&#160;&#160;constructor(decimals_: uint8)</text>
<text text-anchor="start" x="1108.8223" y="-237.7" font-family="Times,serif" font-size="14.00" fill="#000000"> &#160;&#160;&#160;decimals(): uint8</text>
</g>
<!-- 8&#45;&gt;4 -->
<g id="edge11" class="edge">
<title>8&#45;&gt;4</title>
<path fill="none" stroke="#000000" d="M1163.0091,-371.1978C1161.4476,-374.3226 1159.8519,-377.5159 1158.2257,-380.7702"/>
<polygon fill="none" stroke="#000000" points="1148.7034,-376.3364 1144.6858,-407.8659 1167.4886,-385.7235 1148.7034,-376.3364"/>
</g>
<!-- 9 -->
<g id="node10" class="node">
<title>9</title>
<polygon fill="#f2f2f2" stroke="#000000" points="1218.7476,-42.5 1218.7476,-150.5 1394.1264,-150.5 1394.1264,-42.5 1218.7476,-42.5"/>
<text text-anchor="middle" x="1306.437" y="-133.9" font-family="Times,serif" font-size="14.00" fill="#000000">&lt;&lt;Interface&gt;&gt;</text>
<text text-anchor="middle" x="1306.437" y="-117.1" font-family="Times,serif" font-size="14.00" fill="#000000">IPayable</text>
<polyline fill="none" stroke="#000000" points="1218.7476,-108.9 1394.1264,-108.9 "/>
<text text-anchor="middle" x="1306.437" y="-92.3" font-family="Times,serif" font-size="14.00" fill="#000000"> </text>
<polyline fill="none" stroke="#000000" points="1218.7476,-84.1 1394.1264,-84.1 "/>
<text text-anchor="start" x="1226.7476" y="-67.5" font-family="Times,serif" font-size="14.00" fill="#000000">External:</text>
<text text-anchor="start" x="1226.7476" y="-50.7" font-family="Times,serif" font-size="14.00" fill="#000000"> &#160;&#160;&#160;&#160;pay(serviceName: string)</text>
</g>
<!-- 10 -->
<g id="node11" class="node">
<title>10</title>
<polygon fill="#f2f2f2" stroke="#000000" points="1314.3969,-246.3 1314.3969,-354.3 1630.4771,-354.3 1630.4771,-246.3 1314.3969,-246.3"/>
<text text-anchor="middle" x="1472.437" y="-337.7" font-family="Times,serif" font-size="14.00" fill="#000000">&lt;&lt;Abstract&gt;&gt;</text>
<text text-anchor="middle" x="1472.437" y="-320.9" font-family="Times,serif" font-size="14.00" fill="#000000">ServicePayer</text>
<polyline fill="none" stroke="#000000" points="1314.3969,-312.7 1630.4771,-312.7 "/>
<text text-anchor="middle" x="1472.437" y="-296.1" font-family="Times,serif" font-size="14.00" fill="#000000"> </text>
<polyline fill="none" stroke="#000000" points="1314.3969,-287.9 1630.4771,-287.9 "/>
<text text-anchor="start" x="1322.3969" y="-271.3" font-family="Times,serif" font-size="14.00" fill="#000000">Public:</text>
<text text-anchor="start" x="1322.3969" y="-254.5" font-family="Times,serif" font-size="14.00" fill="#000000"> &#160;&#160;&#160;constructor(receiver: address, serviceName: string)</text>
</g>
<!-- 11 -->
<g id="node12" class="node">
<title>11</title>
<polygon fill="#f2f2f2" stroke="#000000" points="555.7072,-.5 555.7072,-192.5 1201.1668,-192.5 1201.1668,-.5 555.7072,-.5"/>
<text text-anchor="middle" x="878.437" y="-175.9" font-family="Times,serif" font-size="14.00" fill="#000000">PausableERC20</text>
<polyline fill="none" stroke="#000000" points="555.7072,-167.7 1201.1668,-167.7 "/>
<text text-anchor="middle" x="878.437" y="-151.1" font-family="Times,serif" font-size="14.00" fill="#000000"> </text>
<polyline fill="none" stroke="#000000" points="555.7072,-142.9 1201.1668,-142.9 "/>
<text text-anchor="start" x="563.7072" y="-126.3" font-family="Times,serif" font-size="14.00" fill="#000000">Internal:</text>
<text text-anchor="start" x="563.7072" y="-109.5" font-family="Times,serif" font-size="14.00" fill="#000000"> &#160;&#160;&#160;_beforeTokenTransfer(from: address, to: address, amount: uint256)</text>
<text text-anchor="start" x="563.7072" y="-92.7" font-family="Times,serif" font-size="14.00" fill="#000000">External:</text>
<text text-anchor="start" x="563.7072" y="-75.9" font-family="Times,serif" font-size="14.00" fill="#000000"> &#160;&#160;&#160;pause()</text>
<text text-anchor="start" x="563.7072" y="-59.1" font-family="Times,serif" font-size="14.00" fill="#000000"> &#160;&#160;&#160;unpause()</text>
<text text-anchor="start" x="563.7072" y="-42.3" font-family="Times,serif" font-size="14.00" fill="#000000">Public:</text>
<text text-anchor="start" x="563.7072" y="-25.5" font-family="Times,serif" font-size="14.00" fill="#000000"> &#160;&#160;&#160;constructor(name_: string, symbol_: string, decimals_: uint8, initialBalance_: uint256, feeReceiver_: address)</text>
<text text-anchor="start" x="563.7072" y="-8.7" font-family="Times,serif" font-size="14.00" fill="#000000"> &#160;&#160;&#160;decimals(): uint8</text>
</g>
<!-- 11&#45;&gt;1 -->
<g id="edge15" class="edge">
<title>11&#45;&gt;1</title>
<path fill="none" stroke="#000000" d="M555.6253,-151.9268C469.0774,-172.5786 390.7775,-198.5353 359.437,-229 286.0033,-300.3815 257.7821,-414.3938 247.3456,-504.0115"/>
<polygon fill="none" stroke="#000000" points="236.8853,-503.0931 244.3995,-533.9766 257.7846,-505.1479 236.8853,-503.0931"/>
</g>
<!-- 11&#45;&gt;5 -->
<g id="edge13" class="edge">
<title>11&#45;&gt;5</title>
<path fill="none" stroke="#000000" d="M705.8865,-192.5814C687.4493,-202.8478 668.8701,-213.1933 650.9009,-223.1991"/>
<polygon fill="none" stroke="#000000" points="645.7515,-214.0483 624.6492,-237.8168 655.9679,-232.3956 645.7515,-214.0483"/>
</g>
<!-- 11&#45;&gt;7 -->
<g id="edge14" class="edge">
<title>11&#45;&gt;7</title>
<path fill="none" stroke="#000000" d="M878.437,-192.7304C878.437,-200.4698 878.437,-208.2529 878.437,-215.9004"/>
<polygon fill="none" stroke="#000000" points="867.9371,-216.1149 878.437,-246.115 888.9371,-216.115 867.9371,-216.1149"/>
</g>
<!-- 11&#45;&gt;8 -->
<g id="edge12" class="edge">
<title>11&#45;&gt;8</title>
<path fill="none" stroke="#000000" d="M1034.0966,-192.5469C1046.9568,-200.635 1059.8691,-208.8052 1075.1784,-218.5963"/>
<polygon fill="none" stroke="#000000" points="1069.6407,-227.5188 1100.5563,-234.8996 1080.9912,-209.8505 1069.6407,-227.5188"/>
</g>
<!-- 11&#45;&gt;10 -->
<g id="edge16" class="edge">
<title>11&#45;&gt;10</title>
<path fill="none" stroke="#000000" d="M1200.5141,-192.5532C1236.0929,-204.3162 1271.6508,-216.5827 1305.437,-229 1310.8741,-230.9983 1316.3911,-233.077 1321.9485,-235.2144"/>
<polygon fill="none" stroke="#000000" points="1318.1309,-244.9959 1349.8891,-246.2887 1325.8687,-225.4735 1318.1309,-244.9959"/>
</g>
</g>
</svg>
