<?xml version="1.0" encoding="UTF-8" standalone="no"?>
<!DOCTYPE svg PUBLIC "-//W3C//DTD SVG 1.1//EN"
 "http://www.w3.org/Graphics/SVG/1.1/DTD/svg11.dtd">
<!-- Generated by graphviz version 2.40.1 (20161225.0304)
 -->
<!-- Title: UmlClassDiagram Pages: 1 -->
<svg width="1133pt" height="1073pt"
 viewBox="0.00 0.00 1132.99 1072.80" xmlns="http://www.w3.org/2000/svg" xmlns:xlink="http://www.w3.org/1999/xlink">
<g id="graph0" class="graph" transform="scale(1 1) rotate(0) translate(4 1068.8)">
<title>UmlClassDiagram</title>
<polygon fill="#ffffff" stroke="transparent" points="-4,4 -4,-1068.8 1128.9893,-1068.8 1128.9893,4 -4,4"/>
<!-- 0 -->
<g id="node1" class="node">
<title>0</title>
<polygon fill="#f2f2f2" stroke="#000000" points="0,-821.9 0,-1064.3 438.5998,-1064.3 438.5998,-821.9 0,-821.9"/>
<text text-anchor="middle" x="219.2999" y="-1047.7" font-family="Times,serif" font-size="14.00" fill="#000000">&lt;&lt;Interface&gt;&gt;</text>
<text text-anchor="middle" x="219.2999" y="-1030.9" font-family="Times,serif" font-size="14.00" fill="#000000">IERC20</text>
<polyline fill="none" stroke="#000000" points="0,-1022.7 438.5998,-1022.7 "/>
<text text-anchor="middle" x="219.2999" y="-1006.1" font-family="Times,serif" font-size="14.00" fill="#000000"> </text>
<polyline fill="none" stroke="#000000" points="0,-997.9 438.5998,-997.9 "/>
<text text-anchor="start" x="8" y="-981.3" font-family="Times,serif" font-size="14.00" fill="#000000">External:</text>
<text text-anchor="start" x="8" y="-964.5" font-family="Times,serif" font-size="14.00" fill="#000000"> &#160;&#160;&#160;&#160;totalSupply(): uint256</text>
<text text-anchor="start" x="8" y="-947.7" font-family="Times,serif" font-size="14.00" fill="#000000"> &#160;&#160;&#160;&#160;balanceOf(account: address): uint256</text>
<text text-anchor="start" x="8" y="-930.9" font-family="Times,serif" font-size="14.00" fill="#000000"> &#160;&#160;&#160;&#160;transfer(recipient: address, amount: uint256): bool</text>
<text text-anchor="start" x="8" y="-914.1" font-family="Times,serif" font-size="14.00" fill="#000000"> &#160;&#160;&#160;&#160;allowance(owner: address, spender: address): uint256</text>
<text text-anchor="start" x="8" y="-897.3" font-family="Times,serif" font-size="14.00" fill="#000000"> &#160;&#160;&#160;&#160;approve(spender: address, amount: uint256): bool</text>
<text text-anchor="start" x="8" y="-880.5" font-family="Times,serif" font-size="14.00" fill="#000000"> &#160;&#160;&#160;&#160;transferFrom(sender: address, recipient: address, amount: uint256): bool</text>
<text text-anchor="start" x="8" y="-863.7" font-family="Times,serif" font-size="14.00" fill="#000000">Public:</text>
<text text-anchor="start" x="8" y="-846.9" font-family="Times,serif" font-size="14.00" fill="#000000"> &#160;&#160;&#160;&lt;&lt;event&gt;&gt; Transfer(from: address, to: address, value: uint256)</text>
<text text-anchor="start" x="8" y="-830.1" font-family="Times,serif" font-size="14.00" fill="#000000"> &#160;&#160;&#160;&lt;&lt;event&gt;&gt; Approval(owner: address, spender: address, value: uint256)</text>
</g>
<!-- 1 -->
<g id="node2" class="node">
<title>1</title>
<polygon fill="#f2f2f2" stroke="#000000" points="200.9233,-643.3 200.9233,-784.9 329.6765,-784.9 329.6765,-643.3 200.9233,-643.3"/>
<text text-anchor="middle" x="265.2999" y="-768.3" font-family="Times,serif" font-size="14.00" fill="#000000">&lt;&lt;Interface&gt;&gt;</text>
<text text-anchor="middle" x="265.2999" y="-751.5" font-family="Times,serif" font-size="14.00" fill="#000000">IERC20Metadata</text>
<polyline fill="none" stroke="#000000" points="200.9233,-743.3 329.6765,-743.3 "/>
<text text-anchor="middle" x="265.2999" y="-726.7" font-family="Times,serif" font-size="14.00" fill="#000000"> </text>
<polyline fill="none" stroke="#000000" points="200.9233,-718.5 329.6765,-718.5 "/>
<text text-anchor="start" x="208.9233" y="-701.9" font-family="Times,serif" font-size="14.00" fill="#000000">External:</text>
<text text-anchor="start" x="208.9233" y="-685.1" font-family="Times,serif" font-size="14.00" fill="#000000"> &#160;&#160;&#160;&#160;name(): string</text>
<text text-anchor="start" x="208.9233" y="-668.3" font-family="Times,serif" font-size="14.00" fill="#000000"> &#160;&#160;&#160;&#160;symbol(): string</text>
<text text-anchor="start" x="208.9233" y="-651.5" font-family="Times,serif" font-size="14.00" fill="#000000"> &#160;&#160;&#160;&#160;decimals(): uint8</text>
</g>
<!-- 1&#45;&gt;0 -->
<g id="edge1" class="edge">
<title>1&#45;&gt;0</title>
<path fill="none" stroke="#000000" stroke-dasharray="5,2" d="M251.0602,-784.9888C250.6016,-787.2721 250.1374,-789.5827 249.6687,-791.916"/>
<polygon fill="none" stroke="#000000" points="239.32,-790.1191 243.7061,-821.5994 259.9088,-794.2548 239.32,-790.1191"/>
</g>
<!-- 2 -->
<g id="node3" class="node">
<title>2</title>
<polygon fill="#f2f2f2" stroke="#000000" points="347.3507,-651.7 347.3507,-776.5 505.2491,-776.5 505.2491,-651.7 347.3507,-651.7"/>
<text text-anchor="middle" x="426.2999" y="-759.9" font-family="Times,serif" font-size="14.00" fill="#000000">&lt;&lt;Abstract&gt;&gt;</text>
<text text-anchor="middle" x="426.2999" y="-743.1" font-family="Times,serif" font-size="14.00" fill="#000000">Context</text>
<polyline fill="none" stroke="#000000" points="347.3507,-734.9 505.2491,-734.9 "/>
<text text-anchor="middle" x="426.2999" y="-718.3" font-family="Times,serif" font-size="14.00" fill="#000000"> </text>
<polyline fill="none" stroke="#000000" points="347.3507,-710.1 505.2491,-710.1 "/>
<text text-anchor="start" x="355.3507" y="-693.5" font-family="Times,serif" font-size="14.00" fill="#000000">Internal:</text>
<text text-anchor="start" x="355.3507" y="-676.7" font-family="Times,serif" font-size="14.00" fill="#000000"> &#160;&#160;&#160;_msgSender(): address</text>
<text text-anchor="start" x="355.3507" y="-659.9" font-family="Times,serif" font-size="14.00" fill="#000000"> &#160;&#160;&#160;_msgData(): bytes</text>
</g>
<!-- 3 -->
<g id="node4" class="node">
<title>3</title>
<polygon fill="#f2f2f2" stroke="#000000" points="47.75,-145.5 47.75,-606.3 482.8498,-606.3 482.8498,-145.5 47.75,-145.5"/>
<text text-anchor="middle" x="265.2999" y="-589.7" font-family="Times,serif" font-size="14.00" fill="#000000">ERC20</text>
<polyline fill="none" stroke="#000000" points="47.75,-581.5 482.8498,-581.5 "/>
<text text-anchor="start" x="55.75" y="-564.9" font-family="Times,serif" font-size="14.00" fill="#000000">Private:</text>
<text text-anchor="start" x="55.75" y="-548.1" font-family="Times,serif" font-size="14.00" fill="#000000"> &#160;&#160;_balances: mapping(address=&gt;uint256)</text>
<text text-anchor="start" x="55.75" y="-531.3" font-family="Times,serif" font-size="14.00" fill="#000000"> &#160;&#160;_allowances: mapping(address=&gt;mapping(address=&gt;uint256))</text>
<text text-anchor="start" x="55.75" y="-514.5" font-family="Times,serif" font-size="14.00" fill="#000000"> &#160;&#160;_totalSupply: uint256</text>
<text text-anchor="start" x="55.75" y="-497.7" font-family="Times,serif" font-size="14.00" fill="#000000"> &#160;&#160;_name: string</text>
<text text-anchor="start" x="55.75" y="-480.9" font-family="Times,serif" font-size="14.00" fill="#000000"> &#160;&#160;_symbol: string</text>
<polyline fill="none" stroke="#000000" points="47.75,-472.7 482.8498,-472.7 "/>
<text text-anchor="start" x="55.75" y="-456.1" font-family="Times,serif" font-size="14.00" fill="#000000">Internal:</text>
<text text-anchor="start" x="55.75" y="-439.3" font-family="Times,serif" font-size="14.00" fill="#000000"> &#160;&#160;&#160;_transfer(sender: address, recipient: address, amount: uint256)</text>
<text text-anchor="start" x="55.75" y="-422.5" font-family="Times,serif" font-size="14.00" fill="#000000"> &#160;&#160;&#160;_mint(account: address, amount: uint256)</text>
<text text-anchor="start" x="55.75" y="-405.7" font-family="Times,serif" font-size="14.00" fill="#000000"> &#160;&#160;&#160;_burn(account: address, amount: uint256)</text>
<text text-anchor="start" x="55.75" y="-388.9" font-family="Times,serif" font-size="14.00" fill="#000000"> &#160;&#160;&#160;_approve(owner: address, spender: address, amount: uint256)</text>
<text text-anchor="start" x="55.75" y="-372.1" font-family="Times,serif" font-size="14.00" fill="#000000"> &#160;&#160;&#160;_beforeTokenTransfer(from: address, to: address, amount: uint256)</text>
<text text-anchor="start" x="55.75" y="-355.3" font-family="Times,serif" font-size="14.00" fill="#000000">Public:</text>
<text text-anchor="start" x="55.75" y="-338.5" font-family="Times,serif" font-size="14.00" fill="#000000"> &#160;&#160;&#160;constructor(name_: string, symbol_: string)</text>
<text text-anchor="start" x="55.75" y="-321.7" font-family="Times,serif" font-size="14.00" fill="#000000"> &#160;&#160;&#160;name(): string</text>
<text text-anchor="start" x="55.75" y="-304.9" font-family="Times,serif" font-size="14.00" fill="#000000"> &#160;&#160;&#160;symbol(): string</text>
<text text-anchor="start" x="55.75" y="-288.1" font-family="Times,serif" font-size="14.00" fill="#000000"> &#160;&#160;&#160;decimals(): uint8</text>
<text text-anchor="start" x="55.75" y="-271.3" font-family="Times,serif" font-size="14.00" fill="#000000"> &#160;&#160;&#160;totalSupply(): uint256</text>
<text text-anchor="start" x="55.75" y="-254.5" font-family="Times,serif" font-size="14.00" fill="#000000"> &#160;&#160;&#160;balanceOf(account: address): uint256</text>
<text text-anchor="start" x="55.75" y="-237.7" font-family="Times,serif" font-size="14.00" fill="#000000"> &#160;&#160;&#160;transfer(recipient: address, amount: uint256): bool</text>
<text text-anchor="start" x="55.75" y="-220.9" font-family="Times,serif" font-size="14.00" fill="#000000"> &#160;&#160;&#160;allowance(owner: address, spender: address): uint256</text>
<text text-anchor="start" x="55.75" y="-204.1" font-family="Times,serif" font-size="14.00" fill="#000000"> &#160;&#160;&#160;approve(spender: address, amount: uint256): bool</text>
<text text-anchor="start" x="55.75" y="-187.3" font-family="Times,serif" font-size="14.00" fill="#000000"> &#160;&#160;&#160;transferFrom(sender: address, recipient: address, amount: uint256): bool</text>
<text text-anchor="start" x="55.75" y="-170.5" font-family="Times,serif" font-size="14.00" fill="#000000"> &#160;&#160;&#160;increaseAllowance(spender: address, addedValue: uint256): bool</text>
<text text-anchor="start" x="55.75" y="-153.7" font-family="Times,serif" font-size="14.00" fill="#000000"> &#160;&#160;&#160;decreaseAllowance(spender: address, subtractedValue: uint256): bool</text>
</g>
<!-- 3&#45;&gt;0 -->
<g id="edge3" class="edge">
<title>3&#45;&gt;0</title>
<path fill="none" stroke="#000000" stroke-dasharray="5,2" d="M198.1569,-606.5863C195.8807,-618.7737 193.8983,-630.8972 192.2999,-642.8 183.8647,-705.6139 186.9329,-722.2499 192.2999,-785.4 192.4717,-787.4217 192.6557,-789.4565 192.8511,-791.5018"/>
<polygon fill="none" stroke="#000000" points="182.4507,-792.9662 196.3712,-821.5401 203.308,-790.5219 182.4507,-792.9662"/>
</g>
<!-- 3&#45;&gt;1 -->
<g id="edge4" class="edge">
<title>3&#45;&gt;1</title>
<path fill="none" stroke="#000000" stroke-dasharray="5,2" d="M265.2999,-606.6267C265.2999,-608.7298 265.2999,-610.8182 265.2999,-612.8902"/>
<polygon fill="none" stroke="#000000" points="254.8,-613.0846 265.2999,-643.0847 275.8,-613.0847 254.8,-613.0846"/>
</g>
<!-- 3&#45;&gt;2 -->
<g id="edge2" class="edge">
<title>3&#45;&gt;2</title>
<path fill="none" stroke="#000000" d="M375.1373,-606.6267C378.0082,-612.6574 380.8214,-618.5669 383.5593,-624.3182"/>
<polygon fill="none" stroke="#000000" points="374.1636,-629.0097 396.5391,-651.5838 393.1247,-619.9833 374.1636,-629.0097"/>
</g>
<!-- 4 -->
<g id="node5" class="node">
<title>4</title>
<polygon fill="#f2f2f2" stroke="#000000" points="949.6105,-.5 949.6105,-108.5 1124.9893,-108.5 1124.9893,-.5 949.6105,-.5"/>
<text text-anchor="middle" x="1037.2999" y="-91.9" font-family="Times,serif" font-size="14.00" fill="#000000">&lt;&lt;Interface&gt;&gt;</text>
<text text-anchor="middle" x="1037.2999" y="-75.1" font-family="Times,serif" font-size="14.00" fill="#000000">IPayable</text>
<polyline fill="none" stroke="#000000" points="949.6105,-66.9 1124.9893,-66.9 "/>
<text text-anchor="middle" x="1037.2999" y="-50.3" font-family="Times,serif" font-size="14.00" fill="#000000"> </text>
<polyline fill="none" stroke="#000000" points="949.6105,-42.1 1124.9893,-42.1 "/>
<text text-anchor="start" x="957.6105" y="-25.5" font-family="Times,serif" font-size="14.00" fill="#000000">External:</text>
<text text-anchor="start" x="957.6105" y="-8.7" font-family="Times,serif" font-size="14.00" fill="#000000"> &#160;&#160;&#160;&#160;pay(serviceName: string)</text>
</g>
<!-- 5 -->
<g id="node6" class="node">
<title>5</title>
<polygon fill="#f2f2f2" stroke="#000000" points="501.2598,-321.9 501.2598,-429.9 817.34,-429.9 817.34,-321.9 501.2598,-321.9"/>
<text text-anchor="middle" x="659.2999" y="-413.3" font-family="Times,serif" font-size="14.00" fill="#000000">&lt;&lt;Abstract&gt;&gt;</text>
<text text-anchor="middle" x="659.2999" y="-396.5" font-family="Times,serif" font-size="14.00" fill="#000000">ServicePayer</text>
<polyline fill="none" stroke="#000000" points="501.2598,-388.3 817.34,-388.3 "/>
<text text-anchor="middle" x="659.2999" y="-371.7" font-family="Times,serif" font-size="14.00" fill="#000000"> </text>
<polyline fill="none" stroke="#000000" points="501.2598,-363.5 817.34,-363.5 "/>
<text text-anchor="start" x="509.2598" y="-346.9" font-family="Times,serif" font-size="14.00" fill="#000000">Public:</text>
<text text-anchor="start" x="509.2598" y="-330.1" font-family="Times,serif" font-size="14.00" fill="#000000"> &#160;&#160;&#160;constructor(receiver: address, serviceName: string)</text>
</g>
<!-- 6 -->
<g id="node7" class="node">
<title>6</title>
<polygon fill="#f2f2f2" stroke="#000000" points="835.4075,-296.7 835.4075,-455.1 1025.1923,-455.1 1025.1923,-296.7 835.4075,-296.7"/>
<text text-anchor="middle" x="930.2999" y="-438.5" font-family="Times,serif" font-size="14.00" fill="#000000">GeneratorCopyright</text>
<polyline fill="none" stroke="#000000" points="835.4075,-430.3 1025.1923,-430.3 "/>
<text text-anchor="start" x="843.4075" y="-413.7" font-family="Times,serif" font-size="14.00" fill="#000000">Private:</text>
<text text-anchor="start" x="843.4075" y="-396.9" font-family="Times,serif" font-size="14.00" fill="#000000"> &#160;&#160;_GENERATOR: string</text>
<text text-anchor="start" x="843.4075" y="-380.1" font-family="Times,serif" font-size="14.00" fill="#000000"> &#160;&#160;_version: string</text>
<polyline fill="none" stroke="#000000" points="835.4075,-371.9 1025.1923,-371.9 "/>
<text text-anchor="start" x="843.4075" y="-355.3" font-family="Times,serif" font-size="14.00" fill="#000000">Public:</text>
<text text-anchor="start" x="843.4075" y="-338.5" font-family="Times,serif" font-size="14.00" fill="#000000"> &#160;&#160;&#160;constructor(version_: string)</text>
<text text-anchor="start" x="843.4075" y="-321.7" font-family="Times,serif" font-size="14.00" fill="#000000"> &#160;&#160;&#160;generator(): string</text>
<text text-anchor="start" x="843.4075" y="-304.9" font-family="Times,serif" font-size="14.00" fill="#000000"> &#160;&#160;&#160;version(): string</text>
</g>
<!-- 7 -->
<g id="node8" class="node">
<title>7</title>
<polygon fill="#f2f2f2" stroke="#000000" points="386.5361,-8.9 386.5361,-100.1 932.0637,-100.1 932.0637,-8.9 386.5361,-8.9"/>
<text text-anchor="middle" x="659.2999" y="-83.5" font-family="Times,serif" font-size="14.00" fill="#000000">SimpleERC20</text>
<polyline fill="none" stroke="#000000" points="386.5361,-75.3 932.0637,-75.3 "/>
<text text-anchor="middle" x="659.2999" y="-58.7" font-family="Times,serif" font-size="14.00" fill="#000000"> </text>
<polyline fill="none" stroke="#000000" points="386.5361,-50.5 932.0637,-50.5 "/>
<text text-anchor="start" x="394.5361" y="-33.9" font-family="Times,serif" font-size="14.00" fill="#000000">Public:</text>
<text text-anchor="start" x="394.5361" y="-17.1" font-family="Times,serif" font-size="14.00" fill="#000000"> &#160;&#160;&#160;constructor(name_: string, symbol_: string, initialBalance_: uint256, feeReceiver_: address)</text>
</g>
<!-- 7&#45;&gt;3 -->
<g id="edge5" class="edge">
<title>7&#45;&gt;3</title>
<path fill="none" stroke="#000000" d="M563.1039,-100.3151C545.6678,-109.839 527.6657,-120.475 507.1738,-134.6263"/>
<polygon fill="none" stroke="#000000" points="501.0137,-126.1231 482.8772,-152.2252 513.3327,-143.1303 501.0137,-126.1231"/>
</g>
<!-- 7&#45;&gt;5 -->
<g id="edge6" class="edge">
<title>7&#45;&gt;5</title>
<path fill="none" stroke="#000000" d="M659.2999,-100.2075C659.2999,-149.8282 659.2999,-230.1667 659.2999,-291.3498"/>
<polygon fill="none" stroke="#000000" points="648.8,-291.7628 659.2999,-321.7629 669.8,-291.7629 648.8,-291.7628"/>
</g>
<!-- 7&#45;&gt;6 -->
<g id="edge7" class="edge">
<title>7&#45;&gt;6</title>
<path fill="none" stroke="#000000" d="M768.62,-100.3389C789.576,-112.6327 810.0262,-127.4854 826.2999,-145 858.5782,-179.7396 882.1188,-226.1942 898.5545,-268.3252"/>
<polygon fill="none" stroke="#000000" points="888.7133,-271.987 908.8181,-296.605 908.4534,-264.8226 888.7133,-271.987"/>
</g>
</g>
</svg>
