<?xml version="1.0" encoding="UTF-8" standalone="no"?>
<!DOCTYPE svg PUBLIC "-//W3C//DTD SVG 1.1//EN"
 "http://www.w3.org/Graphics/SVG/1.1/DTD/svg11.dtd">
<!-- Generated by graphviz version 2.40.1 (20161225.0304)
 -->
<!-- Title: UmlClassDiagram Pages: 1 -->
<svg width="1988pt" height="1033pt"
 viewBox="0.00 0.00 1987.65 1033.00" xmlns="http://www.w3.org/2000/svg" xmlns:xlink="http://www.w3.org/1999/xlink">
<g id="graph0" class="graph" transform="scale(1 1) rotate(0) translate(4 1029)">
<title>UmlClassDiagram</title>
<polygon fill="#ffffff" stroke="transparent" points="-4,4 -4,-1029 1983.6542,-1029 1983.6542,4 -4,4"/>
<!-- 0 -->
<g id="node1" class="node">
<title>0</title>
<polygon fill="#f2f2f2" stroke="#000000" points="1021.9173,-620.3 1021.9173,-862.7 1460.5171,-862.7 1460.5171,-620.3 1021.9173,-620.3"/>
<text text-anchor="middle" x="1241.2172" y="-846.1" font-family="Times,serif" font-size="14.00" fill="#000000">&lt;&lt;Interface&gt;&gt;</text>
<text text-anchor="middle" x="1241.2172" y="-829.3" font-family="Times,serif" font-size="14.00" fill="#000000">IERC20</text>
<polyline fill="none" stroke="#000000" points="1021.9173,-821.1 1460.5171,-821.1 "/>
<text text-anchor="middle" x="1241.2172" y="-804.5" font-family="Times,serif" font-size="14.00" fill="#000000"> </text>
<polyline fill="none" stroke="#000000" points="1021.9173,-796.3 1460.5171,-796.3 "/>
<text text-anchor="start" x="1029.9173" y="-779.7" font-family="Times,serif" font-size="14.00" fill="#000000">External:</text>
<text text-anchor="start" x="1029.9173" y="-762.9" font-family="Times,serif" font-size="14.00" fill="#000000"> &#160;&#160;&#160;&#160;totalSupply(): uint256</text>
<text text-anchor="start" x="1029.9173" y="-746.1" font-family="Times,serif" font-size="14.00" fill="#000000"> &#160;&#160;&#160;&#160;balanceOf(account: address): uint256</text>
<text text-anchor="start" x="1029.9173" y="-729.3" font-family="Times,serif" font-size="14.00" fill="#000000"> &#160;&#160;&#160;&#160;transfer(recipient: address, amount: uint256): bool</text>
<text text-anchor="start" x="1029.9173" y="-712.5" font-family="Times,serif" font-size="14.00" fill="#000000"> &#160;&#160;&#160;&#160;allowance(owner: address, spender: address): uint256</text>
<text text-anchor="start" x="1029.9173" y="-695.7" font-family="Times,serif" font-size="14.00" fill="#000000"> &#160;&#160;&#160;&#160;approve(spender: address, amount: uint256): bool</text>
<text text-anchor="start" x="1029.9173" y="-678.9" font-family="Times,serif" font-size="14.00" fill="#000000"> &#160;&#160;&#160;&#160;transferFrom(sender: address, recipient: address, amount: uint256): bool</text>
<text text-anchor="start" x="1029.9173" y="-662.1" font-family="Times,serif" font-size="14.00" fill="#000000">Public:</text>
<text text-anchor="start" x="1029.9173" y="-645.3" font-family="Times,serif" font-size="14.00" fill="#000000"> &#160;&#160;&#160;&lt;&lt;event&gt;&gt; Transfer(from: address, to: address, value: uint256)</text>
<text text-anchor="start" x="1029.9173" y="-628.5" font-family="Times,serif" font-size="14.00" fill="#000000"> &#160;&#160;&#160;&lt;&lt;event&gt;&gt; Approval(owner: address, spender: address, value: uint256)</text>
</g>
<!-- 1 -->
<g id="node2" class="node">
<title>1</title>
<polygon fill="#f2f2f2" stroke="#000000" points="614.5208,-628.7 614.5208,-854.3 971.9136,-854.3 971.9136,-628.7 614.5208,-628.7"/>
<text text-anchor="middle" x="793.2172" y="-837.7" font-family="Times,serif" font-size="14.00" fill="#000000">&lt;&lt;Library&gt;&gt;</text>
<text text-anchor="middle" x="793.2172" y="-820.9" font-family="Times,serif" font-size="14.00" fill="#000000">SafeMath</text>
<polyline fill="none" stroke="#000000" points="614.5208,-812.7 971.9136,-812.7 "/>
<text text-anchor="middle" x="793.2172" y="-796.1" font-family="Times,serif" font-size="14.00" fill="#000000"> </text>
<polyline fill="none" stroke="#000000" points="614.5208,-787.9 971.9136,-787.9 "/>
<text text-anchor="start" x="622.5208" y="-771.3" font-family="Times,serif" font-size="14.00" fill="#000000">Internal:</text>
<text text-anchor="start" x="622.5208" y="-754.5" font-family="Times,serif" font-size="14.00" fill="#000000"> &#160;&#160;&#160;add(a: uint256, b: uint256): uint256</text>
<text text-anchor="start" x="622.5208" y="-737.7" font-family="Times,serif" font-size="14.00" fill="#000000"> &#160;&#160;&#160;sub(a: uint256, b: uint256): uint256</text>
<text text-anchor="start" x="622.5208" y="-720.9" font-family="Times,serif" font-size="14.00" fill="#000000"> &#160;&#160;&#160;sub(a: uint256, b: uint256, errorMessage: string): uint256</text>
<text text-anchor="start" x="622.5208" y="-704.1" font-family="Times,serif" font-size="14.00" fill="#000000"> &#160;&#160;&#160;mul(a: uint256, b: uint256): uint256</text>
<text text-anchor="start" x="622.5208" y="-687.3" font-family="Times,serif" font-size="14.00" fill="#000000"> &#160;&#160;&#160;div(a: uint256, b: uint256): uint256</text>
<text text-anchor="start" x="622.5208" y="-670.5" font-family="Times,serif" font-size="14.00" fill="#000000"> &#160;&#160;&#160;div(a: uint256, b: uint256, errorMessage: string): uint256</text>
<text text-anchor="start" x="622.5208" y="-653.7" font-family="Times,serif" font-size="14.00" fill="#000000"> &#160;&#160;&#160;mod(a: uint256, b: uint256): uint256</text>
<text text-anchor="start" x="622.5208" y="-636.9" font-family="Times,serif" font-size="14.00" fill="#000000"> &#160;&#160;&#160;mod(a: uint256, b: uint256, errorMessage: string): uint256</text>
</g>
<!-- 2 -->
<g id="node3" class="node">
<title>2</title>
<polygon fill="#f2f2f2" stroke="#000000" points="0,-628.7 0,-854.3 596.4344,-854.3 596.4344,-628.7 0,-628.7"/>
<text text-anchor="middle" x="298.2172" y="-837.7" font-family="Times,serif" font-size="14.00" fill="#000000">&lt;&lt;Library&gt;&gt;</text>
<text text-anchor="middle" x="298.2172" y="-820.9" font-family="Times,serif" font-size="14.00" fill="#000000">Address</text>
<polyline fill="none" stroke="#000000" points="0,-812.7 596.4344,-812.7 "/>
<text text-anchor="middle" x="298.2172" y="-796.1" font-family="Times,serif" font-size="14.00" fill="#000000"> </text>
<polyline fill="none" stroke="#000000" points="0,-787.9 596.4344,-787.9 "/>
<text text-anchor="start" x="8" y="-771.3" font-family="Times,serif" font-size="14.00" fill="#000000">Private:</text>
<text text-anchor="start" x="8" y="-754.5" font-family="Times,serif" font-size="14.00" fill="#000000"> &#160;&#160;&#160;_functionCallWithValue(target: address, data: bytes, weiValue: uint256, errorMessage: string): bytes</text>
<text text-anchor="start" x="8" y="-737.7" font-family="Times,serif" font-size="14.00" fill="#000000">Internal:</text>
<text text-anchor="start" x="8" y="-720.9" font-family="Times,serif" font-size="14.00" fill="#000000"> &#160;&#160;&#160;isContract(account: address): bool</text>
<text text-anchor="start" x="8" y="-704.1" font-family="Times,serif" font-size="14.00" fill="#000000"> &#160;&#160;&#160;sendValue(recipient: address, amount: uint256)</text>
<text text-anchor="start" x="8" y="-687.3" font-family="Times,serif" font-size="14.00" fill="#000000"> &#160;&#160;&#160;functionCall(target: address, data: bytes): bytes</text>
<text text-anchor="start" x="8" y="-670.5" font-family="Times,serif" font-size="14.00" fill="#000000"> &#160;&#160;&#160;functionCall(target: address, data: bytes, errorMessage: string): bytes</text>
<text text-anchor="start" x="8" y="-653.7" font-family="Times,serif" font-size="14.00" fill="#000000"> &#160;&#160;&#160;functionCallWithValue(target: address, data: bytes, value: uint256): bytes</text>
<text text-anchor="start" x="8" y="-636.9" font-family="Times,serif" font-size="14.00" fill="#000000"> &#160;&#160;&#160;functionCallWithValue(target: address, data: bytes, value: uint256, errorMessage: string): bytes</text>
</g>
<!-- 3 -->
<g id="node4" class="node">
<title>3</title>
<polygon fill="#f2f2f2" stroke="#000000" points="545.0607,-374.5 545.0607,-583.3 1007.3737,-583.3 1007.3737,-374.5 545.0607,-374.5"/>
<text text-anchor="middle" x="776.2172" y="-566.7" font-family="Times,serif" font-size="14.00" fill="#000000">&lt;&lt;Library&gt;&gt;</text>
<text text-anchor="middle" x="776.2172" y="-549.9" font-family="Times,serif" font-size="14.00" fill="#000000">SafeERC20</text>
<polyline fill="none" stroke="#000000" points="545.0607,-541.7 1007.3737,-541.7 "/>
<text text-anchor="middle" x="776.2172" y="-525.1" font-family="Times,serif" font-size="14.00" fill="#000000"> </text>
<polyline fill="none" stroke="#000000" points="545.0607,-516.9 1007.3737,-516.9 "/>
<text text-anchor="start" x="553.0607" y="-500.3" font-family="Times,serif" font-size="14.00" fill="#000000">Private:</text>
<text text-anchor="start" x="553.0607" y="-483.5" font-family="Times,serif" font-size="14.00" fill="#000000"> &#160;&#160;&#160;_callOptionalReturn(token: IERC20, data: bytes)</text>
<text text-anchor="start" x="553.0607" y="-466.7" font-family="Times,serif" font-size="14.00" fill="#000000">Internal:</text>
<text text-anchor="start" x="553.0607" y="-449.9" font-family="Times,serif" font-size="14.00" fill="#000000"> &#160;&#160;&#160;safeTransfer(token: IERC20, to: address, value: uint256)</text>
<text text-anchor="start" x="553.0607" y="-433.1" font-family="Times,serif" font-size="14.00" fill="#000000"> &#160;&#160;&#160;safeTransferFrom(token: IERC20, from: address, to: address, value: uint256)</text>
<text text-anchor="start" x="553.0607" y="-416.3" font-family="Times,serif" font-size="14.00" fill="#000000"> &#160;&#160;&#160;safeApprove(token: IERC20, spender: address, value: uint256)</text>
<text text-anchor="start" x="553.0607" y="-399.5" font-family="Times,serif" font-size="14.00" fill="#000000"> &#160;&#160;&#160;safeIncreaseAllowance(token: IERC20, spender: address, value: uint256)</text>
<text text-anchor="start" x="553.0607" y="-382.7" font-family="Times,serif" font-size="14.00" fill="#000000"> &#160;&#160;&#160;safeDecreaseAllowance(token: IERC20, spender: address, value: uint256)</text>
</g>
<!-- 3&#45;&gt;0 -->
<g id="edge3" class="edge">
<title>3&#45;&gt;0</title>
<path fill="none" stroke="#000000" stroke-dasharray="5,2" d="M961.3336,-583.441C979.8089,-593.8746 998.701,-604.5435 1017.5162,-615.1691"/>
<polygon fill="#000000" stroke="#000000" points="1016.0192,-618.3432 1026.4478,-620.213 1019.4614,-612.248 1016.0192,-618.3432"/>
</g>
<!-- 3&#45;&gt;1 -->
<g id="edge1" class="edge">
<title>3&#45;&gt;1</title>
<path fill="none" stroke="#000000" stroke-dasharray="5,2" d="M782.9849,-583.441C783.7297,-594.9459 784.493,-606.737 785.2507,-618.4405"/>
<polygon fill="#000000" stroke="#000000" points="781.7756,-618.9404 785.9144,-628.6934 788.761,-618.4881 781.7756,-618.9404"/>
</g>
<!-- 3&#45;&gt;2 -->
<g id="edge2" class="edge">
<title>3&#45;&gt;2</title>
<path fill="none" stroke="#000000" stroke-dasharray="5,2" d="M585.9255,-583.441C561.8106,-596.689 537.0049,-610.3166 512.5474,-623.7529"/>
<polygon fill="#000000" stroke="#000000" points="510.6337,-620.8108 503.5545,-628.6934 514.0042,-626.9459 510.6337,-620.8108"/>
</g>
<!-- 4 -->
<g id="node5" class="node">
<title>4</title>
<polygon fill="#f2f2f2" stroke="#000000" points="485.925,-128.7 485.925,-337.5 938.5094,-337.5 938.5094,-128.7 485.925,-128.7"/>
<text text-anchor="middle" x="712.2172" y="-320.9" font-family="Times,serif" font-size="14.00" fill="#000000">TokenTimelock</text>
<polyline fill="none" stroke="#000000" points="485.925,-312.7 938.5094,-312.7 "/>
<text text-anchor="start" x="493.925" y="-296.1" font-family="Times,serif" font-size="14.00" fill="#000000">Private:</text>
<text text-anchor="start" x="493.925" y="-279.3" font-family="Times,serif" font-size="14.00" fill="#000000"> &#160;&#160;_token: IERC20</text>
<text text-anchor="start" x="493.925" y="-262.5" font-family="Times,serif" font-size="14.00" fill="#000000"> &#160;&#160;_beneficiary: address</text>
<text text-anchor="start" x="493.925" y="-245.7" font-family="Times,serif" font-size="14.00" fill="#000000"> &#160;&#160;_releaseTime: uint256</text>
<polyline fill="none" stroke="#000000" points="485.925,-237.5 938.5094,-237.5 "/>
<text text-anchor="start" x="493.925" y="-220.9" font-family="Times,serif" font-size="14.00" fill="#000000">Public:</text>
<text text-anchor="start" x="493.925" y="-204.1" font-family="Times,serif" font-size="14.00" fill="#000000"> &#160;&#160;&#160;constructor(token_: IERC20, beneficiary_: address, releaseTime_: uint256)</text>
<text text-anchor="start" x="493.925" y="-187.3" font-family="Times,serif" font-size="14.00" fill="#000000"> &#160;&#160;&#160;token(): IERC20</text>
<text text-anchor="start" x="493.925" y="-170.5" font-family="Times,serif" font-size="14.00" fill="#000000"> &#160;&#160;&#160;beneficiary(): address</text>
<text text-anchor="start" x="493.925" y="-153.7" font-family="Times,serif" font-size="14.00" fill="#000000"> &#160;&#160;&#160;releaseTime(): uint256</text>
<text text-anchor="start" x="493.925" y="-136.9" font-family="Times,serif" font-size="14.00" fill="#000000"> &#160;&#160;&#160;release()</text>
</g>
<!-- 4&#45;&gt;0 -->
<g id="edge5" class="edge">
<title>4&#45;&gt;0</title>
<path fill="none" stroke="#000000" d="M938.7803,-335.4756C980.1647,-354.7293 1011.8464,-370.1065 1016.2172,-374 1089.3541,-439.1514 1146.5338,-533.7872 1184.9484,-610.7071"/>
<polygon fill="#000000" stroke="#000000" points="1181.9712,-612.5827 1189.5399,-619.9965 1188.2465,-609.4809 1181.9712,-612.5827"/>
</g>
<!-- 4&#45;&gt;3 -->
<g id="edge4" class="edge">
<title>4&#45;&gt;3</title>
<path fill="none" stroke="#000000" stroke-dasharray="5,2" d="M739.4518,-337.6977C741.7753,-346.6218 744.1332,-355.6775 746.4749,-364.671"/>
<polygon fill="#000000" stroke="#000000" points="743.1002,-365.6008 749.0071,-374.3962 749.8744,-363.837 743.1002,-365.6008"/>
</g>
<!-- 5 -->
<g id="node6" class="node">
<title>5</title>
<polygon fill="#f2f2f2" stroke="#000000" points="1628.1449,-899.7 1628.1449,-1024.5 1846.2895,-1024.5 1846.2895,-899.7 1628.1449,-899.7"/>
<text text-anchor="middle" x="1737.2172" y="-1007.9" font-family="Times,serif" font-size="14.00" fill="#000000">&lt;&lt;Abstract&gt;&gt;</text>
<text text-anchor="middle" x="1737.2172" y="-991.1" font-family="Times,serif" font-size="14.00" fill="#000000">Context</text>
<polyline fill="none" stroke="#000000" points="1628.1449,-982.9 1846.2895,-982.9 "/>
<text text-anchor="middle" x="1737.2172" y="-966.3" font-family="Times,serif" font-size="14.00" fill="#000000"> </text>
<polyline fill="none" stroke="#000000" points="1628.1449,-958.1 1846.2895,-958.1 "/>
<text text-anchor="start" x="1636.1449" y="-941.5" font-family="Times,serif" font-size="14.00" fill="#000000">Internal:</text>
<text text-anchor="start" x="1636.1449" y="-924.7" font-family="Times,serif" font-size="14.00" fill="#000000"> &#160;&#160;&#160;_msgSender(): (payable: address)</text>
<text text-anchor="start" x="1636.1449" y="-907.9" font-family="Times,serif" font-size="14.00" fill="#000000"> &#160;&#160;&#160;_msgData(): bytes</text>
</g>
<!-- 6 -->
<g id="node7" class="node">
<title>6</title>
<polygon fill="#f2f2f2" stroke="#000000" points="1494.7802,-637.1 1494.7802,-845.9 1979.6542,-845.9 1979.6542,-637.1 1494.7802,-637.1"/>
<text text-anchor="middle" x="1737.2172" y="-829.3" font-family="Times,serif" font-size="14.00" fill="#000000">&lt;&lt;Abstract&gt;&gt;</text>
<text text-anchor="middle" x="1737.2172" y="-812.5" font-family="Times,serif" font-size="14.00" fill="#000000">Ownable</text>
<polyline fill="none" stroke="#000000" points="1494.7802,-804.3 1979.6542,-804.3 "/>
<text text-anchor="start" x="1502.7802" y="-787.7" font-family="Times,serif" font-size="14.00" fill="#000000">Private:</text>
<text text-anchor="start" x="1502.7802" y="-770.9" font-family="Times,serif" font-size="14.00" fill="#000000"> &#160;&#160;_owner: address</text>
<polyline fill="none" stroke="#000000" points="1494.7802,-762.7 1979.6542,-762.7 "/>
<text text-anchor="start" x="1502.7802" y="-746.1" font-family="Times,serif" font-size="14.00" fill="#000000">Public:</text>
<text text-anchor="start" x="1502.7802" y="-729.3" font-family="Times,serif" font-size="14.00" fill="#000000"> &#160;&#160;&#160;&lt;&lt;event&gt;&gt; OwnershipTransferred(previousOwner: address, newOwner: address)</text>
<text text-anchor="start" x="1502.7802" y="-712.5" font-family="Times,serif" font-size="14.00" fill="#000000"> &#160;&#160;&#160;&lt;&lt;modifier&gt;&gt; onlyOwner()</text>
<text text-anchor="start" x="1502.7802" y="-695.7" font-family="Times,serif" font-size="14.00" fill="#000000"> &#160;&#160;&#160;constructor()</text>
<text text-anchor="start" x="1502.7802" y="-678.9" font-family="Times,serif" font-size="14.00" fill="#000000"> &#160;&#160;&#160;owner(): address</text>
<text text-anchor="start" x="1502.7802" y="-662.1" font-family="Times,serif" font-size="14.00" fill="#000000"> &#160;&#160;&#160;renounceOwnership()</text>
<text text-anchor="start" x="1502.7802" y="-645.3" font-family="Times,serif" font-size="14.00" fill="#000000"> &#160;&#160;&#160;transferOwnership(newOwner: address)</text>
</g>
<!-- 6&#45;&gt;5 -->
<g id="edge6" class="edge">
<title>6&#45;&gt;5</title>
<path fill="none" stroke="#000000" d="M1737.2172,-845.9858C1737.2172,-853.6908 1737.2172,-861.4337 1737.2172,-869.0636"/>
<polygon fill="none" stroke="#000000" points="1726.7173,-869.4059 1737.2172,-899.4059 1747.7173,-869.4059 1726.7173,-869.4059"/>
</g>
<!-- 7 -->
<g id="node8" class="node">
<title>7</title>
<polygon fill="#f2f2f2" stroke="#000000" points="1545.7059,-433.3 1545.7059,-524.5 1928.7285,-524.5 1928.7285,-433.3 1545.7059,-433.3"/>
<text text-anchor="middle" x="1737.2172" y="-507.9" font-family="Times,serif" font-size="14.00" fill="#000000">TokenRecover</text>
<polyline fill="none" stroke="#000000" points="1545.7059,-499.7 1928.7285,-499.7 "/>
<text text-anchor="middle" x="1737.2172" y="-483.1" font-family="Times,serif" font-size="14.00" fill="#000000"> </text>
<polyline fill="none" stroke="#000000" points="1545.7059,-474.9 1928.7285,-474.9 "/>
<text text-anchor="start" x="1553.7059" y="-458.3" font-family="Times,serif" font-size="14.00" fill="#000000">Public:</text>
<text text-anchor="start" x="1553.7059" y="-441.5" font-family="Times,serif" font-size="14.00" fill="#000000"> &#160;&#160;&#160;recoverERC20(tokenAddress: address, tokenAmount: uint256)</text>
</g>
<!-- 7&#45;&gt;0 -->
<g id="edge8" class="edge">
<title>7&#45;&gt;0</title>
<path fill="none" stroke="#000000" stroke-dasharray="5,2" d="M1650.8206,-524.6414C1600.3882,-551.3422 1534.1634,-586.4039 1469.7072,-620.5293"/>
<polygon fill="#000000" stroke="#000000" points="1467.8258,-617.565 1460.6257,-625.3374 1471.1012,-623.7515 1467.8258,-617.565"/>
</g>
<!-- 7&#45;&gt;6 -->
<g id="edge7" class="edge">
<title>7&#45;&gt;6</title>
<path fill="none" stroke="#000000" d="M1737.2172,-524.6414C1737.2172,-547.7746 1737.2172,-577.1838 1737.2172,-606.8226"/>
<polygon fill="none" stroke="#000000" points="1726.7173,-606.9236 1737.2172,-636.9236 1747.7173,-606.9236 1726.7173,-606.9236"/>
</g>
<!-- 8 -->
<g id="node9" class="node">
<title>8</title>
<polygon fill="#f2f2f2" stroke="#000000" points="1535.9801,-128.7 1535.9801,-337.5 1938.4543,-337.5 1938.4543,-128.7 1535.9801,-128.7"/>
<text text-anchor="middle" x="1737.2172" y="-320.9" font-family="Times,serif" font-size="14.00" fill="#000000">ServiceReceiver</text>
<polyline fill="none" stroke="#000000" points="1535.9801,-312.7 1938.4543,-312.7 "/>
<text text-anchor="start" x="1543.9801" y="-296.1" font-family="Times,serif" font-size="14.00" fill="#000000">Private:</text>
<text text-anchor="start" x="1543.9801" y="-279.3" font-family="Times,serif" font-size="14.00" fill="#000000"> &#160;&#160;_prices: mapping(bytes32=&gt;uint256)</text>
<polyline fill="none" stroke="#000000" points="1535.9801,-271.1 1938.4543,-271.1 "/>
<text text-anchor="start" x="1543.9801" y="-254.5" font-family="Times,serif" font-size="14.00" fill="#000000">Private:</text>
<text text-anchor="start" x="1543.9801" y="-237.7" font-family="Times,serif" font-size="14.00" fill="#000000"> &#160;&#160;&#160;_toBytes32(serviceName: string): bytes32</text>
<text text-anchor="start" x="1543.9801" y="-220.9" font-family="Times,serif" font-size="14.00" fill="#000000">Public:</text>
<text text-anchor="start" x="1543.9801" y="-204.1" font-family="Times,serif" font-size="14.00" fill="#000000"> &#160;&#160;&#160;&lt;&lt;payable&gt;&gt; pay(serviceName: string)</text>
<text text-anchor="start" x="1543.9801" y="-187.3" font-family="Times,serif" font-size="14.00" fill="#000000"> &#160;&#160;&#160;&lt;&lt;event&gt;&gt; Created(serviceName: string, serviceAddress: address)</text>
<text text-anchor="start" x="1543.9801" y="-170.5" font-family="Times,serif" font-size="14.00" fill="#000000"> &#160;&#160;&#160;getPrice(serviceName: string): uint256</text>
<text text-anchor="start" x="1543.9801" y="-153.7" font-family="Times,serif" font-size="14.00" fill="#000000"> &#160;&#160;&#160;setPrice(serviceName: string, amount: uint256)</text>
<text text-anchor="start" x="1543.9801" y="-136.9" font-family="Times,serif" font-size="14.00" fill="#000000"> &#160;&#160;&#160;withdraw(amount: uint256)</text>
</g>
<!-- 8&#45;&gt;7 -->
<g id="edge9" class="edge">
<title>8&#45;&gt;7</title>
<path fill="none" stroke="#000000" d="M1737.2172,-337.6977C1737.2172,-359.5637 1737.2172,-382.2204 1737.2172,-402.8149"/>
<polygon fill="none" stroke="#000000" points="1726.7173,-403.0705 1737.2172,-433.0705 1747.7173,-403.0706 1726.7173,-403.0705"/>
</g>
<!-- 9 -->
<g id="node10" class="node">
<title>9</title>
<polygon fill="#f2f2f2" stroke="#000000" points="956.1771,-187.5 956.1771,-278.7 1272.2573,-278.7 1272.2573,-187.5 956.1771,-187.5"/>
<text text-anchor="middle" x="1114.2172" y="-262.1" font-family="Times,serif" font-size="14.00" fill="#000000">ServicePayer</text>
<polyline fill="none" stroke="#000000" points="956.1771,-253.9 1272.2573,-253.9 "/>
<text text-anchor="middle" x="1114.2172" y="-237.3" font-family="Times,serif" font-size="14.00" fill="#000000"> </text>
<polyline fill="none" stroke="#000000" points="956.1771,-229.1 1272.2573,-229.1 "/>
<text text-anchor="start" x="964.1771" y="-212.5" font-family="Times,serif" font-size="14.00" fill="#000000">Public:</text>
<text text-anchor="start" x="964.1771" y="-195.7" font-family="Times,serif" font-size="14.00" fill="#000000"> &#160;&#160;&#160;constructor(receiver: address, serviceName: string)</text>
</g>
<!-- 10 -->
<g id="node11" class="node">
<title>10</title>
<polygon fill="#f2f2f2" stroke="#000000" points="1290.3248,-153.9 1290.3248,-312.3 1480.1096,-312.3 1480.1096,-153.9 1290.3248,-153.9"/>
<text text-anchor="middle" x="1385.2172" y="-295.7" font-family="Times,serif" font-size="14.00" fill="#000000">GeneratorCopyright</text>
<polyline fill="none" stroke="#000000" points="1290.3248,-287.5 1480.1096,-287.5 "/>
<text text-anchor="start" x="1298.3248" y="-270.9" font-family="Times,serif" font-size="14.00" fill="#000000">Private:</text>
<text text-anchor="start" x="1298.3248" y="-254.1" font-family="Times,serif" font-size="14.00" fill="#000000"> &#160;&#160;_GENERATOR: string</text>
<text text-anchor="start" x="1298.3248" y="-237.3" font-family="Times,serif" font-size="14.00" fill="#000000"> &#160;&#160;_version: string</text>
<polyline fill="none" stroke="#000000" points="1290.3248,-229.1 1480.1096,-229.1 "/>
<text text-anchor="start" x="1298.3248" y="-212.5" font-family="Times,serif" font-size="14.00" fill="#000000">Public:</text>
<text text-anchor="start" x="1298.3248" y="-195.7" font-family="Times,serif" font-size="14.00" fill="#000000"> &#160;&#160;&#160;constructor(version_: string)</text>
<text text-anchor="start" x="1298.3248" y="-178.9" font-family="Times,serif" font-size="14.00" fill="#000000"> &#160;&#160;&#160;generator(): string</text>
<text text-anchor="start" x="1298.3248" y="-162.1" font-family="Times,serif" font-size="14.00" fill="#000000"> &#160;&#160;&#160;version(): string</text>
</g>
<!-- 11 -->
<g id="node12" class="node">
<title>11</title>
<polygon fill="#f2f2f2" stroke="#000000" points="826.3222,-.5 826.3222,-91.7 1402.1122,-91.7 1402.1122,-.5 826.3222,-.5"/>
<text text-anchor="middle" x="1114.2172" y="-75.1" font-family="Times,serif" font-size="14.00" fill="#000000">SimpleTimelock</text>
<polyline fill="none" stroke="#000000" points="826.3222,-66.9 1402.1122,-66.9 "/>
<text text-anchor="middle" x="1114.2172" y="-50.3" font-family="Times,serif" font-size="14.00" fill="#000000"> </text>
<polyline fill="none" stroke="#000000" points="826.3222,-42.1 1402.1122,-42.1 "/>
<text text-anchor="start" x="834.3222" y="-25.5" font-family="Times,serif" font-size="14.00" fill="#000000">Public:</text>
<text text-anchor="start" x="834.3222" y="-8.7" font-family="Times,serif" font-size="14.00" fill="#000000"> &#160;&#160;&#160;constructor(token_: IERC20, beneficiary_: address, releaseTime_: uint256, feeReceiver: address)</text>
</g>
<!-- 11&#45;&gt;0 -->
<g id="edge13" class="edge">
<title>11&#45;&gt;0</title>
<path fill="none" stroke="#000000" stroke-dasharray="5,2" d="M1402.2653,-85.7074C1442.6209,-96.7898 1475.1674,-110.7414 1489.2172,-128.2 1547.6768,-200.843 1514.5869,-248.2732 1489.2172,-338 1461.0485,-437.6265 1400.5951,-536.8625 1346.4295,-611.9915"/>
<polygon fill="#000000" stroke="#000000" points="1343.5801,-609.9588 1340.5355,-620.1068 1349.2439,-614.0724 1343.5801,-609.9588"/>
</g>
<!-- 11&#45;&gt;4 -->
<g id="edge10" class="edge">
<title>11&#45;&gt;4</title>
<path fill="none" stroke="#000000" d="M1016.1341,-91.7257C999.8324,-99.3088 982.2939,-107.4673 964.1633,-115.9012"/>
<polygon fill="none" stroke="#000000" points="959.5392,-106.4717 936.7668,-128.6453 968.3965,-125.5124 959.5392,-106.4717"/>
</g>
<!-- 11&#45;&gt;9 -->
<g id="edge11" class="edge">
<title>11&#45;&gt;9</title>
<path fill="none" stroke="#000000" d="M1114.2172,-91.8453C1114.2172,-111.4282 1114.2172,-134.8314 1114.2172,-156.9019"/>
<polygon fill="none" stroke="#000000" points="1103.7173,-157.1788 1114.2172,-187.1788 1124.7173,-157.1788 1103.7173,-157.1788"/>
</g>
<!-- 11&#45;&gt;10 -->
<g id="edge12" class="edge">
<title>11&#45;&gt;10</title>
<path fill="none" stroke="#000000" d="M1220.6267,-91.7801C1241.4532,-102.5327 1262.5926,-114.8104 1281.2172,-128.2 1283.8721,-130.1086 1286.5205,-132.0874 1289.1565,-134.1245"/>
<polygon fill="none" stroke="#000000" points="1282.6832,-142.4008 1312.3846,-153.7181 1296.2235,-126.349 1282.6832,-142.4008"/>
</g>
</g>
</svg>
