<?xml version="1.0" encoding="UTF-8" standalone="no"?>
<!DOCTYPE svg PUBLIC "-//W3C//DTD SVG 1.1//EN"
 "http://www.w3.org/Graphics/SVG/1.1/DTD/svg11.dtd">
<!-- Generated by graphviz version 2.40.1 (20161225.0304)
 -->
<!-- Title: UmlClassDiagram Pages: 1 -->
<svg width="926pt" height="1251pt"
 viewBox="0.00 0.00 925.99 1251.40" xmlns="http://www.w3.org/2000/svg" xmlns:xlink="http://www.w3.org/1999/xlink">
<g id="graph0" class="graph" transform="scale(1 1) rotate(0) translate(4 1247.4)">
<title>UmlClassDiagram</title>
<polygon fill="#ffffff" stroke="transparent" points="-4,4 -4,-1247.4 921.9893,-1247.4 921.9893,4 -4,4"/>
<!-- 0 -->
<g id="node1" class="node">
<title>0</title>
<polygon fill="#f2f2f2" stroke="#000000" points="0,-1000.5 0,-1242.9 438.5998,-1242.9 438.5998,-1000.5 0,-1000.5"/>
<text text-anchor="middle" x="219.2999" y="-1226.3" font-family="Times,serif" font-size="14.00" fill="#000000">&lt;&lt;Interface&gt;&gt;</text>
<text text-anchor="middle" x="219.2999" y="-1209.5" font-family="Times,serif" font-size="14.00" fill="#000000">IERC20</text>
<polyline fill="none" stroke="#000000" points="0,-1201.3 438.5998,-1201.3 "/>
<text text-anchor="middle" x="219.2999" y="-1184.7" font-family="Times,serif" font-size="14.00" fill="#000000"> </text>
<polyline fill="none" stroke="#000000" points="0,-1176.5 438.5998,-1176.5 "/>
<text text-anchor="start" x="8" y="-1159.9" font-family="Times,serif" font-size="14.00" fill="#000000">External:</text>
<text text-anchor="start" x="8" y="-1143.1" font-family="Times,serif" font-size="14.00" fill="#000000"> &#160;&#160;&#160;&#160;totalSupply(): uint256</text>
<text text-anchor="start" x="8" y="-1126.3" font-family="Times,serif" font-size="14.00" fill="#000000"> &#160;&#160;&#160;&#160;balanceOf(account: address): uint256</text>
<text text-anchor="start" x="8" y="-1109.5" font-family="Times,serif" font-size="14.00" fill="#000000"> &#160;&#160;&#160;&#160;transfer(recipient: address, amount: uint256): bool</text>
<text text-anchor="start" x="8" y="-1092.7" font-family="Times,serif" font-size="14.00" fill="#000000"> &#160;&#160;&#160;&#160;allowance(owner: address, spender: address): uint256</text>
<text text-anchor="start" x="8" y="-1075.9" font-family="Times,serif" font-size="14.00" fill="#000000"> &#160;&#160;&#160;&#160;approve(spender: address, amount: uint256): bool</text>
<text text-anchor="start" x="8" y="-1059.1" font-family="Times,serif" font-size="14.00" fill="#000000"> &#160;&#160;&#160;&#160;transferFrom(sender: address, recipient: address, amount: uint256): bool</text>
<text text-anchor="start" x="8" y="-1042.3" font-family="Times,serif" font-size="14.00" fill="#000000">Public:</text>
<text text-anchor="start" x="8" y="-1025.5" font-family="Times,serif" font-size="14.00" fill="#000000"> &#160;&#160;&#160;&lt;&lt;event&gt;&gt; Transfer(from: address, to: address, value: uint256)</text>
<text text-anchor="start" x="8" y="-1008.7" font-family="Times,serif" font-size="14.00" fill="#000000"> &#160;&#160;&#160;&lt;&lt;event&gt;&gt; Approval(owner: address, spender: address, value: uint256)</text>
</g>
<!-- 1 -->
<g id="node2" class="node">
<title>1</title>
<polygon fill="#f2f2f2" stroke="#000000" points="200.9233,-821.9 200.9233,-963.5 329.6765,-963.5 329.6765,-821.9 200.9233,-821.9"/>
<text text-anchor="middle" x="265.2999" y="-946.9" font-family="Times,serif" font-size="14.00" fill="#000000">&lt;&lt;Interface&gt;&gt;</text>
<text text-anchor="middle" x="265.2999" y="-930.1" font-family="Times,serif" font-size="14.00" fill="#000000">IERC20Metadata</text>
<polyline fill="none" stroke="#000000" points="200.9233,-921.9 329.6765,-921.9 "/>
<text text-anchor="middle" x="265.2999" y="-905.3" font-family="Times,serif" font-size="14.00" fill="#000000"> </text>
<polyline fill="none" stroke="#000000" points="200.9233,-897.1 329.6765,-897.1 "/>
<text text-anchor="start" x="208.9233" y="-880.5" font-family="Times,serif" font-size="14.00" fill="#000000">External:</text>
<text text-anchor="start" x="208.9233" y="-863.7" font-family="Times,serif" font-size="14.00" fill="#000000"> &#160;&#160;&#160;&#160;name(): string</text>
<text text-anchor="start" x="208.9233" y="-846.9" font-family="Times,serif" font-size="14.00" fill="#000000"> &#160;&#160;&#160;&#160;symbol(): string</text>
<text text-anchor="start" x="208.9233" y="-830.1" font-family="Times,serif" font-size="14.00" fill="#000000"> &#160;&#160;&#160;&#160;decimals(): uint8</text>
</g>
<!-- 1&#45;&gt;0 -->
<g id="edge1" class="edge">
<title>1&#45;&gt;0</title>
<path fill="none" stroke="#000000" stroke-dasharray="5,2" d="M251.0602,-963.5888C250.6016,-965.8721 250.1374,-968.1827 249.6687,-970.516"/>
<polygon fill="none" stroke="#000000" points="239.32,-968.7191 243.7061,-1000.1994 259.9088,-972.8548 239.32,-968.7191"/>
</g>
<!-- 2 -->
<g id="node3" class="node">
<title>2</title>
<polygon fill="#f2f2f2" stroke="#000000" points="347.3507,-830.3 347.3507,-955.1 505.2491,-955.1 505.2491,-830.3 347.3507,-830.3"/>
<text text-anchor="middle" x="426.2999" y="-938.5" font-family="Times,serif" font-size="14.00" fill="#000000">&lt;&lt;Abstract&gt;&gt;</text>
<text text-anchor="middle" x="426.2999" y="-921.7" font-family="Times,serif" font-size="14.00" fill="#000000">Context</text>
<polyline fill="none" stroke="#000000" points="347.3507,-913.5 505.2491,-913.5 "/>
<text text-anchor="middle" x="426.2999" y="-896.9" font-family="Times,serif" font-size="14.00" fill="#000000"> </text>
<polyline fill="none" stroke="#000000" points="347.3507,-888.7 505.2491,-888.7 "/>
<text text-anchor="start" x="355.3507" y="-872.1" font-family="Times,serif" font-size="14.00" fill="#000000">Internal:</text>
<text text-anchor="start" x="355.3507" y="-855.3" font-family="Times,serif" font-size="14.00" fill="#000000"> &#160;&#160;&#160;_msgSender(): address</text>
<text text-anchor="start" x="355.3507" y="-838.5" font-family="Times,serif" font-size="14.00" fill="#000000"> &#160;&#160;&#160;_msgData(): bytes</text>
</g>
<!-- 3 -->
<g id="node4" class="node">
<title>3</title>
<polygon fill="#f2f2f2" stroke="#000000" points="47.75,-324.1 47.75,-784.9 482.8498,-784.9 482.8498,-324.1 47.75,-324.1"/>
<text text-anchor="middle" x="265.2999" y="-768.3" font-family="Times,serif" font-size="14.00" fill="#000000">ERC20</text>
<polyline fill="none" stroke="#000000" points="47.75,-760.1 482.8498,-760.1 "/>
<text text-anchor="start" x="55.75" y="-743.5" font-family="Times,serif" font-size="14.00" fill="#000000">Private:</text>
<text text-anchor="start" x="55.75" y="-726.7" font-family="Times,serif" font-size="14.00" fill="#000000"> &#160;&#160;_balances: mapping(address=&gt;uint256)</text>
<text text-anchor="start" x="55.75" y="-709.9" font-family="Times,serif" font-size="14.00" fill="#000000"> &#160;&#160;_allowances: mapping(address=&gt;mapping(address=&gt;uint256))</text>
<text text-anchor="start" x="55.75" y="-693.1" font-family="Times,serif" font-size="14.00" fill="#000000"> &#160;&#160;_totalSupply: uint256</text>
<text text-anchor="start" x="55.75" y="-676.3" font-family="Times,serif" font-size="14.00" fill="#000000"> &#160;&#160;_name: string</text>
<text text-anchor="start" x="55.75" y="-659.5" font-family="Times,serif" font-size="14.00" fill="#000000"> &#160;&#160;_symbol: string</text>
<polyline fill="none" stroke="#000000" points="47.75,-651.3 482.8498,-651.3 "/>
<text text-anchor="start" x="55.75" y="-634.7" font-family="Times,serif" font-size="14.00" fill="#000000">Internal:</text>
<text text-anchor="start" x="55.75" y="-617.9" font-family="Times,serif" font-size="14.00" fill="#000000"> &#160;&#160;&#160;_transfer(sender: address, recipient: address, amount: uint256)</text>
<text text-anchor="start" x="55.75" y="-601.1" font-family="Times,serif" font-size="14.00" fill="#000000"> &#160;&#160;&#160;_mint(account: address, amount: uint256)</text>
<text text-anchor="start" x="55.75" y="-584.3" font-family="Times,serif" font-size="14.00" fill="#000000"> &#160;&#160;&#160;_burn(account: address, amount: uint256)</text>
<text text-anchor="start" x="55.75" y="-567.5" font-family="Times,serif" font-size="14.00" fill="#000000"> &#160;&#160;&#160;_approve(owner: address, spender: address, amount: uint256)</text>
<text text-anchor="start" x="55.75" y="-550.7" font-family="Times,serif" font-size="14.00" fill="#000000"> &#160;&#160;&#160;_beforeTokenTransfer(from: address, to: address, amount: uint256)</text>
<text text-anchor="start" x="55.75" y="-533.9" font-family="Times,serif" font-size="14.00" fill="#000000">Public:</text>
<text text-anchor="start" x="55.75" y="-517.1" font-family="Times,serif" font-size="14.00" fill="#000000"> &#160;&#160;&#160;constructor(name_: string, symbol_: string)</text>
<text text-anchor="start" x="55.75" y="-500.3" font-family="Times,serif" font-size="14.00" fill="#000000"> &#160;&#160;&#160;name(): string</text>
<text text-anchor="start" x="55.75" y="-483.5" font-family="Times,serif" font-size="14.00" fill="#000000"> &#160;&#160;&#160;symbol(): string</text>
<text text-anchor="start" x="55.75" y="-466.7" font-family="Times,serif" font-size="14.00" fill="#000000"> &#160;&#160;&#160;decimals(): uint8</text>
<text text-anchor="start" x="55.75" y="-449.9" font-family="Times,serif" font-size="14.00" fill="#000000"> &#160;&#160;&#160;totalSupply(): uint256</text>
<text text-anchor="start" x="55.75" y="-433.1" font-family="Times,serif" font-size="14.00" fill="#000000"> &#160;&#160;&#160;balanceOf(account: address): uint256</text>
<text text-anchor="start" x="55.75" y="-416.3" font-family="Times,serif" font-size="14.00" fill="#000000"> &#160;&#160;&#160;transfer(recipient: address, amount: uint256): bool</text>
<text text-anchor="start" x="55.75" y="-399.5" font-family="Times,serif" font-size="14.00" fill="#000000"> &#160;&#160;&#160;allowance(owner: address, spender: address): uint256</text>
<text text-anchor="start" x="55.75" y="-382.7" font-family="Times,serif" font-size="14.00" fill="#000000"> &#160;&#160;&#160;approve(spender: address, amount: uint256): bool</text>
<text text-anchor="start" x="55.75" y="-365.9" font-family="Times,serif" font-size="14.00" fill="#000000"> &#160;&#160;&#160;transferFrom(sender: address, recipient: address, amount: uint256): bool</text>
<text text-anchor="start" x="55.75" y="-349.1" font-family="Times,serif" font-size="14.00" fill="#000000"> &#160;&#160;&#160;increaseAllowance(spender: address, addedValue: uint256): bool</text>
<text text-anchor="start" x="55.75" y="-332.3" font-family="Times,serif" font-size="14.00" fill="#000000"> &#160;&#160;&#160;decreaseAllowance(spender: address, subtractedValue: uint256): bool</text>
</g>
<!-- 3&#45;&gt;0 -->
<g id="edge3" class="edge">
<title>3&#45;&gt;0</title>
<path fill="none" stroke="#000000" stroke-dasharray="5,2" d="M198.1569,-785.1863C195.8807,-797.3737 193.8983,-809.4972 192.2999,-821.4 183.8647,-884.2139 186.9329,-900.8499 192.2999,-964 192.4717,-966.0217 192.6557,-968.0565 192.8511,-970.1018"/>
<polygon fill="none" stroke="#000000" points="182.4507,-971.5662 196.3712,-1000.1401 203.308,-969.1219 182.4507,-971.5662"/>
</g>
<!-- 3&#45;&gt;1 -->
<g id="edge4" class="edge">
<title>3&#45;&gt;1</title>
<path fill="none" stroke="#000000" stroke-dasharray="5,2" d="M265.2999,-785.2267C265.2999,-787.3298 265.2999,-789.4182 265.2999,-791.4902"/>
<polygon fill="none" stroke="#000000" points="254.8,-791.6846 265.2999,-821.6847 275.8,-791.6847 254.8,-791.6846"/>
</g>
<!-- 3&#45;&gt;2 -->
<g id="edge2" class="edge">
<title>3&#45;&gt;2</title>
<path fill="none" stroke="#000000" d="M375.1373,-785.2267C378.0082,-791.2574 380.8214,-797.1669 383.5593,-802.9182"/>
<polygon fill="none" stroke="#000000" points="374.1636,-807.6097 396.5391,-830.1838 393.1247,-798.5833 374.1636,-807.6097"/>
</g>
<!-- 4 -->
<g id="node5" class="node">
<title>4</title>
<polygon fill="#f2f2f2" stroke="#000000" points="167.6852,-145.5 167.6852,-287.1 362.9146,-287.1 362.9146,-145.5 167.6852,-145.5"/>
<text text-anchor="middle" x="265.2999" y="-270.5" font-family="Times,serif" font-size="14.00" fill="#000000">&lt;&lt;Abstract&gt;&gt;</text>
<text text-anchor="middle" x="265.2999" y="-253.7" font-family="Times,serif" font-size="14.00" fill="#000000">ERC20Decimals</text>
<polyline fill="none" stroke="#000000" points="167.6852,-245.5 362.9146,-245.5 "/>
<text text-anchor="start" x="175.6852" y="-228.9" font-family="Times,serif" font-size="14.00" fill="#000000">Private:</text>
<text text-anchor="start" x="175.6852" y="-212.1" font-family="Times,serif" font-size="14.00" fill="#000000"> &#160;&#160;_decimals: uint8</text>
<polyline fill="none" stroke="#000000" points="167.6852,-203.9 362.9146,-203.9 "/>
<text text-anchor="start" x="175.6852" y="-187.3" font-family="Times,serif" font-size="14.00" fill="#000000">Public:</text>
<text text-anchor="start" x="175.6852" y="-170.5" font-family="Times,serif" font-size="14.00" fill="#000000"> &#160;&#160;&#160;constructor(decimals_: uint8)</text>
<text text-anchor="start" x="175.6852" y="-153.7" font-family="Times,serif" font-size="14.00" fill="#000000"> &#160;&#160;&#160;decimals(): uint8</text>
</g>
<!-- 4&#45;&gt;3 -->
<g id="edge5" class="edge">
<title>4&#45;&gt;3</title>
<path fill="none" stroke="#000000" d="M265.2999,-287.1978C265.2999,-289.3405 265.2999,-291.5155 265.2999,-293.7202"/>
<polygon fill="none" stroke="#000000" points="254.8,-293.8659 265.2999,-323.8659 275.8,-293.8659 254.8,-293.8659"/>
</g>
<!-- 5 -->
<g id="node6" class="node">
<title>5</title>
<polygon fill="#f2f2f2" stroke="#000000" points="742.6105,-.5 742.6105,-108.5 917.9893,-108.5 917.9893,-.5 742.6105,-.5"/>
<text text-anchor="middle" x="830.2999" y="-91.9" font-family="Times,serif" font-size="14.00" fill="#000000">&lt;&lt;Interface&gt;&gt;</text>
<text text-anchor="middle" x="830.2999" y="-75.1" font-family="Times,serif" font-size="14.00" fill="#000000">IPayable</text>
<polyline fill="none" stroke="#000000" points="742.6105,-66.9 917.9893,-66.9 "/>
<text text-anchor="middle" x="830.2999" y="-50.3" font-family="Times,serif" font-size="14.00" fill="#000000"> </text>
<polyline fill="none" stroke="#000000" points="742.6105,-42.1 917.9893,-42.1 "/>
<text text-anchor="start" x="750.6105" y="-25.5" font-family="Times,serif" font-size="14.00" fill="#000000">External:</text>
<text text-anchor="start" x="750.6105" y="-8.7" font-family="Times,serif" font-size="14.00" fill="#000000"> &#160;&#160;&#160;&#160;pay(serviceName: string)</text>
</g>
<!-- 6 -->
<g id="node7" class="node">
<title>6</title>
<polygon fill="#f2f2f2" stroke="#000000" points="381.2598,-162.3 381.2598,-270.3 697.34,-270.3 697.34,-162.3 381.2598,-162.3"/>
<text text-anchor="middle" x="539.2999" y="-253.7" font-family="Times,serif" font-size="14.00" fill="#000000">&lt;&lt;Abstract&gt;&gt;</text>
<text text-anchor="middle" x="539.2999" y="-236.9" font-family="Times,serif" font-size="14.00" fill="#000000">ServicePayer</text>
<polyline fill="none" stroke="#000000" points="381.2598,-228.7 697.34,-228.7 "/>
<text text-anchor="middle" x="539.2999" y="-212.1" font-family="Times,serif" font-size="14.00" fill="#000000"> </text>
<polyline fill="none" stroke="#000000" points="381.2598,-203.9 697.34,-203.9 "/>
<text text-anchor="start" x="389.2598" y="-187.3" font-family="Times,serif" font-size="14.00" fill="#000000">Public:</text>
<text text-anchor="start" x="389.2598" y="-170.5" font-family="Times,serif" font-size="14.00" fill="#000000"> &#160;&#160;&#160;constructor(receiver: address, serviceName: string)</text>
</g>
<!-- 7 -->
<g id="node8" class="node">
<title>7</title>
<polygon fill="#f2f2f2" stroke="#000000" points="79.5701,-.5 79.5701,-108.5 725.0297,-108.5 725.0297,-.5 79.5701,-.5"/>
<text text-anchor="middle" x="402.2999" y="-91.9" font-family="Times,serif" font-size="14.00" fill="#000000">StandardERC20</text>
<polyline fill="none" stroke="#000000" points="79.5701,-83.7 725.0297,-83.7 "/>
<text text-anchor="middle" x="402.2999" y="-67.1" font-family="Times,serif" font-size="14.00" fill="#000000"> </text>
<polyline fill="none" stroke="#000000" points="79.5701,-58.9 725.0297,-58.9 "/>
<text text-anchor="start" x="87.5701" y="-42.3" font-family="Times,serif" font-size="14.00" fill="#000000">Public:</text>
<text text-anchor="start" x="87.5701" y="-25.5" font-family="Times,serif" font-size="14.00" fill="#000000"> &#160;&#160;&#160;constructor(name_: string, symbol_: string, decimals_: uint8, initialBalance_: uint256, feeReceiver_: address)</text>
<text text-anchor="start" x="87.5701" y="-8.7" font-family="Times,serif" font-size="14.00" fill="#000000"> &#160;&#160;&#160;decimals(): uint8</text>
</g>
<!-- 7&#45;&gt;4 -->
<g id="edge6" class="edge">
<title>7&#45;&gt;4</title>
<path fill="none" stroke="#000000" d="M356.2998,-108.8272C352.5685,-113.2338 348.7371,-117.7589 344.857,-122.3413"/>
<polygon fill="none" stroke="#000000" points="336.663,-115.7696 325.2904,-145.4499 352.6897,-129.3398 336.663,-115.7696"/>
</g>
<!-- 7&#45;&gt;6 -->
<g id="edge7" class="edge">
<title>7&#45;&gt;6</title>
<path fill="none" stroke="#000000" d="M448.3,-108.8272C456.4767,-118.484 465.1345,-128.7091 473.7307,-138.8614"/>
<polygon fill="none" stroke="#000000" points="466.022,-146.0061 493.4212,-162.1162 482.0486,-132.436 466.022,-146.0061"/>
</g>
</g>
</svg>
