<?xml version="1.0" encoding="UTF-8" standalone="no"?>
<!DOCTYPE svg PUBLIC "-//W3C//DTD SVG 1.1//EN"
 "http://www.w3.org/Graphics/SVG/1.1/DTD/svg11.dtd">
<!-- Generated by graphviz version 2.40.1 (20161225.0304)
 -->
<!-- Title: UmlClassDiagram Pages: 1 -->
<svg width="1879pt" height="1436pt"
 viewBox="0.00 0.00 1879.20 1436.20" xmlns="http://www.w3.org/2000/svg" xmlns:xlink="http://www.w3.org/1999/xlink">
<g id="graph0" class="graph" transform="scale(1 1) rotate(0) translate(4 1432.2)">
<title>UmlClassDiagram</title>
<polygon fill="#ffffff" stroke="transparent" points="-4,4 -4,-1432.2 1875.2035,-1432.2 1875.2035,4 -4,4"/>
<!-- 0 -->
<g id="node1" class="node">
<title>0</title>
<polygon fill="#f2f2f2" stroke="#000000" points="640.6655,-998.3 640.6655,-1123.1 798.5639,-1123.1 798.5639,-998.3 640.6655,-998.3"/>
<text text-anchor="middle" x="719.6147" y="-1106.5" font-family="Times,serif" font-size="14.00" fill="#000000">&lt;&lt;Abstract&gt;&gt;</text>
<text text-anchor="middle" x="719.6147" y="-1089.7" font-family="Times,serif" font-size="14.00" fill="#000000">Context</text>
<polyline fill="none" stroke="#000000" points="640.6655,-1081.5 798.5639,-1081.5 "/>
<text text-anchor="middle" x="719.6147" y="-1064.9" font-family="Times,serif" font-size="14.00" fill="#000000"> </text>
<polyline fill="none" stroke="#000000" points="640.6655,-1056.7 798.5639,-1056.7 "/>
<text text-anchor="start" x="648.6655" y="-1040.1" font-family="Times,serif" font-size="14.00" fill="#000000">Internal:</text>
<text text-anchor="start" x="648.6655" y="-1023.3" font-family="Times,serif" font-size="14.00" fill="#000000"> &#160;&#160;&#160;_msgSender(): address</text>
<text text-anchor="start" x="648.6655" y="-1006.5" font-family="Times,serif" font-size="14.00" fill="#000000"> &#160;&#160;&#160;_msgData(): bytes</text>
</g>
<!-- 1 -->
<g id="node2" class="node">
<title>1</title>
<polygon fill="#f2f2f2" stroke="#000000" points="615.1777,-601.3 615.1777,-810.1 1100.0517,-810.1 1100.0517,-601.3 615.1777,-601.3"/>
<text text-anchor="middle" x="857.6147" y="-793.5" font-family="Times,serif" font-size="14.00" fill="#000000">&lt;&lt;Abstract&gt;&gt;</text>
<text text-anchor="middle" x="857.6147" y="-776.7" font-family="Times,serif" font-size="14.00" fill="#000000">Ownable</text>
<polyline fill="none" stroke="#000000" points="615.1777,-768.5 1100.0517,-768.5 "/>
<text text-anchor="start" x="623.1777" y="-751.9" font-family="Times,serif" font-size="14.00" fill="#000000">Private:</text>
<text text-anchor="start" x="623.1777" y="-735.1" font-family="Times,serif" font-size="14.00" fill="#000000"> &#160;&#160;_owner: address</text>
<polyline fill="none" stroke="#000000" points="615.1777,-726.9 1100.0517,-726.9 "/>
<text text-anchor="start" x="623.1777" y="-710.3" font-family="Times,serif" font-size="14.00" fill="#000000">Public:</text>
<text text-anchor="start" x="623.1777" y="-693.5" font-family="Times,serif" font-size="14.00" fill="#000000"> &#160;&#160;&#160;&lt;&lt;event&gt;&gt; OwnershipTransferred(previousOwner: address, newOwner: address)</text>
<text text-anchor="start" x="623.1777" y="-676.7" font-family="Times,serif" font-size="14.00" fill="#000000"> &#160;&#160;&#160;&lt;&lt;modifier&gt;&gt; onlyOwner()</text>
<text text-anchor="start" x="623.1777" y="-659.9" font-family="Times,serif" font-size="14.00" fill="#000000"> &#160;&#160;&#160;constructor()</text>
<text text-anchor="start" x="623.1777" y="-643.1" font-family="Times,serif" font-size="14.00" fill="#000000"> &#160;&#160;&#160;owner(): address</text>
<text text-anchor="start" x="623.1777" y="-626.3" font-family="Times,serif" font-size="14.00" fill="#000000"> &#160;&#160;&#160;renounceOwnership()</text>
<text text-anchor="start" x="623.1777" y="-609.5" font-family="Times,serif" font-size="14.00" fill="#000000"> &#160;&#160;&#160;transferOwnership(newOwner: address)</text>
</g>
<!-- 1&#45;&gt;0 -->
<g id="edge2" class="edge">
<title>1&#45;&gt;0</title>
<path fill="none" stroke="#000000" d="M816.9565,-810.2916C797.2569,-860.9682 773.8268,-921.2414 754.8905,-969.9542"/>
<polygon fill="none" stroke="#000000" points="744.98,-966.4689 743.8969,-998.2349 764.5531,-974.0777 744.98,-966.4689"/>
</g>
<!-- 2 -->
<g id="node3" class="node">
<title>2</title>
<polygon fill="#f2f2f2" stroke="#000000" points="122.3148,-1185.3 122.3148,-1427.7 560.9146,-1427.7 560.9146,-1185.3 122.3148,-1185.3"/>
<text text-anchor="middle" x="341.6147" y="-1411.1" font-family="Times,serif" font-size="14.00" fill="#000000">&lt;&lt;Interface&gt;&gt;</text>
<text text-anchor="middle" x="341.6147" y="-1394.3" font-family="Times,serif" font-size="14.00" fill="#000000">IERC20</text>
<polyline fill="none" stroke="#000000" points="122.3148,-1386.1 560.9146,-1386.1 "/>
<text text-anchor="middle" x="341.6147" y="-1369.5" font-family="Times,serif" font-size="14.00" fill="#000000"> </text>
<polyline fill="none" stroke="#000000" points="122.3148,-1361.3 560.9146,-1361.3 "/>
<text text-anchor="start" x="130.3148" y="-1344.7" font-family="Times,serif" font-size="14.00" fill="#000000">External:</text>
<text text-anchor="start" x="130.3148" y="-1327.9" font-family="Times,serif" font-size="14.00" fill="#000000"> &#160;&#160;&#160;&#160;totalSupply(): uint256</text>
<text text-anchor="start" x="130.3148" y="-1311.1" font-family="Times,serif" font-size="14.00" fill="#000000"> &#160;&#160;&#160;&#160;balanceOf(account: address): uint256</text>
<text text-anchor="start" x="130.3148" y="-1294.3" font-family="Times,serif" font-size="14.00" fill="#000000"> &#160;&#160;&#160;&#160;transfer(recipient: address, amount: uint256): bool</text>
<text text-anchor="start" x="130.3148" y="-1277.5" font-family="Times,serif" font-size="14.00" fill="#000000"> &#160;&#160;&#160;&#160;allowance(owner: address, spender: address): uint256</text>
<text text-anchor="start" x="130.3148" y="-1260.7" font-family="Times,serif" font-size="14.00" fill="#000000"> &#160;&#160;&#160;&#160;approve(spender: address, amount: uint256): bool</text>
<text text-anchor="start" x="130.3148" y="-1243.9" font-family="Times,serif" font-size="14.00" fill="#000000"> &#160;&#160;&#160;&#160;transferFrom(sender: address, recipient: address, amount: uint256): bool</text>
<text text-anchor="start" x="130.3148" y="-1227.1" font-family="Times,serif" font-size="14.00" fill="#000000">Public:</text>
<text text-anchor="start" x="130.3148" y="-1210.3" font-family="Times,serif" font-size="14.00" fill="#000000"> &#160;&#160;&#160;&lt;&lt;event&gt;&gt; Transfer(from: address, to: address, value: uint256)</text>
<text text-anchor="start" x="130.3148" y="-1193.5" font-family="Times,serif" font-size="14.00" fill="#000000"> &#160;&#160;&#160;&lt;&lt;event&gt;&gt; Approval(owner: address, spender: address, value: uint256)</text>
</g>
<!-- 3 -->
<g id="node4" class="node">
<title>3</title>
<polygon fill="#f2f2f2" stroke="#000000" points="231.2381,-989.9 231.2381,-1131.5 359.9913,-1131.5 359.9913,-989.9 231.2381,-989.9"/>
<text text-anchor="middle" x="295.6147" y="-1114.9" font-family="Times,serif" font-size="14.00" fill="#000000">&lt;&lt;Interface&gt;&gt;</text>
<text text-anchor="middle" x="295.6147" y="-1098.1" font-family="Times,serif" font-size="14.00" fill="#000000">IERC20Metadata</text>
<polyline fill="none" stroke="#000000" points="231.2381,-1089.9 359.9913,-1089.9 "/>
<text text-anchor="middle" x="295.6147" y="-1073.3" font-family="Times,serif" font-size="14.00" fill="#000000"> </text>
<polyline fill="none" stroke="#000000" points="231.2381,-1065.1 359.9913,-1065.1 "/>
<text text-anchor="start" x="239.2381" y="-1048.5" font-family="Times,serif" font-size="14.00" fill="#000000">External:</text>
<text text-anchor="start" x="239.2381" y="-1031.7" font-family="Times,serif" font-size="14.00" fill="#000000"> &#160;&#160;&#160;&#160;name(): string</text>
<text text-anchor="start" x="239.2381" y="-1014.9" font-family="Times,serif" font-size="14.00" fill="#000000"> &#160;&#160;&#160;&#160;symbol(): string</text>
<text text-anchor="start" x="239.2381" y="-998.1" font-family="Times,serif" font-size="14.00" fill="#000000"> &#160;&#160;&#160;&#160;decimals(): uint8</text>
</g>
<!-- 3&#45;&gt;2 -->
<g id="edge3" class="edge">
<title>3&#45;&gt;2</title>
<path fill="none" stroke="#000000" stroke-dasharray="5,2" d="M308.9198,-1131.7955C310.3386,-1139.3766 311.8176,-1147.2796 313.3287,-1155.3546"/>
<polygon fill="none" stroke="#000000" points="303.0522,-1157.523 318.8916,-1185.0796 323.6938,-1153.66 303.0522,-1157.523"/>
</g>
<!-- 4 -->
<g id="node5" class="node">
<title>4</title>
<polygon fill="#f2f2f2" stroke="#000000" points="124.0648,-475.3 124.0648,-936.1 559.1646,-936.1 559.1646,-475.3 124.0648,-475.3"/>
<text text-anchor="middle" x="341.6147" y="-919.5" font-family="Times,serif" font-size="14.00" fill="#000000">ERC20</text>
<polyline fill="none" stroke="#000000" points="124.0648,-911.3 559.1646,-911.3 "/>
<text text-anchor="start" x="132.0648" y="-894.7" font-family="Times,serif" font-size="14.00" fill="#000000">Private:</text>
<text text-anchor="start" x="132.0648" y="-877.9" font-family="Times,serif" font-size="14.00" fill="#000000"> &#160;&#160;_balances: mapping(address=&gt;uint256)</text>
<text text-anchor="start" x="132.0648" y="-861.1" font-family="Times,serif" font-size="14.00" fill="#000000"> &#160;&#160;_allowances: mapping(address=&gt;mapping(address=&gt;uint256))</text>
<text text-anchor="start" x="132.0648" y="-844.3" font-family="Times,serif" font-size="14.00" fill="#000000"> &#160;&#160;_totalSupply: uint256</text>
<text text-anchor="start" x="132.0648" y="-827.5" font-family="Times,serif" font-size="14.00" fill="#000000"> &#160;&#160;_name: string</text>
<text text-anchor="start" x="132.0648" y="-810.7" font-family="Times,serif" font-size="14.00" fill="#000000"> &#160;&#160;_symbol: string</text>
<polyline fill="none" stroke="#000000" points="124.0648,-802.5 559.1646,-802.5 "/>
<text text-anchor="start" x="132.0648" y="-785.9" font-family="Times,serif" font-size="14.00" fill="#000000">Internal:</text>
<text text-anchor="start" x="132.0648" y="-769.1" font-family="Times,serif" font-size="14.00" fill="#000000"> &#160;&#160;&#160;_transfer(sender: address, recipient: address, amount: uint256)</text>
<text text-anchor="start" x="132.0648" y="-752.3" font-family="Times,serif" font-size="14.00" fill="#000000"> &#160;&#160;&#160;_mint(account: address, amount: uint256)</text>
<text text-anchor="start" x="132.0648" y="-735.5" font-family="Times,serif" font-size="14.00" fill="#000000"> &#160;&#160;&#160;_burn(account: address, amount: uint256)</text>
<text text-anchor="start" x="132.0648" y="-718.7" font-family="Times,serif" font-size="14.00" fill="#000000"> &#160;&#160;&#160;_approve(owner: address, spender: address, amount: uint256)</text>
<text text-anchor="start" x="132.0648" y="-701.9" font-family="Times,serif" font-size="14.00" fill="#000000"> &#160;&#160;&#160;_beforeTokenTransfer(from: address, to: address, amount: uint256)</text>
<text text-anchor="start" x="132.0648" y="-685.1" font-family="Times,serif" font-size="14.00" fill="#000000">Public:</text>
<text text-anchor="start" x="132.0648" y="-668.3" font-family="Times,serif" font-size="14.00" fill="#000000"> &#160;&#160;&#160;constructor(name_: string, symbol_: string)</text>
<text text-anchor="start" x="132.0648" y="-651.5" font-family="Times,serif" font-size="14.00" fill="#000000"> &#160;&#160;&#160;name(): string</text>
<text text-anchor="start" x="132.0648" y="-634.7" font-family="Times,serif" font-size="14.00" fill="#000000"> &#160;&#160;&#160;symbol(): string</text>
<text text-anchor="start" x="132.0648" y="-617.9" font-family="Times,serif" font-size="14.00" fill="#000000"> &#160;&#160;&#160;decimals(): uint8</text>
<text text-anchor="start" x="132.0648" y="-601.1" font-family="Times,serif" font-size="14.00" fill="#000000"> &#160;&#160;&#160;totalSupply(): uint256</text>
<text text-anchor="start" x="132.0648" y="-584.3" font-family="Times,serif" font-size="14.00" fill="#000000"> &#160;&#160;&#160;balanceOf(account: address): uint256</text>
<text text-anchor="start" x="132.0648" y="-567.5" font-family="Times,serif" font-size="14.00" fill="#000000"> &#160;&#160;&#160;transfer(recipient: address, amount: uint256): bool</text>
<text text-anchor="start" x="132.0648" y="-550.7" font-family="Times,serif" font-size="14.00" fill="#000000"> &#160;&#160;&#160;allowance(owner: address, spender: address): uint256</text>
<text text-anchor="start" x="132.0648" y="-533.9" font-family="Times,serif" font-size="14.00" fill="#000000"> &#160;&#160;&#160;approve(spender: address, amount: uint256): bool</text>
<text text-anchor="start" x="132.0648" y="-517.1" font-family="Times,serif" font-size="14.00" fill="#000000"> &#160;&#160;&#160;transferFrom(sender: address, recipient: address, amount: uint256): bool</text>
<text text-anchor="start" x="132.0648" y="-500.3" font-family="Times,serif" font-size="14.00" fill="#000000"> &#160;&#160;&#160;increaseAllowance(spender: address, addedValue: uint256): bool</text>
<text text-anchor="start" x="132.0648" y="-483.5" font-family="Times,serif" font-size="14.00" fill="#000000"> &#160;&#160;&#160;decreaseAllowance(spender: address, subtractedValue: uint256): bool</text>
</g>
<!-- 4&#45;&gt;0 -->
<g id="edge4" class="edge">
<title>4&#45;&gt;0</title>
<path fill="none" stroke="#000000" d="M559.4089,-923.4324C564.1706,-927.8777 568.9099,-932.2716 573.6147,-936.6 588.5831,-950.371 604.7296,-964.6428 620.6375,-978.3907"/>
<polygon fill="none" stroke="#000000" points="613.9858,-986.5182 643.6089,-998.0387 627.6357,-970.5595 613.9858,-986.5182"/>
</g>
<!-- 4&#45;&gt;2 -->
<g id="edge5" class="edge">
<title>4&#45;&gt;2</title>
<path fill="none" stroke="#000000" stroke-dasharray="5,2" d="M368.378,-936.1154C372.8996,-1004.6119 374.4803,-1079.7824 368.6147,-1148.8 368.4429,-1150.8217 368.2589,-1152.8565 368.0635,-1154.9018"/>
<polygon fill="none" stroke="#000000" points="357.6066,-1153.9219 364.5434,-1184.9401 378.4639,-1156.3662 357.6066,-1153.9219"/>
</g>
<!-- 4&#45;&gt;3 -->
<g id="edge6" class="edge">
<title>4&#45;&gt;3</title>
<path fill="none" stroke="#000000" stroke-dasharray="5,2" d="M311.7033,-936.5382C310.6872,-944.3796 309.691,-952.0679 308.7236,-959.5336"/>
<polygon fill="none" stroke="#000000" points="298.2577,-958.5931 304.8155,-989.6937 319.0836,-961.2917 298.2577,-958.5931"/>
</g>
<!-- 5 -->
<g id="node6" class="node">
<title>5</title>
<polygon fill="#f2f2f2" stroke="#000000" points="487.9211,-254.7 487.9211,-379.5 775.3083,-379.5 775.3083,-254.7 487.9211,-254.7"/>
<text text-anchor="middle" x="631.6147" y="-362.9" font-family="Times,serif" font-size="14.00" fill="#000000">&lt;&lt;Abstract&gt;&gt;</text>
<text text-anchor="middle" x="631.6147" y="-346.1" font-family="Times,serif" font-size="14.00" fill="#000000">ERC20Burnable</text>
<polyline fill="none" stroke="#000000" points="487.9211,-337.9 775.3083,-337.9 "/>
<text text-anchor="middle" x="631.6147" y="-321.3" font-family="Times,serif" font-size="14.00" fill="#000000"> </text>
<polyline fill="none" stroke="#000000" points="487.9211,-313.1 775.3083,-313.1 "/>
<text text-anchor="start" x="495.9211" y="-296.5" font-family="Times,serif" font-size="14.00" fill="#000000">Public:</text>
<text text-anchor="start" x="495.9211" y="-279.7" font-family="Times,serif" font-size="14.00" fill="#000000"> &#160;&#160;&#160;burn(amount: uint256)</text>
<text text-anchor="start" x="495.9211" y="-262.9" font-family="Times,serif" font-size="14.00" fill="#000000"> &#160;&#160;&#160;burnFrom(account: address, amount: uint256)</text>
</g>
<!-- 5&#45;&gt;0 -->
<g id="edge7" class="edge">
<title>5&#45;&gt;0</title>
<path fill="none" stroke="#000000" d="M619.3627,-379.7558C614.3253,-408.5782 609.0963,-443.2964 606.6147,-474.8 590.497,-679.4106 532.5275,-745.1937 606.6147,-936.6 611.73,-949.8155 618.9799,-962.4885 627.3687,-974.3483"/>
<polygon fill="none" stroke="#000000" points="619.535,-981.3627 646.5079,-998.1769 635.9077,-968.2121 619.535,-981.3627"/>
</g>
<!-- 5&#45;&gt;4 -->
<g id="edge8" class="edge">
<title>5&#45;&gt;4</title>
<path fill="none" stroke="#000000" d="M585.0212,-379.5353C569.5756,-400.2324 551.3093,-424.7092 531.8337,-450.8066"/>
<polygon fill="none" stroke="#000000" points="523.1816,-444.8443 513.6541,-475.1673 540.0117,-457.4041 523.1816,-444.8443"/>
</g>
<!-- 6 -->
<g id="node7" class="node">
<title>6</title>
<polygon fill="#f2f2f2" stroke="#000000" points="0,-246.3 0,-387.9 195.2294,-387.9 195.2294,-246.3 0,-246.3"/>
<text text-anchor="middle" x="97.6147" y="-371.3" font-family="Times,serif" font-size="14.00" fill="#000000">&lt;&lt;Abstract&gt;&gt;</text>
<text text-anchor="middle" x="97.6147" y="-354.5" font-family="Times,serif" font-size="14.00" fill="#000000">ERC20Decimals</text>
<polyline fill="none" stroke="#000000" points="0,-346.3 195.2294,-346.3 "/>
<text text-anchor="start" x="8" y="-329.7" font-family="Times,serif" font-size="14.00" fill="#000000">Private:</text>
<text text-anchor="start" x="8" y="-312.9" font-family="Times,serif" font-size="14.00" fill="#000000"> &#160;&#160;_decimals: uint8</text>
<polyline fill="none" stroke="#000000" points="0,-304.7 195.2294,-304.7 "/>
<text text-anchor="start" x="8" y="-288.1" font-family="Times,serif" font-size="14.00" fill="#000000">Public:</text>
<text text-anchor="start" x="8" y="-271.3" font-family="Times,serif" font-size="14.00" fill="#000000"> &#160;&#160;&#160;constructor(decimals_: uint8)</text>
<text text-anchor="start" x="8" y="-254.5" font-family="Times,serif" font-size="14.00" fill="#000000"> &#160;&#160;&#160;decimals(): uint8</text>
</g>
<!-- 6&#45;&gt;4 -->
<g id="edge9" class="edge">
<title>6&#45;&gt;4</title>
<path fill="none" stroke="#000000" d="M142.0843,-387.9234C153.6694,-406.374 166.847,-427.361 180.7791,-449.5495"/>
<polygon fill="none" stroke="#000000" points="171.9394,-455.217 196.7846,-475.0403 189.7242,-444.0499 171.9394,-455.217"/>
</g>
<!-- 7 -->
<g id="node8" class="node">
<title>7</title>
<polygon fill="#f2f2f2" stroke="#000000" points="213.0824,-195.9 213.0824,-438.3 470.147,-438.3 470.147,-195.9 213.0824,-195.9"/>
<text text-anchor="middle" x="341.6147" y="-421.7" font-family="Times,serif" font-size="14.00" fill="#000000">&lt;&lt;Abstract&gt;&gt;</text>
<text text-anchor="middle" x="341.6147" y="-404.9" font-family="Times,serif" font-size="14.00" fill="#000000">ERC20Mintable</text>
<polyline fill="none" stroke="#000000" points="213.0824,-396.7 470.147,-396.7 "/>
<text text-anchor="start" x="221.0824" y="-380.1" font-family="Times,serif" font-size="14.00" fill="#000000">Private:</text>
<text text-anchor="start" x="221.0824" y="-363.3" font-family="Times,serif" font-size="14.00" fill="#000000"> &#160;&#160;_mintingFinished: bool</text>
<polyline fill="none" stroke="#000000" points="213.0824,-355.1 470.147,-355.1 "/>
<text text-anchor="start" x="221.0824" y="-338.5" font-family="Times,serif" font-size="14.00" fill="#000000">Internal:</text>
<text text-anchor="start" x="221.0824" y="-321.7" font-family="Times,serif" font-size="14.00" fill="#000000"> &#160;&#160;&#160;_finishMinting()</text>
<text text-anchor="start" x="221.0824" y="-304.9" font-family="Times,serif" font-size="14.00" fill="#000000">External:</text>
<text text-anchor="start" x="221.0824" y="-288.1" font-family="Times,serif" font-size="14.00" fill="#000000"> &#160;&#160;&#160;mintingFinished(): bool</text>
<text text-anchor="start" x="221.0824" y="-271.3" font-family="Times,serif" font-size="14.00" fill="#000000"> &#160;&#160;&#160;mint(account: address, amount: uint256)</text>
<text text-anchor="start" x="221.0824" y="-254.5" font-family="Times,serif" font-size="14.00" fill="#000000"> &#160;&#160;&#160;finishMinting()</text>
<text text-anchor="start" x="221.0824" y="-237.7" font-family="Times,serif" font-size="14.00" fill="#000000">Public:</text>
<text text-anchor="start" x="221.0824" y="-220.9" font-family="Times,serif" font-size="14.00" fill="#000000"> &#160;&#160;&#160;&lt;&lt;event&gt;&gt; MintFinished()</text>
<text text-anchor="start" x="221.0824" y="-204.1" font-family="Times,serif" font-size="14.00" fill="#000000"> &#160;&#160;&#160;&lt;&lt;modifier&gt;&gt; canMint()</text>
</g>
<!-- 7&#45;&gt;4 -->
<g id="edge10" class="edge">
<title>7&#45;&gt;4</title>
<path fill="none" stroke="#000000" d="M341.6147,-438.457C341.6147,-440.6909 341.6147,-442.9399 341.6147,-445.2024"/>
<polygon fill="none" stroke="#000000" points="331.1148,-445.2641 341.6147,-475.2641 352.1148,-445.2641 331.1148,-445.2641"/>
</g>
<!-- 8 -->
<g id="node9" class="node">
<title>8</title>
<polygon fill="#f2f2f2" stroke="#000000" points="948.7679,-981.5 948.7679,-1139.9 1268.4615,-1139.9 1268.4615,-981.5 948.7679,-981.5"/>
<text text-anchor="middle" x="1108.6147" y="-1123.3" font-family="Times,serif" font-size="14.00" fill="#000000">&lt;&lt;Library&gt;&gt;</text>
<text text-anchor="middle" x="1108.6147" y="-1106.5" font-family="Times,serif" font-size="14.00" fill="#000000">Strings</text>
<polyline fill="none" stroke="#000000" points="948.7679,-1098.3 1268.4615,-1098.3 "/>
<text text-anchor="start" x="956.7679" y="-1081.7" font-family="Times,serif" font-size="14.00" fill="#000000">Private:</text>
<text text-anchor="start" x="956.7679" y="-1064.9" font-family="Times,serif" font-size="14.00" fill="#000000"> &#160;&#160;alphabet: bytes16</text>
<polyline fill="none" stroke="#000000" points="948.7679,-1056.7 1268.4615,-1056.7 "/>
<text text-anchor="start" x="956.7679" y="-1040.1" font-family="Times,serif" font-size="14.00" fill="#000000">Internal:</text>
<text text-anchor="start" x="956.7679" y="-1023.3" font-family="Times,serif" font-size="14.00" fill="#000000"> &#160;&#160;&#160;toString(value: uint256): string</text>
<text text-anchor="start" x="956.7679" y="-1006.5" font-family="Times,serif" font-size="14.00" fill="#000000"> &#160;&#160;&#160;toHexString(value: uint256): string</text>
<text text-anchor="start" x="956.7679" y="-989.7" font-family="Times,serif" font-size="14.00" fill="#000000"> &#160;&#160;&#160;toHexString(value: uint256, length: uint256): string</text>
</g>
<!-- 9 -->
<g id="node10" class="node">
<title>9</title>
<polygon fill="#f2f2f2" stroke="#000000" points="1285.197,-1252.5 1285.197,-1360.5 1562.0324,-1360.5 1562.0324,-1252.5 1285.197,-1252.5"/>
<text text-anchor="middle" x="1423.6147" y="-1343.9" font-family="Times,serif" font-size="14.00" fill="#000000">&lt;&lt;Interface&gt;&gt;</text>
<text text-anchor="middle" x="1423.6147" y="-1327.1" font-family="Times,serif" font-size="14.00" fill="#000000">IERC165</text>
<polyline fill="none" stroke="#000000" points="1285.197,-1318.9 1562.0324,-1318.9 "/>
<text text-anchor="middle" x="1423.6147" y="-1302.3" font-family="Times,serif" font-size="14.00" fill="#000000"> </text>
<polyline fill="none" stroke="#000000" points="1285.197,-1294.1 1562.0324,-1294.1 "/>
<text text-anchor="start" x="1293.197" y="-1277.5" font-family="Times,serif" font-size="14.00" fill="#000000">External:</text>
<text text-anchor="start" x="1293.197" y="-1260.7" font-family="Times,serif" font-size="14.00" fill="#000000"> &#160;&#160;&#160;&#160;supportsInterface(interfaceId: bytes4): bool</text>
</g>
<!-- 10 -->
<g id="node11" class="node">
<title>10</title>
<polygon fill="#f2f2f2" stroke="#000000" points="1286.947,-1006.7 1286.947,-1114.7 1560.2824,-1114.7 1560.2824,-1006.7 1286.947,-1006.7"/>
<text text-anchor="middle" x="1423.6147" y="-1098.1" font-family="Times,serif" font-size="14.00" fill="#000000">&lt;&lt;Abstract&gt;&gt;</text>
<text text-anchor="middle" x="1423.6147" y="-1081.3" font-family="Times,serif" font-size="14.00" fill="#000000">ERC165</text>
<polyline fill="none" stroke="#000000" points="1286.947,-1073.1 1560.2824,-1073.1 "/>
<text text-anchor="middle" x="1423.6147" y="-1056.5" font-family="Times,serif" font-size="14.00" fill="#000000"> </text>
<polyline fill="none" stroke="#000000" points="1286.947,-1048.3 1560.2824,-1048.3 "/>
<text text-anchor="start" x="1294.947" y="-1031.7" font-family="Times,serif" font-size="14.00" fill="#000000">Public:</text>
<text text-anchor="start" x="1294.947" y="-1014.9" font-family="Times,serif" font-size="14.00" fill="#000000"> &#160;&#160;&#160;supportsInterface(interfaceId: bytes4): bool</text>
</g>
<!-- 10&#45;&gt;9 -->
<g id="edge11" class="edge">
<title>10&#45;&gt;9</title>
<path fill="none" stroke="#000000" stroke-dasharray="5,2" d="M1423.6147,-1114.9461C1423.6147,-1146.3878 1423.6147,-1186.6561 1423.6147,-1222.1509"/>
<polygon fill="none" stroke="#000000" points="1413.1148,-1222.3924 1423.6147,-1252.3924 1434.1148,-1222.3924 1413.1148,-1222.3924"/>
</g>
<!-- 11 -->
<g id="node12" class="node">
<title>11</title>
<polygon fill="#f2f2f2" stroke="#000000" points="1578.0259,-973.1 1578.0259,-1148.3 1871.2035,-1148.3 1871.2035,-973.1 1578.0259,-973.1"/>
<text text-anchor="middle" x="1724.6147" y="-1131.7" font-family="Times,serif" font-size="14.00" fill="#000000">&lt;&lt;Interface&gt;&gt;</text>
<text text-anchor="middle" x="1724.6147" y="-1114.9" font-family="Times,serif" font-size="14.00" fill="#000000">IAccessControl</text>
<polyline fill="none" stroke="#000000" points="1578.0259,-1106.7 1871.2035,-1106.7 "/>
<text text-anchor="middle" x="1724.6147" y="-1090.1" font-family="Times,serif" font-size="14.00" fill="#000000"> </text>
<polyline fill="none" stroke="#000000" points="1578.0259,-1081.9 1871.2035,-1081.9 "/>
<text text-anchor="start" x="1586.0259" y="-1065.3" font-family="Times,serif" font-size="14.00" fill="#000000">External:</text>
<text text-anchor="start" x="1586.0259" y="-1048.5" font-family="Times,serif" font-size="14.00" fill="#000000"> &#160;&#160;&#160;&#160;hasRole(role: bytes32, account: address): bool</text>
<text text-anchor="start" x="1586.0259" y="-1031.7" font-family="Times,serif" font-size="14.00" fill="#000000"> &#160;&#160;&#160;&#160;getRoleAdmin(role: bytes32): bytes32</text>
<text text-anchor="start" x="1586.0259" y="-1014.9" font-family="Times,serif" font-size="14.00" fill="#000000"> &#160;&#160;&#160;&#160;grantRole(role: bytes32, account: address)</text>
<text text-anchor="start" x="1586.0259" y="-998.1" font-family="Times,serif" font-size="14.00" fill="#000000"> &#160;&#160;&#160;&#160;revokeRole(role: bytes32, account: address)</text>
<text text-anchor="start" x="1586.0259" y="-981.3" font-family="Times,serif" font-size="14.00" fill="#000000"> &#160;&#160;&#160;&#160;renounceRole(role: bytes32, account: address)</text>
</g>
<!-- 12 -->
<g id="node13" class="node">
<title>12</title>
<polygon fill="#f2f2f2" stroke="#000000" points="1118.3184,-492.1 1118.3184,-919.3 1728.911,-919.3 1728.911,-492.1 1118.3184,-492.1"/>
<text text-anchor="middle" x="1423.6147" y="-902.7" font-family="Times,serif" font-size="14.00" fill="#000000">&lt;&lt;Abstract&gt;&gt;</text>
<text text-anchor="middle" x="1423.6147" y="-885.9" font-family="Times,serif" font-size="14.00" fill="#000000">AccessControl</text>
<polyline fill="none" stroke="#000000" points="1118.3184,-877.7 1728.911,-877.7 "/>
<text text-anchor="start" x="1126.3184" y="-861.1" font-family="Times,serif" font-size="14.00" fill="#000000">Private:</text>
<text text-anchor="start" x="1126.3184" y="-844.3" font-family="Times,serif" font-size="14.00" fill="#000000"> &#160;&#160;_roles: mapping(bytes32=&gt;RoleData)</text>
<text text-anchor="start" x="1126.3184" y="-827.5" font-family="Times,serif" font-size="14.00" fill="#000000">Public:</text>
<text text-anchor="start" x="1126.3184" y="-810.7" font-family="Times,serif" font-size="14.00" fill="#000000"> &#160;&#160;DEFAULT_ADMIN_ROLE: bytes32</text>
<polyline fill="none" stroke="#000000" points="1118.3184,-802.5 1728.911,-802.5 "/>
<text text-anchor="start" x="1126.3184" y="-785.9" font-family="Times,serif" font-size="14.00" fill="#000000">Private:</text>
<text text-anchor="start" x="1126.3184" y="-769.1" font-family="Times,serif" font-size="14.00" fill="#000000"> &#160;&#160;&#160;_grantRole(role: bytes32, account: address)</text>
<text text-anchor="start" x="1126.3184" y="-752.3" font-family="Times,serif" font-size="14.00" fill="#000000"> &#160;&#160;&#160;_revokeRole(role: bytes32, account: address)</text>
<text text-anchor="start" x="1126.3184" y="-735.5" font-family="Times,serif" font-size="14.00" fill="#000000">Internal:</text>
<text text-anchor="start" x="1126.3184" y="-718.7" font-family="Times,serif" font-size="14.00" fill="#000000"> &#160;&#160;&#160;_checkRole(role: bytes32, account: address)</text>
<text text-anchor="start" x="1126.3184" y="-701.9" font-family="Times,serif" font-size="14.00" fill="#000000"> &#160;&#160;&#160;_setupRole(role: bytes32, account: address)</text>
<text text-anchor="start" x="1126.3184" y="-685.1" font-family="Times,serif" font-size="14.00" fill="#000000"> &#160;&#160;&#160;_setRoleAdmin(role: bytes32, adminRole: bytes32)</text>
<text text-anchor="start" x="1126.3184" y="-668.3" font-family="Times,serif" font-size="14.00" fill="#000000">Public:</text>
<text text-anchor="start" x="1126.3184" y="-651.5" font-family="Times,serif" font-size="14.00" fill="#000000"> &#160;&#160;&#160;&lt;&lt;event&gt;&gt; RoleAdminChanged(role: bytes32, previousAdminRole: bytes32, newAdminRole: bytes32)</text>
<text text-anchor="start" x="1126.3184" y="-634.7" font-family="Times,serif" font-size="14.00" fill="#000000"> &#160;&#160;&#160;&lt;&lt;event&gt;&gt; RoleGranted(role: bytes32, account: address, sender: address)</text>
<text text-anchor="start" x="1126.3184" y="-617.9" font-family="Times,serif" font-size="14.00" fill="#000000"> &#160;&#160;&#160;&lt;&lt;event&gt;&gt; RoleRevoked(role: bytes32, account: address, sender: address)</text>
<text text-anchor="start" x="1126.3184" y="-601.1" font-family="Times,serif" font-size="14.00" fill="#000000"> &#160;&#160;&#160;&lt;&lt;modifier&gt;&gt; onlyRole(role: bytes32)</text>
<text text-anchor="start" x="1126.3184" y="-584.3" font-family="Times,serif" font-size="14.00" fill="#000000"> &#160;&#160;&#160;supportsInterface(interfaceId: bytes4): bool</text>
<text text-anchor="start" x="1126.3184" y="-567.5" font-family="Times,serif" font-size="14.00" fill="#000000"> &#160;&#160;&#160;hasRole(role: bytes32, account: address): bool</text>
<text text-anchor="start" x="1126.3184" y="-550.7" font-family="Times,serif" font-size="14.00" fill="#000000"> &#160;&#160;&#160;getRoleAdmin(role: bytes32): bytes32</text>
<text text-anchor="start" x="1126.3184" y="-533.9" font-family="Times,serif" font-size="14.00" fill="#000000"> &#160;&#160;&#160;grantRole(role: bytes32, account: address)</text>
<text text-anchor="start" x="1126.3184" y="-517.1" font-family="Times,serif" font-size="14.00" fill="#000000"> &#160;&#160;&#160;revokeRole(role: bytes32, account: address)</text>
<text text-anchor="start" x="1126.3184" y="-500.3" font-family="Times,serif" font-size="14.00" fill="#000000"> &#160;&#160;&#160;renounceRole(role: bytes32, account: address)</text>
</g>
<!-- 12&#45;&gt;0 -->
<g id="edge12" class="edge">
<title>12&#45;&gt;0</title>
<path fill="none" stroke="#000000" d="M1143.7926,-919.4293C1132.1189,-925.575 1120.3718,-931.3325 1108.6147,-936.6 1038.5308,-967.9994 1013.0849,-950.2436 939.6147,-972.6 902.0496,-984.0308 861.9174,-999.1829 826.3529,-1013.6931"/>
<polygon fill="none" stroke="#000000" points="822.2934,-1004.0095 798.639,-1025.2397 830.3699,-1023.3943 822.2934,-1004.0095"/>
</g>
<!-- 12&#45;&gt;8 -->
<g id="edge15" class="edge">
<title>12&#45;&gt;8</title>
<path fill="none" stroke="#000000" stroke-dasharray="5,2" d="M1234.0161,-919.3746C1217.1802,-938.3484 1200.8553,-956.7463 1185.8557,-973.6506"/>
<polygon fill="#000000" stroke="#000000" points="1183.0793,-971.5061 1179.0602,-981.309 1188.3153,-976.1521 1183.0793,-971.5061"/>
</g>
<!-- 12&#45;&gt;10 -->
<g id="edge14" class="edge">
<title>12&#45;&gt;10</title>
<path fill="none" stroke="#000000" d="M1423.6147,-919.3746C1423.6147,-939.3482 1423.6147,-958.6836 1423.6147,-976.3103"/>
<polygon fill="none" stroke="#000000" points="1413.1148,-976.4193 1423.6147,-1006.4194 1434.1148,-976.4194 1413.1148,-976.4193"/>
</g>
<!-- 12&#45;&gt;11 -->
<g id="edge13" class="edge">
<title>12&#45;&gt;11</title>
<path fill="none" stroke="#000000" stroke-dasharray="5,2" d="M1604.7867,-919.3746C1613.5576,-929.719 1622.1834,-939.8923 1630.5379,-949.7457"/>
<polygon fill="none" stroke="#000000" points="1622.6596,-956.69 1650.0698,-972.7816 1638.6771,-943.109 1622.6596,-956.69"/>
</g>
<!-- 12struct0 -->
<g id="node14" class="node">
<title>12struct0</title>
<polygon fill="#f2f2f2" stroke="#000000" points="1165.7737,-275.5 1165.7737,-358.7 1381.4557,-358.7 1381.4557,-275.5 1165.7737,-275.5"/>
<text text-anchor="middle" x="1273.6147" y="-342.1" font-family="Times,serif" font-size="14.00" fill="#000000">&lt;&lt;struct&gt;&gt;</text>
<text text-anchor="middle" x="1273.6147" y="-325.3" font-family="Times,serif" font-size="14.00" fill="#000000">RoleData</text>
<polyline fill="none" stroke="#000000" points="1165.7737,-317.1 1381.4557,-317.1 "/>
<text text-anchor="start" x="1173.7737" y="-300.5" font-family="Times,serif" font-size="14.00" fill="#000000">members: mapping(address=&gt;bool)</text>
<text text-anchor="start" x="1173.7737" y="-283.7" font-family="Times,serif" font-size="14.00" fill="#000000">adminRole: bytes32</text>
</g>
<!-- 12struct0&#45;&gt;12 -->
<g id="edge1" class="edge">
<title>12struct0&#45;&gt;12</title>
<path fill="none" stroke="#000000" d="M1289.8098,-359.0562C1301.6623,-389.762 1318.7656,-434.0709 1336.8038,-480.802"/>
<polygon fill="#000000" stroke="#000000" points="1336.8366,-480.8871 1342.729,-485.0442 1341.158,-492.0821 1335.2657,-487.9251 1336.8366,-480.8871"/>
</g>
<!-- 13 -->
<g id="node15" class="node">
<title>13</title>
<polygon fill="#f2f2f2" stroke="#000000" points="1399.8153,-254.7 1399.8153,-379.5 1585.4141,-379.5 1585.4141,-254.7 1399.8153,-254.7"/>
<text text-anchor="middle" x="1492.6147" y="-362.9" font-family="Times,serif" font-size="14.00" fill="#000000">Roles</text>
<polyline fill="none" stroke="#000000" points="1399.8153,-354.7 1585.4141,-354.7 "/>
<text text-anchor="start" x="1407.8153" y="-338.1" font-family="Times,serif" font-size="14.00" fill="#000000">Public:</text>
<text text-anchor="start" x="1407.8153" y="-321.3" font-family="Times,serif" font-size="14.00" fill="#000000"> &#160;&#160;MINTER_ROLE: bytes32</text>
<polyline fill="none" stroke="#000000" points="1399.8153,-313.1 1585.4141,-313.1 "/>
<text text-anchor="start" x="1407.8153" y="-296.5" font-family="Times,serif" font-size="14.00" fill="#000000">Public:</text>
<text text-anchor="start" x="1407.8153" y="-279.7" font-family="Times,serif" font-size="14.00" fill="#000000"> &#160;&#160;&#160;&lt;&lt;modifier&gt;&gt; onlyMinter()</text>
<text text-anchor="start" x="1407.8153" y="-262.9" font-family="Times,serif" font-size="14.00" fill="#000000"> &#160;&#160;&#160;constructor()</text>
</g>
<!-- 13&#45;&gt;12 -->
<g id="edge16" class="edge">
<title>13&#45;&gt;12</title>
<path fill="none" stroke="#000000" d="M1481.5287,-379.5353C1477.3138,-403.273 1472.2161,-431.9824 1466.814,-462.4063"/>
<polygon fill="none" stroke="#000000" points="1456.4669,-460.621 1461.5603,-491.9947 1477.1435,-464.2924 1456.4669,-460.621"/>
</g>
<!-- 14 -->
<g id="node16" class="node">
<title>14</title>
<polygon fill="#f2f2f2" stroke="#000000" points="1143.9253,-25.7 1143.9253,-133.7 1319.3041,-133.7 1319.3041,-25.7 1143.9253,-25.7"/>
<text text-anchor="middle" x="1231.6147" y="-117.1" font-family="Times,serif" font-size="14.00" fill="#000000">&lt;&lt;Interface&gt;&gt;</text>
<text text-anchor="middle" x="1231.6147" y="-100.3" font-family="Times,serif" font-size="14.00" fill="#000000">IPayable</text>
<polyline fill="none" stroke="#000000" points="1143.9253,-92.1 1319.3041,-92.1 "/>
<text text-anchor="middle" x="1231.6147" y="-75.5" font-family="Times,serif" font-size="14.00" fill="#000000"> </text>
<polyline fill="none" stroke="#000000" points="1143.9253,-67.3 1319.3041,-67.3 "/>
<text text-anchor="start" x="1151.9253" y="-50.7" font-family="Times,serif" font-size="14.00" fill="#000000">External:</text>
<text text-anchor="start" x="1151.9253" y="-33.9" font-family="Times,serif" font-size="14.00" fill="#000000"> &#160;&#160;&#160;&#160;pay(serviceName: string)</text>
</g>
<!-- 15 -->
<g id="node17" class="node">
<title>15</title>
<polygon fill="#f2f2f2" stroke="#000000" points="831.5746,-263.1 831.5746,-371.1 1147.6548,-371.1 1147.6548,-263.1 831.5746,-263.1"/>
<text text-anchor="middle" x="989.6147" y="-354.5" font-family="Times,serif" font-size="14.00" fill="#000000">&lt;&lt;Abstract&gt;&gt;</text>
<text text-anchor="middle" x="989.6147" y="-337.7" font-family="Times,serif" font-size="14.00" fill="#000000">ServicePayer</text>
<polyline fill="none" stroke="#000000" points="831.5746,-329.5 1147.6548,-329.5 "/>
<text text-anchor="middle" x="989.6147" y="-312.9" font-family="Times,serif" font-size="14.00" fill="#000000"> </text>
<polyline fill="none" stroke="#000000" points="831.5746,-304.7 1147.6548,-304.7 "/>
<text text-anchor="start" x="839.5746" y="-288.1" font-family="Times,serif" font-size="14.00" fill="#000000">Public:</text>
<text text-anchor="start" x="839.5746" y="-271.3" font-family="Times,serif" font-size="14.00" fill="#000000"> &#160;&#160;&#160;constructor(receiver: address, serviceName: string)</text>
</g>
<!-- 16 -->
<g id="node18" class="node">
<title>16</title>
<polygon fill="#f2f2f2" stroke="#000000" points="480.8849,-.5 480.8849,-158.9 1126.3445,-158.9 1126.3445,-.5 480.8849,-.5"/>
<text text-anchor="middle" x="803.6147" y="-142.3" font-family="Times,serif" font-size="14.00" fill="#000000">UnlimitedERC20</text>
<polyline fill="none" stroke="#000000" points="480.8849,-134.1 1126.3445,-134.1 "/>
<text text-anchor="middle" x="803.6147" y="-117.5" font-family="Times,serif" font-size="14.00" fill="#000000"> </text>
<polyline fill="none" stroke="#000000" points="480.8849,-109.3 1126.3445,-109.3 "/>
<text text-anchor="start" x="488.8849" y="-92.7" font-family="Times,serif" font-size="14.00" fill="#000000">Internal:</text>
<text text-anchor="start" x="488.8849" y="-75.9" font-family="Times,serif" font-size="14.00" fill="#000000"> &#160;&#160;&#160;_mint(account: address, amount: uint256)</text>
<text text-anchor="start" x="488.8849" y="-59.1" font-family="Times,serif" font-size="14.00" fill="#000000"> &#160;&#160;&#160;_finishMinting()</text>
<text text-anchor="start" x="488.8849" y="-42.3" font-family="Times,serif" font-size="14.00" fill="#000000">Public:</text>
<text text-anchor="start" x="488.8849" y="-25.5" font-family="Times,serif" font-size="14.00" fill="#000000"> &#160;&#160;&#160;constructor(name_: string, symbol_: string, decimals_: uint8, initialBalance_: uint256, feeReceiver_: address)</text>
<text text-anchor="start" x="488.8849" y="-8.7" font-family="Times,serif" font-size="14.00" fill="#000000"> &#160;&#160;&#160;decimals(): uint8</text>
</g>
<!-- 16&#45;&gt;1 -->
<g id="edge20" class="edge">
<title>16&#45;&gt;1</title>
<path fill="none" stroke="#000000" d="M806.0446,-158.9902C808.696,-231.839 813.7892,-342.7488 822.6147,-438.8 826.5803,-481.959 832.266,-528.875 837.9051,-571.1619"/>
<polygon fill="none" stroke="#000000" points="827.5189,-572.71 841.9777,-601.0153 848.3262,-569.8714 827.5189,-572.71"/>
</g>
<!-- 16&#45;&gt;5 -->
<g id="edge19" class="edge">
<title>16&#45;&gt;5</title>
<path fill="none" stroke="#000000" d="M746.1021,-159.0808C729.5351,-181.9471 711.378,-207.0081 694.5033,-230.2992"/>
<polygon fill="none" stroke="#000000" points="685.9301,-224.2358 676.8316,-254.6902 702.9358,-236.5567 685.9301,-224.2358"/>
</g>
<!-- 16&#45;&gt;6 -->
<g id="edge17" class="edge">
<title>16&#45;&gt;6</title>
<path fill="none" stroke="#000000" d="M480.8389,-122.8126C365.9539,-142.1662 252.8591,-167.0495 203.6147,-195.4 190.2232,-203.1096 177.6823,-213.1453 166.2469,-224.1471"/>
<polygon fill="none" stroke="#000000" points="158.5053,-217.0528 145.6856,-246.1373 173.8446,-231.3953 158.5053,-217.0528"/>
</g>
<!-- 16&#45;&gt;7 -->
<g id="edge18" class="edge">
<title>16&#45;&gt;7</title>
<path fill="none" stroke="#000000" d="M550.3552,-158.9062C532.9786,-166.5929 515.8538,-174.85 496.6127,-185.4016"/>
<polygon fill="none" stroke="#000000" points="491.215,-176.393 470.4185,-200.4296 501.6653,-194.6081 491.215,-176.393"/>
</g>
<!-- 16&#45;&gt;13 -->
<g id="edge21" class="edge">
<title>16&#45;&gt;13</title>
<path fill="none" stroke="#000000" d="M1126.7457,-157.8876C1129.3783,-158.3986 1132.0017,-158.9029 1134.6147,-159.4 1247.4875,-180.8735 1290.1415,-139.6638 1390.6147,-195.4 1407.1272,-204.5601 1422.1056,-217.5309 1435.1887,-231.6173"/>
<polygon fill="none" stroke="#000000" points="1427.1531,-238.3761 1454.4364,-254.6816 1443.2763,-224.9209 1427.1531,-238.3761"/>
</g>
<!-- 16&#45;&gt;15 -->
<g id="edge22" class="edge">
<title>16&#45;&gt;15</title>
<path fill="none" stroke="#000000" d="M865.8086,-159.0808C885.9522,-184.791 908.2695,-213.2756 928.3454,-238.8993"/>
<polygon fill="none" stroke="#000000" points="920.3677,-245.7422 947.1352,-262.8815 936.8983,-232.7907 920.3677,-245.7422"/>
</g>
</g>
</svg>
